<mxfile host="app.diagrams.net" agent="Mozilla/5.0 (Windows NT 10.0; Win64; x64) AppleWebKit/537.36 (KHTML, like Gecko) Chrome/133.0.0.0 Safari/537.36" version="26.0.16">
  <diagram name="Pagina-1" id="z-U9i49V-TwLNY_UMR-D">
    <mxGraphModel dx="2074" dy="1098" grid="1" gridSize="10" guides="1" tooltips="1" connect="1" arrows="1" fold="1" page="1" pageScale="1" pageWidth="1169" pageHeight="827" math="0" shadow="0">
      <root>
        <mxCell id="0" />
        <mxCell id="1" parent="0" />
        <mxCell id="uxfQmLQUjlS_1vEImq67-5" style="edgeStyle=orthogonalEdgeStyle;rounded=0;orthogonalLoop=1;jettySize=auto;html=1;entryX=0;entryY=0.5;entryDx=0;entryDy=0;endArrow=none;startFill=0;" parent="1" source="uxfQmLQUjlS_1vEImq67-1" target="uxfQmLQUjlS_1vEImq67-3" edge="1">
          <mxGeometry relative="1" as="geometry" />
        </mxCell>
        <mxCell id="uxfQmLQUjlS_1vEImq67-1" value="AWS RDS MySQL Database" style="shape=image;verticalLabelPosition=bottom;labelBackgroundColor=default;verticalAlign=top;aspect=fixed;imageAspect=0;image=data:image/png,iVBORw0KGgoAAAANSUhEUgAAAnQAAAEBCAYAAADxbjggAAAAAXNSR0IArs4c6QAAAARnQU1BAACxjwv8YQUAAAAJcEhZcwAADsMAAA7DAcdvqGQAAP+lSURBVHhe7P3XkyRJnueJfVSNOQ/OMpKz4l3VZLqnh+/s9nIiAORwWNxBTgQi908cDoJ5W7kHPBxe8ACBQHblVm73bmXJLZ0d0sOqe7q7ujhLzjMigzt3N6KKBzVzN/fwyIzkpPSTYukeZu5uXPVrP6ZCa62xWCwWi8Visby0yPEZFovFYrFYLJaXCyvoLBaLxWKxWF5yrKCzWCwWi8Viecmxgs5isVgsFovlJccKOovFYrFYLJaXHCvoLBaLxWKxWF5yrKCzWCwWi8VieckRtg7dNwONBg1CiJG5Q0Tub53+PfqJgzGfyv/yKAcvmcT+dQ7nmF8S++aMvrNYLBaL5ZuFFXSvHHlRNnync3/L9K3OiTuBQqEGfxucsb+HxOln3QnyS5KMzfHG/r4/+7djEsNtUzgDU7Owws5isVgs30CsoHvlyMRQZsUaWrNGbW7mVaMH4uxJ4Gg1sAKOX1qOTmWXMK9K5IWhPNR2uGjidE/cfREDjhV0FovFYvlGYgXdK4qxyhl5l8kkJz3TAkArEiRaJMSpMHJRSByyK0KIRxdH2TpGMevRYz960AWoxleuExBDy5ybswQKxMAd++hbbbFYLBbLy4kVdK8oeSGnMGKoHWq6nZiOHneJgnAddJzQFRoZmW8GrkM/Th7rFdg376DXSdszPm82cHE9B0eAKwRSG5koRSZhraCzWCwWyzcPK+heIbTWJGpoFZPCIVaaJArZ7Wk+vnOPL6416e+sUZeLI9990Wm02hyd91iaW+Jbp8sszJaZDVyEIylogSsVUgiElFbOWSwWi+UbhxV0rxCZoNPKnNJYaXY7CX95cZMvv/6aS7f3uLVnPltXBQJP7rOMAXSUS0nGtCKXihcP/s5eH4fx3+ooF2DkffZ3ZrlrdCOmZA8dVDm/WuPovMdbx5c5slRidaFMNfDNdxC4jkBaRWexWCyWbxhW0L2wZC7EPPd3J2ogAZr9mObmPe7evsWnd0Pe/+oen1+5wb2GxvGLeOU5vKCA5xbQQplgOa3ROesegBRDgTUJpUfFXZLEOI5LkuwXfZ5bIIp7eG5hfNE+oriH45h1By7005+rFY0AdcvTLNY83jsecGZxiiNLJeZrBebKAVXfxTl07F92fLPX+x9fi8VisVheVKyge2HRuSg4c4o0xp2o0xQArTVaC7SAJNG0k4S79Q43Nnb58JcXuXR7j43bN/m6WTbfdwoUq1OQCixSUZYXbtnfmVjLlmnholUPIQto1QMYeZ//7EFkgi4v7PLry683QzseUicgBKWCT61aoVQuUHESIuFS9hLeXPYHwm5htsyRQoDjCyTgaI3W2sTYCQ1IdJacAakEzpIqrKCzWCwWy8uJFXQvCnkj0cA6Z6bRumwOKgGkKdGRJJq9XsRmp8eFa3W+uLnO5YvX+fmaS7txD6EUWkokLggX1w/wggKuV8n95ihKKqQaLwliuN+yJ4kSw4QIqROUdKkEzkDQeW5uGyRUnXhE2M3XCszXipQcjYg1UkfgybSkij84osOaeQ4ilcoWi8VisbxsWEH3onAfQWeWG6GhkSRK0dKCsBdzrd7kzu3OiJDr7NwZ/KxyFEKYGDMpCrh+QKFUQciDXZ+ZaFNyvOyIIVv2RISdSAaWSKnlSO06LRRCS5SOEVJSKgbUqhWmpkrD78uhITPQEb4vBsJufsbjyHyVuXJA2U+FmjAfztewM7Y8887KOYvFYrG8jFhB98Kh0RrEoAxHputM8kIv0YTdJl/uRNy91xkkO2RCLgm7OH4RpESJofsyE3V+MPVAC10eJYy7c1CcLkWm2/MoZFYxtW9ECRBamri+HFopHOlRKLqTLXQYIewn9cGfq1M1aoWQt44vjwg713MI0sQOF2mc2FqYfbRYLBaL5SXFCroXgvwpSOPidDr2qhRopenHCc1ID1yrmZDbuH2TS/ERovY2AMJx0VqNiLkMIfyBoPPcAkII1IThvSRJOpxWMhBdSjjG9SkcHKVJpMBJs2n1A2LnxhE6nija8gkQ2fv8qxsURyx0UTz8DdcBHEUQtwfzhChxpOayOO0wVa4Nyp3MlXx8R+AKgZOG1gmhx8a5tVgsFovl5cEKuufOfrem1kbEpRkQ9BPBJ3d3uHT5MjfuNAZCbqOv2eoVkNJFC4ESk0+l1iEcIOjGcWVErIZjr06yopFa0u6HFu5AGDJmlfOlIlQSX6p9om3SK6nAqxU93PI0pXKBwDXbnqSXb4EErTuQCrkwHVFCS7Odp8p6IOyOLmqOrc5xrFrCdwR+6mp19h8Oi8VisVheCqyge05oSEdZHU5Z9iVaEMcJ3W6H7e1tPtpw+enFHTZuXuT96zFRe3voWk2R0h0kT2QiJi/kMjJBVwrcEeE2CVdGhJNcq+klI3PWPa31wFJnLHCjVjtJghIg9ahIPEjUSeHiOfHIvIWqEXQzU8P9TrSmQEIPByE1WmjiMMH1HURujDGtBAUSKrJPrVLmh+dnmZ/xmFmoMF/0mfd9XPnwOa75m+dhv2uxWCwWy5PCCrrngAKUBpnL5DTzHVRuiK6sIPAff77Hzb2YOOwjElMmRKnYiDg15lqVEiEkWpvs1nEyQed7Q1GUt6L5vksYxrlxVPdbEEkTGDIUzkDETRJzA7IECK3xpSJKJn/Oc+LBsryoy1yutVoBJ7Uu9mNt3K1AnES4/lBkBnGbvqjiCEHY76CdIoEr8HSM7wvmCw7nVmf41ukyqwtlposBRSEOXccuk+KkYu4w37FYLBaL5WlgBd1TIjuokw9uQqwBoXC0IsGFRNJOErbbfT69tDMSI5fVkXsQ+fImEokWowPc+0Fagy5noZsUQ0fOonZY5NiOHva7Uo+6ebPLMS/qlI4PFHQZKientFbGWqfMqBGZ5VPmzoaX1rvLsmLzMXazgUvFc3GlsUZqRFbCbux8DgW5QNocWYvFYrE8N6yge4qMH9jsb2OhS0AoOrGDThR3652RZIdsZAcAr1A135epRUsnIBzEuHUuFXUyK5ybi6uTmO+6QXliUsRoIkT6+gz1SSYIXRnts9xlRYeLJW+QFCHRKIQRb2K/JXISeUE3zokq1AohS3NLvH7U5+zCNMWSS1E6SGGSU5yR1eTFnLHPWUFnsVgslueFFXTPgvwRFkbQ9bSm3o+4XW+zudng9sUbvP/VPf7sq22iXhMAxy+ahAengNI9pJ6c+JC3juUXayEgTQ4wC/OFhX2zbFKM3CNY6J402T5prR9ooUttaCNWuklkIjD/mhH2O5S8mKrjcPZojeXVAudmZwYjTwgBrmt8sQ4KgQIiIItDlOlksVgsFsuzxwq6p4xOh54SYn/5kUlDdCkVDxIepHTR0kWx3xKXZ9zdOSLqMqse+wWdGlj89L66cs9b0IEaFBoet9DVagWElEit0TlRNkgquQ+ZmMvekwpCgIpnXNaNBGoO+0aemCsHBL6DKwQuCZCk2bueFXQWi8Viea5YQfcUycQcQKwEe72Iq1tN1nZ2+OKz6/uEHJhs1ZHfmFCOJBNwmeC6r6DLW+kmCboJYo4XQtCZ/bqfhU6ldrmMBwm6gyx0WTxdX0p07uAJLai6eiTGbkTYpev2c+ueVArGYrFYLJanjRV0TxhtvKpDMSckYay53ezw2fW7fH5lj8sXr7Nx+yZf1gOSsDuIkZtEVnkjL64OK+h0Ji4OEHQIgUqFiDv2G89bzDEm6B7XQneQmMu+nwm5vKCLQ4lIuminyGxRjVjsFmbLLFYCAmmKE2e/ZwWdxWKxWJ4HVtA9IbKDmL0KrdFKEyrB7WaHTy/t8Ic//zn/+dOQ3u7tQQ054VVGSpHkyVvr8hmrBwm6rM7bkPvH0GUWOl5kZ6FO0EqNjOVaqxUQjkk5FfpwFjqJEX/jiQsajRZpATptRqzIEycRFUfSDk1Nv6WC5uzRGm+/NsP55TlWqgE+Aoeha92KOovFYrE8aw7uAS0Pjc4yWAGNQKHZafXZuvgZf/jzn/Ozj66NiDkp3YGYA5gvmPf73a7mVepRwZb9rXJiL//+leIAkaSFKSZ8EBI9EHMASqj0r+E8oZXJHAaElGZyzOS5Aa3Eoeyb4sz3eoL3Lzf54JO7XFzfpt6PzIqSGKEStDLCTmvz69lksVgsFsvTxAq6p4E2om6nm3Dzwsf8k1/c4WcfXaO+vYtTKKNdF+EW0GnSQ8ZOWBmIuexVqXgkJs4ymfuJurxblgM+K7RAaDW0+OWUmOdKWomDH5gxZFvdC1y+eJ0PPrnLpZs7NMMYLR2U1ohUGCZCpGkTFovFYrE8fayge8JkB3SnHXLt1pWBmNtZu0PPm4bUpaeIQZtJi6EVLhbGtReLEIVCOO5g2cNgLHX7hUseqRPkIKkgsy3mpxec8eMictMY45a87O9J4k5mbmhtrHtZfFw2bqwW57nZrfJnlxP+9JNbfHZji3pkzpWQINIki5fgCFosFovlFcEKuieM0hCFJpv1D35+eyDmQjW01WRjrJKLg0sI0QIcfGIR4uAjhCRh+NmnxVDUvfgocoWEtbGsPWlU6t5VcvjbFSchTiK0Yyynot/k9p01Ll+8zs8ubHFhrU49Uqi0Ll1eJlssFovF8rSxgu4JooBmGHP75nX+8E8/5Kc/+WCfmFOOwsEfxMJlrw7+QLyNv7cMkZhxavM8aVEntR5Y+RKZkMiEfjourkiM9a0pZ/C9Ih9uTfP+5SafXm1zt96hHsWEykWkmyg1Zvgwm3tksVgslqeIFXRPkDjSXFir8+PP1vjpTz7gy5sbhCrBlw7arQEgk6HVbfw1L96y98/CQmcZJbPQAQjciYKxEyfEArTqcev2Fn/y5Q3e/3yPu/UOfWlyOORQF1osFovF8lSxgu4hyOLkVRYvnzO6JEnCTqvPpx9+wT/58EsurLcGlrlJFjpyoi0v5PIiT+vhZy33Z5LoelSyGLoBwgEcXMdDOyZDueQ6IATa9QmV5PrtBpfu7HLhWp2NVh+VaKRWI8OLjf6qybJVJPuSNiwWi+VxyfqrSa3L/ZZZXl6soDsk2cU/nrWogDDNaP3ZtVu8/9U91j+7RTcdj3WcvIWO+1jpshi6R8WUNHlyIudl536CL58goYVGZf7S+9CJcyJduvQjxQcX1vjpxR0urm9zq9MnTIQpjJyOM5sAcTopBDqNsDt4yywWi+XRuZ9gu98yy8vJoyuGbzBZd6/RxDohbnd4/+INrvzxv+HzKzdIwg6+dEamQLUH33e1j9BmRIfsfX7ehMTLiRyq5lxaRuNlRGoQOkuAGB6UnJYaISs7InQmoUzNueHynCtVi8HEmKhDOOa4pZMmBhLiBETSBaASDAs2F1IxvtEVfHy7ywef3OXO+h6NfkQsJYmAREzOIZZIK+ksFstjkxkdhu2LqYZqUsmSkUmnpons84fsciwvOFbQPSKahAjFXjvhs5s3+IP3P+V//hLW79yE1M2aTZGCviwPvqts7uPj8xRbICPg0vc5de06DFyuKjEiU6aCuZdaVu9u1fmzywk/u7DF1a0m7f7wtyTgkiDT9xLHijmLxfJEEIBAI1FIkvSh1oi6rPzS6JSkyy2vClbQHRJzs2QdcUKMQzvUXLt1hT/4+W1ufH6RnbU7g89LJfGlg2D/wPeWJ8O+WLcnzHjdunEkamA5dJVGKolUkvWNJv/589Yg87WvNC4hkhCJxh2MoGuxWCyPy7htLrO5ZVNGlJvM94aiz/IqYPuV+zHWhwvSMVq1Q9KPuLBW5w9+fpuf/uQDPr16jzg2nXocD78olMZ7Akf5ga7VHCPjuebHcn2V2K+vDkXezXo/Jgk4Q9YYglACiUOsPFROuAsds7fX4pcXbnPhWp17ex36fYEkMd/PChQ/+m5YLBZLjnxrkpkfTDuX6IREJ4BppxItSSJFnAiUEmjNYLhCy8vNE5AaryiTrm0NaEEYaTY3N/j0wy94/y8/5cubGyMfc11zI8WxxnUF0WN6WMfHaT1U7JzlmTF+LrRw6fcjLl29w+9/eItPL+1wpx0SJz4oF0QWlWdFncVieVIMfUikTlWFi8RH4pNoF5U4JBN8BCIt1WSF3cuNFXQHYcxx+7rbOInZ217nT7++zT/76T0u3d0ZsciRE3IZT8JCZxnjRRK0erIVdK3rcunqHf7Dlx9z8e4WO90EJTUh7khixIu0KxaL5eVj2FOZrPoYQYSgpzX1RHO70+frzQZ319b56O4eW1ubrPUi4ihOna6Y4pmHRk9w7Zpp/J/l2SG0leMHMDwsWpsyEw5wd6/H5c9+zv/3z+/x/s8/pt8x2auZgAtVglQSJRW+dAbWOeWWkcUpHL8IUqbZjQeT9wqOW4Dux4i7FTHqchUurh/gBQVczz/EDXz/bXwm6AStFMJxKBV8KtUSlXIJL1XJYmzUiEfhoDFd95FI4iSi1Y5o7HXo9yO0MEOBFXxBL9QgEnwRESqJLxWdfszydJHffXeOH/3KaU4sV6n4Ho4AVwjcF+MoWyyWl5SsoqXUkBCT4BIjCRPNdifk+k6dxk6Dr9bu0ewoqiVJ4BVZlDEnjp8gKHscK5UpllzKgTuw8YFJskhXMkRk2bOgkfseSFXuwwKJ2PcJy9PCCroc2TOGyF3IGhNjECeavV7EB9fX+Of/5ucjYo5U0EXKWOOy0SFClQySIsYF3ePUmDs8r76gyyoDHiYu7iAeR9AJIVA4aXycIV/HTidm/kLV4zd+WObvvvcmx+eMqAtkjMTDSEKLxWJ5CLQRV4N/2mTUJ7h0EsGl7Trvf3mFX166y7Wbd2lGprxSo9OlVipS9XwKpQLnq1UqR+f4nXOnOH9knrlyQOA7uCLGRRoPhFYIIdBiGEM8ZLKHAivonjlW0OXIu8CMoNNoBIkWNMOYz25s8c9+/31+9tE1Nm7dHnxP5wZxn4QnTdkSK+gegUMKOh5D1D2uoMvILKl5K6nWGqVjakVJcWqGX/tWwt//3tscnSozVxC4eC/CUbZYLC8bGhDGHpaVWooR9JXL9XqbP/r4a/79R19y+doa9X6PXk8TBIXB1xtuAMCCqzk7VWJlvsLZ1eO8eeYI3zm6yJGpEhXPxUm9IAqNkDGJkIN5Wfs36nHKvze9qeXZ4Pze7/3e743P/KaS9cPZ5ajThO5morhwd48f/8UnfP7Lz7h6Yw1Sq5yUAkeAGtMDnhzOcwQkwkd4BaTjgRAjQuDpISAvHIVEOi6O6yIdM3TV/XnQ8meBBq0RUuK5Dn7g4fseziBGMXfgs7ZD8HBPhYdtc7RAaUUYKfq9iCQxT62kYk5qCHyXJEndEdmzkvQJE4eo26QXVSh7bRZrVSrFIlII5CFXb7FYLAMEufZPIZEkWrLdDfnw5l3+9JOrfHzhGvV+D60D5mdnKAQBXVxwPUKtEYmiF/a50+py5c4m1++t02w2uNFo4+KQCEkSg++5SKFREhytcLRMs/yF8UIJkfac4y3ZYRtXy5PACroxxp8tWgo6G/f48198zR/+yc/49Oq94WdTy1w+i1WT4EuZul0liU5whLSC7pE5QNANrKKTLWvPWtBpYX4iE3MKx4xUkcbYAfTDHt1OD5l4xMpncdqj6nq4zkNur8VisaRJCSJ1uQoExIo7jT4//fIKv/jiCpc39pguz3NursTZYwucXZrl6EyRxXKNouyj44RuFONGIbHnoxLB9b0GF2/s8dVlRa/XQQbgBR6O6yAdF4FAIJEibTgHTVdWKD03PbCPsTxJrKDLMbz0jBFbIWm0I35yucnXf/q/8Mdf76Fy4k1KQRxrPEcMrHECI+KyhAjtVlFJD2SA8ArgOyau4Jlc6K+woHME6KzZyDcqhocSSFn78yAOIehU+irQI2IOQDo+/bBH2KqzWGjjV4vMVUuU3Gd1PVgsllcD00dlD7Qmm9ShH2su32vw02s3+fDyDRKRcHauxj/4wW/wt35wnu+eP857J1c5e3SecwvzlAMP3wcZBOgkAt2nqRyII9pJi629e9xudIiThNlqhZLnUnBdI+aEBCHRIh17QqdhJ5mOs03aM8cKuhEya495FSSstUK++OxL/uTTdTbrbSPiUHiOEUpSDuvMZda5RGtipwqqh1B9tFuj5Gpip4AjTezas+nAX3FBlwqn9M0Iz0vQZS7XrNCw0PHIOZCOT0951GpVTs5Pc2SmRCVwzO8cZhssFosl10uZwCABWtJKNFc3d/n85hrX1jYJhcPvnP0+v/Ury/zw9AonZyocm61ybnGGE0tzHJmf5tzyPFNln9lSiViDjqERSlpRwp1WxPZum43uHigHHXgEnouWEi0gxkx9bUquK5EWb+cQ3YvliWMF3T6GTz0xLnvdiJ99dp3bt+6yWTdZrYnWOMK4VVU2eDyMWOdU0sOXDrFTRcQNIgrWQvdIHE7QjVvpnpegy1yuppE1VjqhY7QO0wgTRRB4rEx7nF2Z4uRylYrvppkUh9kIi8ViyaxyZHIOrQV9pbm90+TjG+tc2+jiS5/VZY/vnj/OsekKvhS4QuBJQdl3ODZb5eTiDCfm55gqFygWPaSjKOkIt16k5UT0Onts7u2x3moTJ4puDK0o5na9ze16m71On+1en043Yq8TEgltRp9wBFqYFnrYxJqtztrnfE6mELYNfFysoNvHUNCBZrcbs7G2wYUrt9ist00RYSFRGqQajRHwpBF7idZot4ZKjIUOGLhcrYXuYTmcoDPvh6LuWQu6gWUupyu1TsdKFAKkWSCROI4cCLojMyXKhWeV9WyxWF4dBCodEUJq0y+hJFvNHlc3Gmzs3qMXCUqFIq+dmGVlqkrJHVY9cIXAE4Ki6zBbKXJ0bopTi/O8Nn2UcrlAHGganQZtpfGl4lonprFbZ2O3wZfX1/nq5l0+v36HL26v89mtNb64s8H6Tovbew16CBphRKQEkVYgJY4YyLh064eNrsC0nUbu7a9tZzkcVtBNxFxwES5RT3Hx+h2+unaPrb0GMQqphBlEAkZEkdJgchb1QMgJjEVOS5MUYS10h0dqI6J0Koo8z72voDN/m38PxRMQdEPLXP7jrokxQaKkQAsJKKYLmrlaMLTQee7h1m+xWCwwaLSy1k8OkiMEm2HI+lqbW5sb3OrFOKLLbLXEqZVFSp6Leb6McXAGRYR9Iaj4LvPVIsvTRZZmpvA9QTnwqId9+lFCGCvCfsgn9+qsb+1xY2uLj243uXT7HlfX63y1tsn1zU2u3m3xyS2XaxuXWd9qca/dpxHGqavWQYvUEKLTTlODEjGJSKWcTvvQB/ZPlnGsoJuIMf0mJHR6movX73Dx8nU2620SrUfrnU246Ewyt5kyMkFnLXSHJ1v7wwi6R+IJCLqJaJUGDiemEdMaoRWO1CxNF4cWuqJpZC0Wi+UwZH6kvKDTSLQQREKiIsmVxg5r23vsdTqUPJ+S77E0M0XJd3GFGc1VIhHajHIpNbgIyo5DpexzfGGGoFSk6MBuq0PYD+m2erhRRL/fpxEF6G6dfr9Pu9Nhr+dwt5lwtV7nztZtbq7v8oubt7l5a53tesR6s869bpcYSa0Q4EoFGhwdoqVxzyptTCDA/dtWy0SsoJtIZhKWtFILXeZyPYygG0e5ZQBroXtIJgm6QhDg+S6OFMgnIeZ4OoIuiw2RQqNxBoWLBZrAZSDoTi5XKXkiPRWTf8tisVgmkTVdQpi2RSFxBIRasVXvcHdvh3qjz06nSa1UYK5WZbZSoOQKFBqppQkABrQ2ZVCUUJSEpua71GoVvILLbLVEohMC32OuFCCdMhXPpVQoDSad9AiICbUkDrs0e30aHWj2e1y+s8NXd++yttVAxyaJwvMDylIgPQbFioXKyqFYQfcoWEE3kdTlqgVJt8VX14cxdDoRZmQIMRo/d1/UsGyJtdAdnkmCLgj8gaB7Ylv3UILOIYyiBwo6kZ5jhTO00E0QdEdmSlQKjo2hs1gsh2Yg5NI2JUNrjYODU5C0labd7rOxs0Wj22WvE1Iu+SxNTTFVKhFIF5kZJ4QehgshkFKDo6gWHBZrU6zMzfDuiWP8tTfO8ptvnOZvvv023zvzGu8eX+EHZ07y7uoSR5ZKrNYCpFD0o5Aw0UBCRyW0Q+gkgu3tDhfu3WVzt40WGlks4Lg+Jdc8oAuRjZpuBd2jYAXdRFJrihDUe86IhU4pDiGERsnH0NnCwofnxRR0EEcJvV54X0E3yN4S0oy3eICgOzpXTgXd5N+xWCyWB6I1Spt+xZESHEnF82j1Iq7X6+y2Q0QY0gt9CgEsVKvUSj4uAiHSPNlU1BkLmQNaIqWg4MJyxef0XJnjCzOcWp7lxGKZ8ytl3j46w9ljU6zMV3l7dZmzKwu8eXSZs4uLLBZBqoRer02oNX0taCaCzbbi+ladne1tdnt9IqEpuyUcx8N1HOMGPlDQmXCo0XeWDCvoJnKwhe5RBB0MY+isoDs8L5qgEzgopelH4QMtdKQNksYKOovF8rRQaTtvGjFj5RJIR1Ip+iSuQ5woNvYadPseW/UWkYooFnzmyhXKnoc7aHvSV5FVbJegJYKYnvZwhSLSkkDG+K5HyXOoBi5zBZ/VaokTMxXOLtQ4f3SJU8tznFpaZH66jB8UmRagYknVlbTDiChW7HQaXN2qs73TpK9ilOtRKQYUnawup97XLJssWNM/a9K45MF2j372m4gVdBMZWujWunDt+poVdM+BbO0vgqATuKBBKT1ioSO9Tg5CCo0WWEFnsVieIml7KIzgMVFBCQuVCq7n02h1uL7dYK3Zx4k7aGCqEDBXLlMKRBpLZ9razIOrhTDDF2qJLyMkmoJqkUjfDG4oTNsndJqxCkjhUJCSWsFnZaHG68eW+NbRo9RmSswlCb24B6qLShKaWrMXx7SbDa5v7REnivmgjFd0cVwzdKIQGqFTEScUmoQYjUIBjqlpMPQ4P7Adf9Wxgm4iuSeAbvuhLXSaZCTDFSvoHokXStClBaSV0kRRPBB0Wrho5IHZtqZ0ibXQWSyWp0Gu8RLD2G4zV+BIB8/zcfyAvVaTrUaDnWYPGUbU/Fnm5ypUywEuCUorHOEiiFMRJSDVaiLRICF2AhxtxBxpy4eWoCOUCo0FTRoLoeuYUii1os+x2Rnm5qd5c75K5BfpJn3CfkgQ99jpwlqzw+17DbZaLXphhOv7+L6H67hIIqSGJO0HVLq/GseUtlIDA+UD2/FXHSvoJjIUdI8WQ2eeKCaVLbGC7vBka3/egk5gxmTVWqE0A0EXK4nQ8bB48CRsDJ3FYnlm5NsR07AFnkPJ9UhQ7O01uddusdXtEQuHmYrLbLXCUqmEFA6xipDCA1T6kCqR2rRvWmq8JAFHmhi7tM6AIjLDfQlTvUE6AiXSODggcCRTBZ+Ts1NMzc1QnS5SDgJmXNhNHHQS4auQeqPN1Xu77DVb7IUhBeESFAtUAw+Ji0SbzFxMeyq1KXAitBV0GVbQTcQIukePocusNUNhZwXdw5Ot/fkLOgkCM0oIQ0GXxPGgePBBFjor6CwWy7NFoBEkCNJhxikXfIqFAl0SWttNNpt1tto9PMfh2OwUyyUzgo3WGkc6qWDLRB0obUqcRPhEkWY7VrRjTa+nSRxTF1RJgZAuKt/naEAlCClBKqY9h2Oz05xZnKc2M0MlkLixphXHNCLQYZ/NVp3N7QaNMCTWmlJQAgS+SMv0C4HQjtlLJYZd3APa8W8CVtBNxFzE4pGzXEc790mCjmdSCdsKukMhQAg3Vww6awazxSa+xJFixOWat9Bp4Y6IusG5tYLOYrE8YzSQAHGabe9IQcF38dyARhRSr3fYafboJn3mq0Wqs7MsFDwCN8j9imO6Dz1MRYjjhKuNHl/f2uTG+g6b/QipBcVCgCcxmbEMG2+tzRizCIEZF1Hie1ApFVieKrMwM81yrYIULqrfoYumFUl6/bYZQqzVoqYVsQxYqRZwHT8t0k5qEcxt7miU0zcSK+gmkj2VJLR7PBVBl6VmPzlVMgkr6A6FcEZ2VWSZU5kmS1uKKDZCbyDokkywSSSJGYswnQY/ZwWdxWJ5hmhtEggUCWY8CHBFTMkVlAsFZOByd7fFXn2Pbt/D0T1Ozs8xV61R9hVCpHXgpOnrzAgOgJT0e13uXPySf/H1bf7yy0t8dWcHrRVe4FMLAgKpcTBCS2CGsJbpONZCZjVcE0BS82F1qsri7AyzBR9dcOmGEe1ul14nptMJ2e1ILq9v4FLGK/o4JRfHc3GENKEuqNTnmve7fnOxgm4iqSATzr6RIp6UoHs2qdZW0B2KrPUZkJ1/TAZXegzzFrq9hhmrF0DozPWas9AN3lhBZ7FYnjEijTcTCinMg6jEo+xrXAISFNd2Gqxt7xEnMUG1xOriDEdKLsg0e1Rq43QVIhVmkq5wudTSfH5zjc+ur3Hpzhr3uh184bM0U6NcLuDnTXQpWcuY2guRIo1MFglTgWRuZooTfkJSMCNShN0eiUjYCWP2On3u7N6jqSJk4DJVLBP4DlImxg4pMm9X5iPJ2tpvHlbQTcRcFo8aQ5e57oxl54AYOivoHsjzFnTDc7TfQhdHkbHQpcslSTaCjpmFcbvaOnQWi+VZYtodI+gGaIlOBI4w9d6k57OxXWdtc4t7zYhZH07Oz1GdmaLkS6QjSYQwbZoApQWJUGjpsOIpWsJlr17n660G7XqLSMDiQo2j5SpFb//Y1CJtVbNXmbaFEoXQmpqnqMwssTAzxXylQitM2G530JGm3+/RiXvU6x20EHgFF88PKHkBrmM8KqaplukvDpvzb1pJEyvoJpJ26I8cQzckc9cdJOjS+2UwPdmLzgq6QzFB0AmdnqO0oWDMQjdwuQ6+YYRbxnDbJWrgDjCNmBV0FovlaZL1MJmoc0hwkGgtqXiKDg7tXp9rOw2SfhehJDPTZU4tzDNVLiARJoQk6w0FxAh8GUNQplYo0kskWxs73G7U8QKfY7UZXqtK3GoVf0J7ZkTc8DXbQiEEEQ6e1CxXfGanZpidKRM4LvVGg07co5V49Ppt9joh/W5IrVokCAKqQYGeksQ4eOmGZmXxZDruus6XNXnFyfX2lnHiseB4yzcPkTO7ZRa64bI490dO3eURySGEs8VisTxJBEJLPO3iaReJj5BmWDAhBPNFn5WFaVanpwDo3m1xdWOX9U6XMNEoElPjLYcZUcLDEbA6W+G980d5/cwqU0EBrxfTj7o0/SrBhG4zawFlbhIIs124uEhc5SATyUo14LfOHufvfu8d/vb33uPYzAwVJwLg9sYmf/DZBf7gF1/x5Z11rtfbACRKEyuBsbgYBsMvfoOwgu4+uPbwWHJ47uj1oIWpT2exWCwvDz5F12W+UmVltgrAV3GL6G6Pxk6DZj8kRqLu8xzqSMHiVJm3T65wZmWJlfkKi7PTHCuY5IdJTJ4LAjkYqUIKh4IWzDge3z2ywN969zx/41e/xXdOnkC4AU18mq02f3zhJv/uJ1/y8bV1bjU7OFLgSuN6VTpBAUqk++BkLtlXH6tY7kOMgxc3x2c/Nmlit+WFxQQFjzNuobNYLJYXlYPCOGIiSm5CxXNZnaqwOjVFEBS40t3m6laDu3ttkkMYt+aLPq+trvC7757lR8eP8/bKCqpUMXlgA7fq4bRU5tZVAoTQBEKwUPB558Q8/8WvvcsP3z3Dd84eYS4IaCUeN3d6vH/1Fv/5gy/58s46G60+bYSx0qWo9PcSYdzH3wSssjgQE/0WueYJ5kmiVM5VZ3kxyIJF0kkNolCGjFvoLBaL5UVGpEXs85OPB1oyVyywODvNynwFIfrcqde5cuE6/XZEog5WdK4QOAIqvsf55Tl+8NY53v3BW6wulKmmrlHGBN0D9ZQQKJkqwVyYS0Vozk5X+bvvvcmvvnaKd07Ns1yqAS63N3v82dcX+YNffMUHN29zvd6mgynZAtE+cXPwHr06jO+zZYBG5vzxTxIpravu5SKZ2BoIHSM5IHbOYrFYXlSEYq4c8M60w9TUFFNBgb2e5mKzycXtLbrxZKNDJhgyUbdYCfjOyhzn56c4UhJoETy2qMhVisKVHmVfcHyuyu+8dZ6/8tppzq9UOBI4JF5CqxePxNQ1+yF95QIeUjOYHigoXxEe99i/0ij5dA6PsskWh2KSmXxw7CYse6qIBK33nzeFKcJ5IPoByy0Wi+UZogEPj3KgkbPLnF6cYXVqCiH6bNYb1Jt92p1oMMrEQbgiJpAxM16fcjD8bL5syGHIHCMDRIKSCdpN0G6IKxLmCoLvrMzxu2+9wQ/fPcPxKZdVr0Qj1jRbbX7x9TX+7NPL/OTabVphBETEaWKHzOoO59fxivJ0FMtLTXZpiadmoTuIfB0zi0GnRTEnZYqqCfOeBXlBLkkebKV7QMNosVgsz4rMBSrxWPWLQ7erG9DodLm6tcmNRosw0YOMVLLMVA0uSTpJHK1Q0sPRCiGGaYQP0+IdxiXra8m073B6vsqPzp3jN999k+NTLjVX0MTn1u4uf/7lVd7/8ipfru/S7pvxXpVWKK2+MU2wFXQTMZfY07LQ5cmGirJi7tHQQg+mp40ZtaY7PvtAsrT5p38VWSwWy+HRqTgrllzOz80zG5ymUnDp4nFxfYO7O026cYxKY9EyMWesXaZF09pB4iO1jyMCZOqteJT2TgAOeuTh2JQ18ZD4IByENokSrx+Z5W+9e55vv/4ab8xOD0Td7Y1N/uTTy/zJFxe5uFWnFcXEWpCko/V8E3iUY/+NQT5lA50VcY/BhGP3LETdON/EWkcWi+XlJrOKFaXDkfkqZ4/WWJ6dJkpCrmw0+ezGbba6IbF29wUICW1q3Ek92ok9fktoZJ2pMpCNtDTa0AsJ80XXiLr3TvP6mVWOVkso6dDE585Og59+coW/+OI6d+sd2kmSFhWe0GG8glhBdx/UUzw6Vsw9HZ6UtU6izb+x39KOSWjxRB+VLyxssVgsLxECjecKar7H2dVgUGS43miyttng9maden+YtQppgBwHd2CZUJy89HCY7+//BS1MMJyUmtmyzzunlvjtd9/gW2dOsuqVAFARXNlu8/7Fq1y4Vme73SdEPygo5pXhKUqWl5+8hU5JP7/I8rxJI2nN0+L+m/+hybdEAvQBz5siMSIu0gHSFha2WCwvI2nbKdH4BZcjS7O8trTE0WoJHfdZ29rhwp012p2IUGuUHkqiyS3j44s5kbl2xxdkzb0QA1HnipjlYoH3Ti3z2++c5nuvLVFzBW2luLPX48qtNf7oyhdc2tqjH5pCwwdt96uEFXT3IW+hkyrML7K8YDwRUTfANF7j1jmlhxY687e10FkslpeM9GE4oywl89UyZ47OUqiWEG7Apa0tPr++NkiOcIUZD/b5KQazwQJTYw4iHJlwrFriB6+f5Icn3uDskXnKUgJ9bu50+ODqbX5y6SqX95p0YsW+0noak7A2Pv8l5rmdnpcBmYxHD1heVMbF19Mis9AB1kJnsVheagSgJcyVfFbnZnhndYlKwaXZanN9bZtLN9bYanSJdWoh2xdR9yzQCDSSOBVzgFJoHVOWkpNTZX7rOyv87mvnOT5rXK9t5XHjXoOff3mPT67eYbsTmgdynfe96NSH/OqIOivoJmIeYZRjD8/LwuNZ6A4XYSGFsdDlh24T9xlW5qChdywWi+W5MfCNGkHjofAdwdGFKd4+ucLy7DRaB2zWG3xw9Rbb927SDjU6AaEkqOehf7I1eumrCYHyREJFCl5bmuG33j3Dt86cZGXKRzshm1HMpe17fHJlk4vr27SimEQptDKFpx6ry3hBsYplH9lZ1tZC95zJp8gfppBQFk93GHH3oHInB80fNiiGg8TcAGHiNywWi+VFQGftmzDVdgUKX4jB2KzvrC4xXRDc3OlwfW2bjzb6bLf79BNBlIT0lAatRuPljA3kKZJF2EkgAOngCA+EKZVSEZpz89P89junOX90kZorcKKYG802X928wecXdrlb79CMNbEwdkaNeOWyX62guw/WQmeZRFZY+NAWuMN+zmKxWJ4ime7SCFROhTkopgKPc/PTvH1yhTMrSwBcXGvx/oWbfHpph62oTyI8hMg9aD8zMvmYibpsGorKuXLAO8dX+Pap46zO1tCOwOnFfL62w09vfMWFa3WiSCHGR+95hZrnZ31WXiKe/UgRlhcZU/YSGHG5WiwWy8uCkW9Dr4Gxs4FAUxCCuXLAd1aP8sbxExyfLdHstfjk5m1+fOkyn9/ZphlGJo8gG8HnmZCJuYOVlyMlM54Z8/W7547y7vGjHKl4aEew0zFZr7+4eY2rW02SRONojcybFA/+6ZcK2zMdiH4mI0VYHo6BmNKM3pDPAa21Ka5psVgsLxGKiDgfDKKNGKj6LqdWp3n3zAJnjq1QLVT4ciPiT7/+ij/75Apf392hGUapde8FQRtviRaSOdfju0dW+O65I5w/uojyjDXu1u4uv7h0lY9v3OJOt2+E7Au0C08Kq1jugyTBi5vjsy2WAQoHtGOFncVieeERqYpxkWQjrw5GbNUm8WspCPjhmeP81luneOP4MvNBws29mD++cJFfXL/D1a0mUfwCSbrUuiaEwHUF87Uir62ucGJmhqOBRDuCVuLx+doOH1y9xZ31PRphbLY/LVuitR5MLzNW0D2AyK2Oz7J8wzAJEvszYRMpRsYetFgslhcZ47g0/yTajMiQSyKTKFxXsDpb4YfnT/Hbby5zYqmGozqs7+zx/sWrrO3sEPW7L9T4qFk0oARKjubowhTfO32M80cXKftlEs9lM4q5vrbNh3dus9OPUYSgQSn9yqS8WkF3H0ZM0pZvNCYrzIi3LClC6sRkuYr0NTcyzgDtHCpD12KxWJ4FRtSliV1pegSIQRkTCJl2+xyfq/KDt87xvdNHmapVkVHCxvo295ptWomPIhu54YEhbk8VM0gjaBIUCS4OR0sFzp0wCRLHp12qbgGENyiYvLnTJgwlSZIgdPJCidPHwQq6+5CZpC2vHllpkweVONlfvmRsbMMxJl0xk+ZZLBbL8yPf7knyIWWZ12EucKgVfWanygDU+z0KpQIAiQ9ChGhh5GA2jbeWT5/MNpcMDDCShLLjcHJ2ivPL8yzNVgAQieROy+P62jafr61xt58QpWWoXnZXa4bta+5DrCHQnfHZlleE+4m5+y0DkIPM9302uQGvSiNhsVheRbLgs+EcE0/nkWhJX0tUrNipt4nbmqmgwEzJZalqBJ5Ki/vmyeRVNj1rpDZeEekK5ko+p1YWeOPoMifKIJOYqu5ytdHmo2u3ub5Tpyc0OO7hS1C94FhBdx9cAX1hhhKxvMqM1SU6gP3WOoPKPaVaLBbLi0/mI5UDRZfF1mV/x1HC9d1dNja2aPZaAExNTVGolHAdiXtAUNKzF3Vme13koLSUC/iOYHGqzOmFWRamaiyXAtrKo9Puc3F9g7s7TZr9EC2UKTL8CmAF3X2wFrpvKk7asB2MyuVCSGuJs1gsLw2ZaJvUxmUiD7qdmN3tFrudGCH61EpFTi/OMOMXKLouMc9/LGszyqtISyM76egPZllBRMwXfVYWpjm5MofjC8oyYqfT495Oi4trazTaIW316sigV2dPngLWQvfikSUkTGyLHoexx0pTcNM50PXqiT4AMq2YLu3NZLFYXnjyYu5gUad0wK1Om51Wi816g6mgwMJUjWOBx3ytQCX1VrxIbZ6xNQ4friU+cwXByZkZTi/OsFp0CArGTbxR73H9zi6fb2yQKE0sTGz0pKPxMvEinY8XDq3j8VmWF4isyvnzINLBcxj+xmKxWJ4uGoiEhsYGVzd2aXS6KM/htZPLnDh+gprvoYXzwoiHgTTVaRmWFEWCT8yR6TJvrCyxMm+SIxLPZVPFXNzY4MqNdbYaXRhpy40ofBn9Li/KOXkhEeL5m5QtLyae6D/j4W8sFovl6TCewNUPE64nHjd2d6n3eyzPTrM6VWFuukTV914AZ6thKOYYijlh1JhEAD5LZYcjS7MsLs5TKgfggIwSLt/d4urGLjcaLbb7iSnfIkaj/142UWcF3X2wMXTPFyVyYwZOykKaMOuJcp+7OdLB+Kx9ZJlTVvZZLJaXhUgntGITP9fd6eAHVWoln8XZaQoFHyFM25xnIKzGpmfG+Mpyf7to5qtlvn3qKGcWhwMF7AnJjd1dLt1Yo92J6CDNkGZag34+RVgeFyvo7oONoXvx0UIPpieNRCO0mBhHl8XQqVRw5msxjZAWI7ZYLJYXHa01Kpast7rcaTVpoFgquZyYmWF1boaSL4mcUamTtY7jYu65iLqRFZoZAo/FSsCplQXOLy9yNEjjnqOEKxtNvry3wY1GizDRxDigFUq9nGO9WkF3HyYnZVteRCaJrqdJIocWOjXJepjnQcstFovlBUCg6AlNt95nbWMPEcVoz+VEZZn5qRIV3yOQw0zS4fdeVIyoC2TM+YUpzq3Mszw7DYDyHG4023x1e51ra5tsd0JirVHaQYrkpSxlYgXdfbAjRVgOwlF9lDhc/TqLxWJ5GdDCQSeK7VaTer3OXhQCUJqSFHwP56XSOJmFDjztUnFdXltd4Z3VJY5UPGRkvCf3dlpcXN/i+k6dfpgYt+tLilUsByKIX97zannKRDpA6v3uVHtDWSyWlxGtNYKEKFJs9/vcbPVo9WKKBR/H0xS1wE29DU6uVNNLofESQUE4nJuf5nunj3Fufh7lOWZ82nqPy3c2ubvTJIpUmkwhR0qgvCzY/udANNJaYF4annQMnRwM+WwQWiAnFqCUSG3qk09aarFYLC86mSjT6ag59WafXrODiqAqXQrSRbhOOpZ1NCla+IVGOFCQgtVKiTdXllmZn+VoIKkSsqliLq9vcmttnc1Oj34iUFogUCbz9SUSdrYPug9SvVwX7TeHCDQI/QTPj7HOD6ZMzOWF4rholIccMsxisVheZLQwcXGaodehETtID0RB4vouxZxDQqMfKHXGl43//azQgBaQOOB5giPzVf766SWOlSpoHVALFXt1xVd3drixsUszNEWG0cpkvD63LX94rKC7D0raw/PCMFYnKYoVSoMez59/JMZdp+bvcQE3nnihtTaDQd8P7ezbdovFYnlRyCSLqcTm0BeKftQlCU27VfWLACRmkIURhnJHg07Sabg8BhJtXqP0b/WMm0Ozb8OH9SMzJU4cP8G3lhaoFiq0lUc7abG2tcNXd7fY7PRQaFO5JAlfqvbbKpZ96MGZtxa654xO0EqRJDFaKeJ+FwCRmOYhTswURWZEj4cpYfKgz06abxoib2TeYUSdvcksFsuLSCbIsp5OAf1+QnfMKjUXDLP69ycLDj+rlCCKY7r9iF6oCbVGaQi1Jtbp32m7+TyQJJRQzE2XOHp6iZWlAsqBRqy5tLXFV3fucnOvyWaUoJ7TNj4O42fGMkBYC91zZnxorcCTqHZjZF7Gk7HUHQ55yNvmeTVaFovF8jAIPRR1wnXohwkO7cHyFgLHJLzmSIAEjUJpQYJDPVZ8uFHnx5fu8sndHer9CK00bt5dmzaLz7p9zFptJWChVOC9E8c4v7jIkVSs3u4rPrtzjwt31rhdb6OSmMQ5XFv/ovBybe0zRloD3QtDksT0I4Us1wbzjKXOEOjm4P0jMXAXjLtfh9Y6ISQiMVZCi8VieRXRccK075JQHpmfd7mK3D+AmIRGGHNhrc4fffwV//IXn3Lp8mV2Gj0SBR4CN5WMIm1j8+OuPk2EzlI9hlTKHicWZzi5OsP0lEQkmqmoy/rOHn/2xTU2Nxu0hI/QHoiXRya9PFv6HJiY1Gh5rqh2g2ZPj4i5suzRVoWJbtJDI5zhdABaK7Rj4knCcLh+4IFuV4vFYnlR0WIoBoTrsBfGOP5QcPX7PQAcrRBapiPoaERqZeskgrv1Dn957Rp//Mllvr5yh1/s1Gl2IkhCYmmSyFwUMi19kq8i8DQRiHSs1+H6fASztQLnV1Y4u7xANR09YnOrxZ29Ohc3N7lb76BFlIZgvRxYyXIfrIXu+ZPkhFuonRELHamVrq0K5v1TGi3C/O6o0PP94fDUat/zn8Visbw8SEDlPBTTafvmOT7trmlXnRASXOMq1SIdHkuhdcx2J+Ti7Xu8/8nXXFm7x516nbW7G1za2aWZCGRWQYDhGNfPDJ39ZwRdrCFEU/E9zi/NcHZ1gaPV4RCfG/e2+fz6Gjf3mjRC56Uq0GIF3X2wFroXC18kB8bQVZ56rMN+V6zFYrG8KkgcYiQ6Tl2iufyvOIzpOuAQD3IghJZoBWEo2dxp89Mbd7iw1aDe71Hv97jZ6nFxbY1r9SbNRKEAKZwXYkgtF0UgFEemy7xz4ihnjq2g/Bliz6fe7w1i6bbb/UO0/ZlYHIrG58XT7gVfavIWOiUn5Gxbnimh3m8J045LWfZoJYrgKWclP2wM3TN/ErVYLJbHwBUxwnUIvCIVVxAlIUnUgjS2TquhZwJAaU2n3eTztTWu3bjN7Y1Nej0jatZ39ljb2GN7t0Wzn46TOvLtZ4TQaf6uKcsilenbPSGZLgYcma3y2tISJ3Ihg5mV7u5Wk0ZsyguPbrv5TW0KnKTJIc9f1FlBtw8xOFl5C51U+1J8LM8Axxk2IL7Y/6SUuVxdx6P/EFnJj+KeFQxj6PLIBzzBPZdGzGKxWA5B5g2VgNQevgPlwKFY8FERNFXMTsuIOiHjoetUgkJyuatRaztcXNuhlXhEhYAmPrf7iutr21zc3GQvjE09Oq2Nm1YZt+2gOvHT1EEi27t0H6WDk/YVRSE4OTvFqbmTLM8foSwlrcTjdl/x9ZU7fHjnNluNLkkUE+uEWIMiMfqAGE2MoA9EaOKnuBOH4/A94DcQmdiu+HmTxdBlwk6Wa1QLAu24gwmgQJIG6prpMNzvswfOT7oY50H6txAoYVLhJzJBhFosFsuLQC60DSHAJaHiupSrFY5XCkwXBL1mh70wZrvbo5l4aCEHCWixdtjebfHnW3vsdiQQoPHR+Mgo4dLWFlfuNNmot2mFkSlfotOSVFkz+jTFXIYwGbkSkMK021mO7hFP8PpRn/Mrc0zXqubjic/NesyffXGNi3e32EoUfS0J0SiGcXX7H+b1c/XAWkF3H9RTj8uyHIQCtFAjFjo3GFrHXMfDdTwqjhxY5x69Avl+V+5BZAKSnJh7INb1arFYXgaEQ1E6nKhUmJqaAr/CXhSys9eExgbdOAb6AGgJPZ1wt9lEbvZZ72TzE7RnhE6jGfPVzRtcW9uk3YlQmZh7QZACvELA2YVp3j2zwNnVKrMlk2R3t59weX2TP7l0jS/Xd9lo9Uly9frGkUhjdSSnlJ9x0//iHNkXDgEavPgx65tZHgnJ/hvfUWmD4RRxUpHUStTAOief2M1jBN5BVjqLxWJ5VVEuzE2XOFFZpuYmyCihXq/z2V5CJ1QkuEQoIqCnFfVmn48ba5RlROIlLHguJ6pljlRMVsXFtRafXNnk7laTrhq3aD1fBBopQqpTAadWFvj2qeMsThUoFT0qvuDLjYj/9Msv+Z9//HN+cvk2X67tcKvRo97X9LSHwgedToOne6MdngdW0B2IBgGRa0ywlmePEAIh5cBKl8hgMEqDSgWd63iE96kdd2jGzOQamdYverCoszXoLBbLy0zemOQLQa3ss7DoUfVMMuBuJ6bV67HT7dJJBA4xnVix1Q3pR10asUNbKWqJYnGqwJnFKuePLjIzZ/rPr27e4OvbId1OTPwCqQ6NUbCBUJxfmOKdE0c5u7zAbMWhGZvaezf3Yv7o85v84//0F/x//vNP+Nd/+QWf3dhirdmn3teEiSTGQeGg84l7z6FfeIEO7YuH0MYiZHl+ZFY6MSHhIbPSPQu0MGMSTuJQbleLxWJ5CXCAiutyfG6GM8U5ADbrDa5u7tDohuhEkaSjJ/TCiPV2B8I0EzYoUSz4fPvUcX71tVO8d3QRgCvbbT5Z/5LLm3u00rG3XxRioUEoXEfy+uoc3zu1wpnFKkdLkoovEP0Od/bq/OTr6/zLn37Iv/qzX/BP/+gq//ovv+Cnl+7wyfYea50ebTSJSMf81uQsBM+O/b2kZYAQoynalhePJ+dmPZiDRqAw2U7j8ywWi+XlpigdKn5A7cQ8tVKRRqfL2t0Nrq1t0oqNIOvGMY1uSKc9NHwURMx0MM355XnePrHCa0tLuGVBEmouXF/ny7V1ttv9gZVu1DEyuZ19ughc4UDsMlcQnJub4kffe4u/+fZbfP/4Mq8tl5iuVSlLSRAU6PU0H95c54Nf/IR/8kfv8//7wz/nf/vgc35y7TZfb+6x2Q/pCVOeZWTftMb8e7oSz/m93/u93xufaTGHPNKCpNviq+sbXLhyi816G6V4pCB3LX2EV0A6nsm4eYTfeHjE6Dh0QiIdF8d1kY5ziP140PKnS7Z2jUIIgee5BIGP57s4jkALk7X02BxwHDRiOFyMMB9TShFGin4vIk6SfeP85aIoANA4aNRgHQJN4MLSdJGzK1McnStTKTjP6HqwWCyWB+NqQVsrtppt7u7Uub69TSRcZmpljs3NUAsKxGi+Wt/kg0u3ubixQx+YKUrePLrIa8dXOLc8R5jErG/1uLrXoBvGFDzB0vwMi9USjjRtuCBtX9N1P8u2cLAmIdBC4UnNguczN1PjyMw0c5UiJd+nGjh4UuE5kIiE9TCkE/fYaXS5fneLe5vbbPdDukrhCw/fc3CQKClQOiFEmFInQg7EnngKPawVdBMxnbgQgnrP4eL1O1bQPQeGomiyoJPpOIL5QaIfiYOOgwCEGljoBAKlHMIoOlDQZYj0qQwhEUKjraCzWCwvASItEScQBI7HxY0dNrb36KmEgutxdHmapakKSmtu7TX44vo6d3fatDXMlEucW5zme2ePM1srgRbsNLrc2tzmVjOmEHaolnxW52aplAMcRfpgbtp40n73WSOEGSnDQeK4MFPyWazVOLY4x/RsifNHFllenObowixFb5r5gqQeSzr9Do1ej2ubu6zttthY36Te6xMngihwKXnuIFxIMSxQnO3j5N7j0bGCbiLWQmd40PKny4ME3RPbuoOOg8BcC+liI+jEPkGnsqfM8a9ijjlW0FkslpcEnXojpCfpOoKdep1Lm3ts7e4Ra3CkYGFmGsdzuXp3iw9v3OKLnQZImA583jqxyFvHj3BipoLre4TtIhvNOlvbGzQSheNIFhdqrExVKUlnIOYk+hn2jaOIdMoKHkstKHiC2YrPiblZjs1PcebIEm8sLnF0ZZql6RILtRJF18cVEqFhs9Hg+m6Hm9t7bDa6yHAKv6KZ8jxcR+IKgRRDUecgEDnL5JPACrqJWAud4UHLny7Z2l8EQSdwAYlSeiDoQpU2AsI4ZjMz+uCrHE7Q1YruwdtgsVgszxRNogWhBlcKhOvTaHW4vddga3ePbqxN+ysFl9Y3+fLWBndbZkjE6cAU6P3+2eMcqZVxpSDxIjZ32+w1d9lp9khIKAcBq7PT1Io+gUx9LMK0xc+mbxwiclMeqRWONvta8RwWggJT1QKnpqocW5zj/OIiK0vTLC9O4+s047fXpdHusNGM2WjWkf0ASoKS7+K5zkDUydQI4Iyv9DGxgm4i1kJneNDyp0u29mci6MbuaolGj7hbJVrEqGRooVNxgky/kH1VpgY9nbqDDyPoSgVv4qmYMMtisVieOomIcYXCkR7KkbR7fXY6Hdb3ulxt9ei2Otxc3+Xj63dY39mjkZj27mg54N3Tq7x7cpW5ok/NdSnh4lFgN+yx0eqx1WwipGKhVmV5dpqa5yFF6noVqXnwOSGEGGm7pdQ4QuAAjtAEwiHwHOZKAUemyhxbmmFpaoqT83PMlqeYLjjsNLrc26lzdbfLbn+LtXsVKgK8QFAp+vhCIHU6YsX4BjwmVtBNxFroDA9a/nTJ1v7MBN2ANHs1U2kYQSeQqGRooYuVRJvBZNIBoCccsUMIulrRQY99M7dqi8VieaaYVs1FiphqUKAQFOjEMbvtLp1mm+3dXT7ZaXG31aURamSSMCVhaabK988c462lBRZK4GhF4AgK1QAcwVp9h7WdJs1Ol8BxWJqdZqpaoCAdI3AmlKd6XkiR+lxyDbEQGiEkSJCOoOo6LFdKLNSqnF2dJygVOR9UaScRe50O4YbPze5NdhrrRFIwX6lSLvrG8kmSDkb25LCCbiKmc1Y6od3DCrrnxPMTdCa/NVNVxt1qAh+U0sRRQq8XksTx8Pg+hqArT7DQWUFnsVieB2aMaxMXJpEIGbPgSNxylThRbOw1uNuI8Ls9E2+mFFUZcWyqxq+/c4a/fWae8wszeE4BrRSOFFSDgEKtjCsEd/cadBpt2kqxWK4yM12hVgpwhRwOwpgaycwG5d4/ZTLrnMgshUIMKx2kCK2RaKQwhUik0ASux5Tvc2xqCjlboVryKTmKu9EO9WaPK42YbidhN2rhBQXKBZ+C65kRkUZ+/fGwgm4imcnVodVTVtA9Jw4j6B6ndpEWWcKDyUbNLRmuXJDmJ6WZSkrTj8KBhS5D7rOxpTxA0J1crlLynX2nYmT1FovF8hwQCIR2wHEpBC4ztSozgYcKI8KoT82T1DzJYq3Kr7x+ir/+5jneOn+KcsFDKonSCUIIHEdSCnxK5RKxVnSSmBv3tomVZmF6ivlqmVLg4JEbNkvkG8D8zKeHSPvmbEKAFjLXZ4uhR0ZoIjQq3TaJwCm6rE5XWF6ao1AogJL0em0arQ5rjR3ubtfp9PrgOcyWS3ieKWslhE6F48hOPzRW0E3EnCAbQ/eg5U+XbO0TBZ18PAvdvmLBueOkRZrtkK4gs9BFkSkbPMlCN/4UN+ABgu7ITIlywU3LBOxHP7OmzGKxWMYamsxQJQVVL2G2VGZ1bpbpqTLngyqzyzP87uox3nnjOH/lzfO8deoIy+UAH2mei4Vjas1JiRAxM6USc9M12mHEvXqbjb0mjtDM1arMVAoUXeN6HWzDSKP37FtCk65hXsHUzTNvs3AbB42DFBIhBFqYLOCpwOfo3BSL1QqBX6TbahKGfTbqfW7ttOl1Q5wgICgGlDw/TY6IkeLxbHZW0E1kaHa1MXTPj2ztT0PQ5b+shR6LZTDCLSNb5kgx0UIndHzw+XyAoDu5XKXoO+ZUjX83h2lOLBaL5RmQNTjpJARI4VJwBDOBy+mqz8zxFb67EHDmjbP8yqljnF+eYb4s8LQRN0KmzV/aVksknoioFEoEhSKOI9jdabG91+KYguLsFEu+BM8dFXX7OHDBMyH/6J7Z1EiHgMwyWF0hKHgOM1MlVuanqE2VmE0cGlGPe3tt4lu7XOzsUHE8vMDH9z3KCLRMTGLII7b4VtBNJLXQoen0tBV0z4ls7U9b0CE4lKCbZKETKLRwH9tCZ7bhYB7t9rZYLJYnhUagEELiFQMWA5+T8wGVyjTzZUnRUTjCNxa9wXfGWy2FIzULlQpz1Sqg2Gs2aLZCnHLA7NRUmvV/8C9MmvO8GBd3eaSIqbkwXamwOj2NP1+m6pfptppsqC47ey2u39nC9SQVt4hbDqg4HlrE6ZCW+T7pcDz8N75BuPbwWDI0eJ65HlQq+LRwjZjTMWoYzvtQuOlvWiwWy4tJFvhhJIskwdcK31eEbpmqE+FohaMlkBz4cGseSl1cJCU34fhclb/63hv86PhxANTaDtv3blLvR2hlHqvzIScvE7HWxNolRhDImPlakV87dZR/8Ctv8V//6Ff5jXfeAODLjXv8h59+zr/4+FMubtbZjNIKC1o80p7b3uRABPHDH0/Lq4oYWuhketsIHSN0jBYuMit18pDE6W9aLBbLi0vaGQpAChJhBJyvwNHSiDmRtYwHkVnWTFs5VxCcn5/i3R+8xQ/fOArAxTsNbqw3aSvz2Bw/kqx5Psh0Q+Osjh3QVyb+uuQmLJUdXj86w69/6yz/8Nfe5b/43R/w5uISd+p1/uTTy/zJFxe5XW8TRr5JxHgES+T9j/83Go0Uj2Z1sbxaaGJgaKED6IV6YKEDk+6uhImjABN/eRishc5isbz4GPta6nRFCHc0nAeZjpiTb/dG20BT5EMjtYOrHHwlmXIl31mc4offeZuFkysArO3ssNXo0okVbir+8jbCZybwRlaWbf19EEbUyRj6YcJ2p8+9vQ6f3Gvxyb0WH91pcOHeLp1On6BS4PzyPEtHv4/yHO7sNPjLC9d4/8srXN1rEmeWuofExtBNJD1tClr9xMbQPSe0MNnh+Rg6L3Dxfe/x69CNtTv3j6FzjahToDREUUwcRYMYOoQcPp5l2z34so2hs1gsLzNZ65O1QKatM+3zcL4WpKEnWW7oJHRa4EOaVyFIHM1USVIISpRkj0pnl27cZ8ZzEYUSMhWKZhTUoZHloDU8EfLKLa2kolHpOhXKjDw7cAtHWtNNNNu9PuuNLmt3r/OTG9us3bzDR7fW+fD6Gh9dv82nV7b42aUrXLlT58Kde1zbvEyr26Pf69LqRahej6BUZLU2TbnoPvQ+Cj0Y58JiTk12igQxDhu7Pf7dj3/Ov/n99/ny5gZxrNEmYvGhUG4ZWZzC8Ysgpak2/dQRkLcyChfXD/CCAq7nH0LQPYttfAA6QSuFcBxKBZ9KtUSlXMpZy8yTjGlYHg1Tj254nDQxQov9pU0SSZxAq92hsdchDI3lLrPK5cn0ncJBicQca62ROqEawDsnZvgb3znGb7y1xGzZBzF6tCf85MR5FovF8qzIjFYqbeMGNjlhqnWmbye0Vca6ZSx8I8+/xrOhEzqJoNkPubvXhsYGAGeXlpDlGlVXoCS4aTs9eR1PkH2CTqPTB/0sFKuvJa0wYqsbslFvc21tk42dPe7UWzRaIeutPbo7HQCaUUgjNtuehOYHHF9wsxOCjpAqoUrIm4tL/Oa7b/Jf//Z7vL4Q4Igg24pDYQXdCNmlCiBQCtbrIf/uxz/nX/3BL/j6+m0r6J41hxR0PIaoGxd06NTMPy7ogDhMaLUjGnsdemF/9Hu5q0emjZZxw6bbNUHQ/er5BZamC/tOxVNvsCwWi+URGNM6++ZPbrfM0qx87njksCIavL/XTog31tjbqxMWAlaqNeZnZnBLAVI4ZNFlk9fzBMntkCkfrNE6Jgwlu52Er+p1rq1tUm/2+erOXa6vbbNZb3CvE9PTJhSnFUbIpI8bhSM/neHXZpkJHM7MlZkpuSwuzvPO6jK/+cZpzi3W8Me/8ACsoBthVNDFSGuhe94cJOh8U7gyL+jyPIy4M5XA8zMmCzqhBVEU02pHtJodOt0+CIESDozdRpmgiwXD43yAoFuZCfaNM/FMGiyLxWJ5hugxQTgQdhoUxkpXcpOBqNvo9VgsFJibm6NQK+LiwUO0j/cXmYdjuM0JcSzZavb5+M49/tOXF/jq9job9/bYi0JavZh67CHHuiTluBwJHBxfUHPNwqrnU56ap1zUrE7Pc3KxxhtH5llYqLFcKTLvOhQC56HHerWCboT85SZQSrBefzqCTiJNZvJTxQq6w3CQoDPLRm+P/Ra6xxd01kJnsVi+CYwLugwFCN0nSQ0djlY0QgfVbgAgyzXKvjAuV22a1MO0j3mPyaMwvr2xTri52+OnH37OP/75V1xZu0e936MuiwgVUPEFrVBT8QU1IVnwTzC/3OfYfMBr86eo1mLK1QpzvofwXWb8Ak5RMuP5zJUDKp6LR4JOR554WB51P19RRNYVm/cHHB1Nsm96FCZ49CyHJb3TzEDSZnpyOCPBt5PwhBFzAFKbQWAOuFweiCOMfW7s6rNYLJb7M644XnDybVx+cgAhAiQeEo8El3Kgqc5WzeQKJKmYe447LIVDSTi0PRPbVu/3cktjakLyV8+t8n/51Xf4b/7mu/y3f/8Y/9e/9R7/8K98n7/5Gyf5O997nb/3rdP85pvH+eHpFd49Mst7CzOcmC4z5bt4Io0JH8TyPxyP2gd9I0hyjn4lH9abbXmWjFvSngzOgUIxkcE+q9wkpHaQ6RBhB6GUiSyZvCbLfRl0aC9Zz2Z5bmRXyst0tQy3+YDiGRNmvUyMPNBq8LSDqz0zKQcpHZycmHtwWzk8IOIxDo/Qo+tyiSlVfd5cWeZ3Vlc5NjNjPqccwMXxBedX5viN947xf/y1b/MPfvAmv3X2ON89usCxaomlskPNjakSMy0lBSnwAA+QOgKdjiP+iNy/p/kGoxkrswP0ZRkA8QDrjeXVx1F942q9D4cePeIRi0haRsny6A7TXec/8eBPPyvy3fb4Npm/Ju3h+N8DJs78ZrP/WA3/etjoo/Fz8aSnbC2j89UgQH8fk3/gxSa/nVqDGooomaZQCCEG8w5uJcd3OstKzbxoj3BI0i+Y9ZrfUghKjubIfJXl8yucX5llKiggE5BJzG4/Ya/TJAyh5LhUfI+5gk/JTag6ET6xKUIvY6CNkAmIJE3MS+2Vmkf201hBdwACI5bzlFyN64qJLtZJ8w6D0MPJ8ujkXa8HWdWeJJEOkLlYu4zMhZBHSXMhyX25XZbHQqf/icxuoVG5f+jEdNK5jlprbYpAaxN9GQMREOmEUCfESYJS6lDW1yeKzhqcBOihSUhgsE1mWW4/0k/Gejh3YInQuY/np28444fAtNnKTDq1kGvScz96rHX2SW2mJDfF6v5T9rnx791vytajNWhCYqJ0UsSZOy5/4kW6lflNH9/hCWT3QzaNXjD3n/Z912zsYNIKlFJmGiwa+51cU62FQKThJwOEKXQyuLPTdSVG+6VHYnzb0t8jzsVY72+r78vwZ1KGW+WKhNWyz18/NsP3z7zH6tQUZWmydJtJwvtXb/GXX1/mg5u3uV5v04lNu+/oGJQaTlKSiJhQKCIhSHAGpV/25wEfDltY+D5oAe1ezMXrd7h4+TobO3uE6n4XxvCiGs9O2VdYeIL6FoP/nhQvd2FhUqGWLyzsB96gsDDwZOIp7hthO9roqEQTRgrVbxEm6XcnfFlqSOSoK1iQRvMqxZHZEmdXpjg6V6YSPFoArCVDDa7lGIVCIxFoATGaRJiB2cJQs9uL6ESKbpTQUsmgLlaCIEHgOAlSS8TgiflZokGYjkGn9oC+dtBSoEVCgkOoNZ1EsxdGNPoRO72YJFJEWhNLQYLJ6dEqQSKHt/j46zeM0a7eYO7cdO7gPk4PUCaQBu15gkYPrEYIba6R9BjfdwKkSIxYOeQEEocERWSEAGJQnByz1mGlhJFzmt/+3AJBKlRzSl+oCetNJz24kPZP6edGv8vI8UJn9445vtkIr1qItCTvkKyUCYMzYLZbYw6eFiZGWYh0HuAIhRZZ7LECQlBRFo03eMjL1iBxJva5hyI7pOk/iYvjAqUqFCFJJMm2z/WwjhNrdlWfzb0WvVZIL+qTOC4Fz6cYeDipESARLlJos+9CEOtsC9MWSYz13YfEZrneB0XCtUbEH/2hyXL9+Pra+EcOJO+W9aRx145nuU7iyRqXXu4sV6nNE6TSMUJKSsVgtA6dzm7mx2N/lmvuPak5PGVSluvE46SHxz2z0Jn5miWnybnTq4PCwvMlFylN02Q5LOk50Sp1zhiStBMItabeN0U/e2FEoxvSb/XYDo1g6vd7VKsFAOYrVZZLRWZrBSq+RyAUnpCP3gE8MgroD5/etUQrl1BKwkRzq9mh0+mz0+7RCLs0myYgOwgK+L7Zj1rRpyQcamWfeS/A9wQOOt8rfWPJuymNFBg+nJuu2ggZnSiUilFKI+PdwWcehiTu4Lil8dkPjcacYyeooNzpQRaoixwkCUxqu4ycEaDVcJxpFaN1A9U3BdEPgwzch/p8HqdQBumBKKTFgx1Umms4ocUEI0gGHhYNINP6b611yB3XScdX08MtzIEso6WDJkZrjRBGhB281sOTySUhBDGw0wr54Poa//Hjq/zZZ5/x1VYLgKTgcqJaZqES8IPzx/nWsSO8e3qVc3NTVByJq6N0PNyYUBSQOGbYsMxqLMzYuA97w1pBN4n0JlHAVivk/Ys3+OW//Mf8s8803V5z/NMTGY+zG5QtKZg4PCvoHsyLLOi69V2afQ4UdFIfHEO34O7xu29P81s/fIfvrdbwfB/HkUi5/3csB6HNlDVfqYCOBXS1ZqPV5+L6NhfurHF3r8XOXpOddo9m2AVgWkr2lKLqF5ktFzi9OMN7J45xYnGGI1MlyoE76ALyjfhTJbOgaAUyJtGSMPK52+tzZ32PD+/c5urmDrc36oP9yKj6Rcp+QK3ic3p+gTeOzHNsdY5j1RIlV+JqBvFI30zS6yUVbWCsRUbKJWYwJxWhkxZRu0HS3aLfA5lsA5D0+4NfisLhe88PiML+4HXSvMd5BXCCgGD6GLJyDqdgCtaCg8w9NKaN4WAfFSbcwEm6aN1H9WOSuEPS3UJHIf3mVu67D8YJgpFj8CCcIMArzyG9Ek6hghNUEE4FJT1iBO5Im2n2w2x+TtAJY61K2us0N28S7l3LfWc/nh9QWXoHKkfxCr6x1aeCTuDu85o9CkqZ/kam5tdYw41mjws37w1E3c2dDm2l0I5AeQ5HA8n5o4v8lddO8xvnznJqdZqK61KR4KZjgUNmkMsLOnN9Poyos4IuR3YghtZqzV6saayv8Z9+foV/8uGX3PnlhQe4XQ33s9BJOTyJ41hBN2SSoKtVK5TKBTxXItPn0MflUQRd3kInB+6FIQeJOV/2+N7ZuUENupmSg+ea7zvSul4PT9o5Z/eicIm0YCsMuXRzh7+4dJkPrq1xZ6/OZqtPEnZp9YyloeYIGommMugc4VipwreWFjh6eokfvHWO7x5dYMqVMIgtGhV0T+M8aa0hEUCEcCRhIrm00+TPv7rKB1dv8dmde6zv7AEM9kXHfaYCY2lUnrnmjpUqrMxXOLt6nN984wSvHV9iruRTEfobfo2lUVcqFSZKGgtQ0iLpt4iaGzTXr9FvrpO0ujQSY831e+v0ww6B//gWt0fBmTnD/MppqifeQ5SPGouTdkz7POgwkrTvD0EN9yncuU2/uUW/sUYUhSStLv1oBx22x9byZBF+argoL1MtF5GFWSpzqzilafypZYRTASnTdtJMeescIjGBE0mPtc09opv/js7NXx54HvphB1E7zfLR88yd+20oz5MIiZs25k/DQmeEs6CXegO+XN/lJ7+4yZ9e+oIPr9+glXjoNDQoG9br9TOrfO/0Md47cYzT81WqvodLjCtNwWQtMsFoQj6MFEn99ofACrocma0n85BpoYm1oBXFXNyq88nPvji06/VAC51fBDhQ1FlBN+SFE3SJJE6iEUEnDxBuHCDqfu18me++dpS/94bH9NwyhbRItZbKWugeBWU6XSU9GrHi06sb/IuPP+VPPr3MRr3HpoqRUYLGR8sEqRKUHJ4XqRJqrhgIozMrS3znjZP877/9Dm8dn6WMRmkTkydyBcWfiijSGqXMtdZPBFf3mvz0yk1+/2cf8/Ob6zSaMa3cw0WVkGY6OFC2T1NqaLk7NjPDr7x+ir/z7ut86+wxVosBvqO/udeZ1qBjUPGIkAt3btPavkPr3heEzW3ajR101CDst/Acc6yiRA3e55FRgvKcweukeTIaGgDu9/f4e9L1ludPM3P2N1l+7XdwSkdJfBdHK4T2jGFOS/MQIMOBhbG3dYG97TXi3euDfVLddWSU4EQtEq+CE6XuQW+yl8OJJImncCKJctLYzty9M0pt5K9s+0XqFvWqixQqC5RmVqnMnaC0dBanUMGtHDGfxwdt3I7GoqJQWiBVn+7mx9z76I+5e+k/EqT3R7aOkeNeXGbh7R+xcua30dPnwBW4JGlAhmP6wyeI1lkELoRAJxFc2q7zy69v8OmnV/iP19e53TSFkUnv16yN+ZVzp/nNN07w3uoSs5UA3xGkWg4tlImPTO/1h2lrbFJEjuxSydpME1ehCNyYSlDErdaIlCBuNlnfMzfDQYybd0eSIuR94nMOmP1ojAVWvmRJEdna80kRQeDj+S6OPPAIPjzioCegUescUg+SIvq9iCS+vwvLxOQoBAopNN+eb/CD997k19+eplKpMeW55uZ1+OZ2so+LViRC0cfheqPDv/3kC37/l19z616DvUQilJ9VeUJoF/AQ2jXvpUS7mp4QREqikz7rrR6EMaWKz+r0NDXPMS6bdMowbw8+94+EMM9QsdDc6YT8+YVr/IdffsUH1+/QbLVpCQeNP7Bo9PExaRDpQwnQFx5916OgYhq9Hrf3GvhuhdmpEstTJXyZXWvm2T9j0PYN5rwCjO5ibn6CVk3C+jp71z5i5/pfsn3zQ9obl2nt3cbtNYijXYQOIWmgkw5Sd9FJB510cOMuMukgkw5C90ZeJ80TuofQPVA9RNwB3RtM+b/z71XUh7iHcgr4pRmKsycoTy/iFecG+zQwGgiNpEXc3STcu83G1Z+ze+0DWutfDfZJd9cQYQcvtTpKZcYWVU6EE7tIJfZNiYxwEhflROhE4WgfRDzx84g2TpyAaCN0DzeMcKI+cdgg7u4RRj3i5hqdxh5hY42o28ARGscvIKWPloG5RwGESbwQ2iFJYpLuOu31a4Rblwj7u/g6QaoQoVogItx+aO7xoEZ58QzV2ZPI4gxamod+87tPtn0dWOrSNt5B48mEpVKFuakqlVoJzw1Quo9IIpqhIkokDQVbHc1GfYtGt4cKAqZKBfyCh+eooUAX5to1sZ56qBcmXc85rKAbIz2OuZtGAQ6up/ALPtVajdvNDvW2ptWs577n5JpF9l1AI4JO64PHcn3ACXs4rKA7FCKNWRiQAHp/seJEorQaCrpc5WktTPCuUqnrIzW1RnEPpWK+u9Tj7W+9wfdfn+X16YDAD3CFAEekevKJ7c03CNOYKu2wE8ZcXNvhP/3yK/781gaRMvctSLSjjLl3fAITe6cUWkhCXSCKHDZ7MVXPYa5UYGF6iqInkcI84QtUmpNnYmgeFz0yCUDRSgSf3Nrgz768zF9cuk2z3aPu+GhHgnBBCpACoTXgDBMKcz/adz0iJRFK0036LJarHF+YoRb4yMG9M9z+TPs8/h69AIzdttlOaSEQOgHdJazfYffSn7N7/Rfs3folvfYOOtxB6BBFhKdCnCRCjQ3z6MZp3KbWJLgoLQeTUMm+efkpTjSJMgXrHzTpzNXvFZGySHnxDLXZszilKrHw0UhczHUrdZ+4t0HzxsdsXvxT6nc+o3PvS6LGJVTUg35r4CtwMEINqdBSoRO1b9SjwehHWptXYa71zB0YOQmJTJBCoXSMltrcQ+lnHeWRyIg4O/Ceh9AhOukTx326zQ36rTo67iC1QLoOXmnaxMxpx1hUBIBGkhDVb9LeuEl3+xJJ0jNDb3rGJSlUgnIF0McNykzNn6I0dwZRnEVIiU6j1Z9e+2ryUoWKkNrUmin7BZamq8zOVzk+VUMKlyQO6UchXRziuM9Wu892vcdeq4nnu1SqZQqej3YEblq+xRxvI3IHrugHPHlZQTeGGPxHaqoz2UJSS8puwnS1wpliTLl1lU/uKlQYD8SASJ8ExsUcjAm6tL8XaWmFQUt6wEl6dKygOwhTyDF/rofHSYsDqnVrgdIOYRQNBJ3nxMRKETgaR5gG2zSExmyuVMzydJHvvnWEX39rhTePzlIMAqQUJuNraFm/r7XPMgkBGmJHcasZ8otL1/nJpRus77ZQTgGh9SDZWCSSqicJJ0SYCCVSt5WpthCHCtVvsjRX49jiHLVKAS9tGHRaeSbr5B6VbCt0GuqRhkITasH1RodfXLrOf/70Il9tNwhjhVAalGdEXCoyhHYAhdDSbL900xAL86QvY0UPH1cJFms1zi7NMTtdxBP5e2fSu5eYTB1npPd4NlskIf29q9y78nPWv/gxnY1PIGkgdRcwYTCCPg4CtEYqcIREanO/au2RuP7E2BgtHJTjgIzQ0kNLiZYyFd7GMvqwk3IKFGoLzCy/SXHqCE4wjZa+GS5Q9xHExN01OutfsXP9FzTvfEK88zVxEqWFeBJwAgIlzD5hRq/RUhErJ62TJ0i0wBGa2BUm5EimQflaEzsgE/OqBIjEBalM5mrajikp0NobFAiR2kE4MbH0EPQH2yJ1F6m7RHFCf+8WcaLwgzJeqZxmrfqpoEuPr+4Q93Zpr18bCDrPH+3TDDVkUKSycJbS3Bm80jRKOKmY44kLurzF3rxPt0W4SKkpBh7z1RLL0zVWF2cpl3yqQtOJFZ6CbpLQ7PbYanTYbNVxhWBudoqK5+FIZXSE0ObeTrc9qy05aHYm7JIVdDlGjo8ga7lNfR5pRJ2vIyq1KXZLZ+n0Y+5u7JCEYZpIMeEIp4wLOoQwUvE+33l8rKA7kNyXTTZVXoRPjikxgg7iKKHXC0kShdISjcKV0I8hcNOn7CRmKehRqZT5q+ccfvt753j9yCxThfT8p/e/sYyka3/g+bCMoDE+Shy2mz1+ceM2f3n5Lo1uH7Q0Fi0dGZEjNaHWiEQOrHMiUYPOdgQZ0u3GBIHH2dUljkxXCKR50jf3bHquHvN8ZWIuex+nwdXXtxv88ccX+GJth3oYIZROXa0pA0EnUgvkcJ5Z4CCUQKdxulOBy7H5It85dYzVStHcO4OPp781/ParhTDay4Re9VHdO7TvfMne5b+gtX0F+i10ItCJQDhp3BcJMkmvkTRuThXmkcECIqghvQoiqE2cpFdBetPpq5nGP/Mwk1ucpzS9QnHqCIW5VURhAZEGeQsdo5MW/c2r7N76nPr1v0Rv3zJuUBGh0pMqSFB6KOi6KiIOZpFJHzwP7U8ROAVUoYpwymivjHZLZvLKg3nCSSevOHgfU8QrLhIrF7c0D46L8grGBSqKaCaHJgmtjMWu3yWO+hRKFfzaAkIG6b2FEXYqJO5s0dz4gt7WdWOhcxRyn4erjwymB4LOKc0ZC96zusKFKTMihEAK054HjqRacJiqFDkzP09tZob5SoGy71IJHNrdLu1mm829PVpxjCsE5UqJWqEAErx067MtF2L4wCIypTqGTYp4GFSCVg59rdndWucPv7jJhT/5t/zTX7aJY3MY9ZiJPiOfFKEchdTuwW7XJ4ZNijiIvDt1n2v1AIRyiWJFq92hsdeh348GglwJNRgKrICJT6kVPf7qOYfvfPc83zu5wkzJdMpCgCKB9AnS1B/KP3pZDkV62mIBv7yzzb/+yRf8819+xq2dhkmCyASdAygP0mruxwtlbvbag2SJScikz+sr0/w3v/UD/sH3XufEdBkvvVa0SJ+gJ7WohyRtlweCTqWC7spemz/6+Gv+/Udf8suvr9FKPJRjylfk0TKh6prs1mYyIeteRyYBxClwvOTzd7/9Jv/Vb3zLJHpIkRu1ZNjlvfQMbuMkbbuMMNBolA5phA6FnV9w+4u/oH75j4g76+gwxEmFnHIcBMPSHK5wcWsnCGpHAfCrc4Nlz4rEnaZaLlJY/i7VhePIygqmZHSIjDvEvW3ufvHH7F7+c+KNK4NEB+VERLl2TSRG3Mf+FABB5QhuwVw/hcrC4HNPAh22RxJLZNJC0EdjrmOZJMaSCSinQlA5wsLbP2Lh+Nv4c+/heH56SWqIW3Q3v+Lmz/8F29d/hujuIH09Uu7DUMNdPMPS6e8zd+6v482eMjXwSH/nKV3jk+STMO43c+1pTSQEnVjRjWN2Gj0u3r7H51f2+PTOBX65Xke3WyjP4fzRRf7Ot9/k1988w+sL0xSlwM3dpoN8kPRZctIeWUH3MKStsNKKeqy4sFbn0w+/GJQziWONkgqBgychyhl6MkEnisEzEnNYQXcfxgWdSN0tQDpkzCgCFxREsaLT7rG316IXjq57MMSXTpgvSc6cifjbb77HufMzvD5VMaFPiclojYUG4eCSmOwuK+genrSdjjX88u42/9OPP+V/+/CX3G1FI0JNyyQrdTUo9rnZ6nNjr41Uk0WdIGQuCPjRO2f5b3/n+3z/1BK+1MRSg1BIvAk5zIYHn0UTxjEQdNq4svpK8/ObG/zLn3zEf/z0Cns7WzTxEYmPSlcmE9BOSM0VTNWqLFQCNnb73EqLDOssE1NH6YDhcKxa4K++fZx/+Fe+z6+vLuJ6ApfUf3PgXhyO8bvvwfv+tMmkciZUNVqDIoT2Fu31j7j70b9j5+7nyMSIn0KsCYVCOQ46DBG+j+PX8GdOMnvsPYLqMoVqDdevIjwf6ZVQUWd8xU8N6ZVwC/Pgz+J4PrFwcIkhbtG5+wl3Lv58IFALqWEBoO+aB8sMTYByKpTnT1NaeoepuVUKVZOd6pXn0NHo5x+E8Hx0FO577Te3aLZ26K5/Ta+1Sbh7nSQcZntmIjoTdW5pGX/1Vzl2+h2Ck3+LUlGDLKQ3d4Pu5leDLNeDBF2kHYpTR1l682+mgu582n3lVNCzQhurcBZGQfqw5gpBX2n2un3u7rW5e2+Hr9bu8cG1NS6vb1LvdPj+8WX+xg/e46+8dZaVakCAQKZdQ5zWxiVN85q0R9bl+jCkT3sAgRtTq5Y5UtJURcBM8wsu70l0YuSzY+LdB6o6c7k60gipp+tqzbAu1wPJf1nwQJer0BKtzZiEURTT64XEY4YRLTRSxVQDOHakym9+a4X3Ti9xdLpMSYLUaTBPOjSVEnEa8ppldz3WHn0zSQ/Z3WaXT6/f48LaGs1QjQoV6ZrEF+DcXJXV6SmWa2VcFbPV7u8TNcayJ+kmIUkccvboAseWZig52XBiJvP1fo879z+TuU5GZ9bahHo/4ZObm/zx519zfW2bOj5oD6GHIykJ3QcpWJyucWaxysLUu6w3b9NsxeYzAw+Bia0Dl+mK5MhUjV85tsrifIWCEMPEjgds6WF4kUTdcFuG+yaEQooYFe7SXLvK3vpXJM1bCPrIRJCkD3dCa4SnUM40xblTLJ3+PjPH36O0/DrFhdP40yfxSiu4hTm88vJwqi7ilWbxqkfMa3lh/1Q9gldZwiutpJ9fGX63snTf77uFaaRbRTouSppzF6Ghs0e/foPGtZ/R2ruNE3cHbtWEPhI5cLsCKGea2SNvUzv1q6yc+x6lhXMUF05TmDmdbuMy3tQxvEr+/VG86ipedRW3egKvegy/uoKcPoZfnE4/s4RXM/vnlmsU5o5TLE1RrM0ipUcY9tBRF530kUkyyOgXWqPimEQ4VIolgqmjVGeXkF4tbQsFqP7A5dravoGIu8ZG4c8hlHmIAfBjgZg9RWVm1bhci7XUmPEcBF3azCepkMtb4X0pqHiClWqB1blpZmanWF2cohwEhJ2QvXqHej+mUguYr5RxXAehTN+h0xAd7lOE5X5t0jec7ElvOGm0qS4uTexbzY2ZPnKMb33nLRa/+/d4/eRRglIZTUKkRi10GcqZMNPyUpBZVdUEwQcglbEinjxa47feqfLu6VVWZyuUXGnGpE2/JrRE5Qzjw87V8ihMPhs5tHG1Amy2+hxdnOK33jrFuaO/OqhhRSbkcni9Phv1Hh9du82N9SZdIUEoXLHfgvvwmPNvkqIcOrHDze0mn924zca9PXRsXH8yYWCdA1BOQM0VnFms8sbRZVZnt1ioBChnzAUl0uQrR+V3H0cMk3BedB52M00rbWKTzVgJ2d9m/GQVK3phG3o7gHFDKsfBEcMnM02AH1RMzbSFkxRXXscr1xBeDWSAlkU0Y5Mqo0QNpYsgyyDLJE4RZBUlayhRA8pmksXhqyyitJmQZRLhotwSyi2BG6SvFXCq4PioXGmjbKSFve01+uF+a6FDgKM8k5Wb7ld5/jSl499l6cz3KcyfhumTCK82XI9bARmAOwXONIgSOGY7kUWE44Hrod0iQgSE7jSh9HNTmcibRXg1/Kllqid+hakj56nOHRvUo8vw0yeUzN3dbuzQC9uoXhuthnHGefI16GRkhmSLtbkXe64YnFftiucqbQ66bl1hrG2uEgjtUHYczs1N8WunjvJ/+P47/N0fvs3KfIX11h5/9ullfnLtNnvdPkqbRD2plAnRuU9v8fz2+qVgTMyhUt099J1PBYpvLRT50fePcurNk7y2XMGXjslKS/EklFzzt0zsIX8pyd1BBw3bJkmoVSv8zpsn+PbZY5ydruI7AjdRAzFnefI46a2mZB8pTOHuB/Ha6gpnlhocL5QRhAMxlxd1sVdlq6/54OptPl9bY687jK+afAUcAo0pezHSJEcUoj537+2wttngdrNjXK15JZdum5YJnuNzYmaGbx07wlS5SLcXIpMYmbcY62jk78Ck6SLjiQmaaS80bO+GbV76d3qMB0u1TqX0sJ17kkz+5fy2pWN85pYOBjbPobX5NCpCxx38dJQImcYd+jpECHBlguMa96uOO3hBAa9sYuaEVyPEJVIuWitTomhsMh8EhYPCQWgPlZ3jLMtWmFJI+UlIEwyVfSer66ZUADiEWhALMwZqnhgHTQ9f9YmaGwP3cTcttJ2RpMJeOUakTs+t4E8tE3mzqSgsIPFAu7lJmOMsSDNOszIiw7cydfu5eMjBNER4NYQIKE6fpzSVWiVFgqMjHJGYGnc6IkkS3NCU/xJ9M6ymoDvp5NOXAumbBcqbgTTOEcATCRRmARBxdm3mmfCDTxGVHiNXmDIkrjDxcE5iHuhdBUIKKo5ktezx2tIMf/fdN/g//9YPeOPoMhsbWwNR1+in51SDg84FB+3nkdulbwYiN40ihWcG1MXDLXucOnaGH/36tzjx9nkcv4Trmu946RHuxPt/w/L8EFqMTCPLcEdi6jK0NE+DeQudJDHZZqrHbBl+66zDt06XOTVVJfAdfJW5vkaRYjie4YFlUiyHIkmPnVQBSnepTFQso/i+yzsnjnJ2tQqAEypEvq6gI1GOi0xg7Z6x0jXaaYyRPkjSHw6lBEKZp3WpFMQut7uKr9bu8cnN2wPrHAytczpVZ1W3wImlGm+fXOHUyjCYXTkuyjGZuwBCOSOWvX5kOrQom6dNLbWhODM1/RIdkqS12IxoSseWzXWIGkiUItHmM+MMZdfodFhGumOtUYkiThLiRKFjM9KD0hERcVozbfhNk7WcEKe/kJWHyojSODHtpEOnDcvKQSryokTRioZWojDfFghjqd83yWHx6Xw4zeDvzK07IaxCCj2YsmxJmX5eCicdsH0Ub+y4eyLBEQnFQSKAwddykBAhy8sE08cGy0zt1LR/y3d1gtHwjywCP5sG3zeTk5s85Q1ELW6AOzVFUFtJh+uqIRxJktYScgjwpYldzDO8DfdfNSo0GzBuoYu0M7DQDckE/8NegY+Pk4qrbMoeOgdIcGVqMUdSczXHZ31+9c0T/Fe//l3+/tvnTNLdlx9yrd6kn8b3CK3Si3Uyj9MuveKMXsHmXfY+y3CTgMDDY7Hk8+vnT/B/eneBX//+ezh+CaH0RLer5eUgE3YCF01MHJrbJevOJQmJivCcmEW/x/deW+F77x7h9HyV6YJHQIhMC3JmT/HDp/psHMODLX6Ww5EavwcWuvzwWAOSgXEdgFrR5/XVOd44usyRigdZdmOaCZtnvdPnwvV1Lt6+x15L4+rhMD0PjU7jMVONpEVEO0m40Wjx1Z0dmvUmdVkcGZ4MjEADmAkczi8usrIwTa2YZk1HMTJJBcqY21iMeQS8JFUxKZo0Ey9OCBNJH59EBMT49LSkpyUdJKEQhEBXm5ShYejIqNjIus6DpsOgs45Jg9JGVnaFJJSSyJGEEhIh6SuXtpJ0tSYEwlzMWH7w9yT33vNyyTJOTCy1ERhK4aSuPs+RBCq1FokAnxhfebgiLTM1sFrlJjDqMZ1MHbH9As/8ZvqKGUXmIKQGVyeDGtgZJopuONPzXEQ6pnHiVQjTizNJr+UkSQiUpuA7CLeE9ubxtSmKcX/GFNwE8r2kABA6tTQ66NhFiABRSof38pxB5m0m6pASTyS4DN3GE0ZYQ6r947eSWuhiHeMJM3bsABWjBxbbh7n6Hp/88ZDpeZRoU/7M0Qgn1e2QhttoU+BcSxYDzbdXa7z+znl++9gil8tH0Lcu0Wk3UYfYhwmHzrIfc+jNPyPi8he7wAQtTxc8zr7zff7aD45z7sgsQalsRd1LwWjnOY4mRuCOFrTEuEmkcJmSPc6dXuXX3ipxfnmOqu+ZJ3ZtOogkferWksET+BDnELep5X5kxm+pAmpugkhriMHQsjWJo1NlvnXsCMuz01QD487MlzchtXwBbNYb/PzKGpudHkmi0I/qQxcgZDK4BIT22G73+ezaLS5ubNBINDLtnLNt1zJBywQn7FItCt47ucqbq8uDn9ReaoEZ21WTETu6nZFDOiLFECUkLQW3On2u7LW5sNvi0kaDLzb2uLLX5ouNPT65t8sn93a5stfmVqNHJ3aQ+EjcB3T5j4bSkGgIE8FON+HmVpPP7u7w0d09PrnX4qM7Db7e3OPrzT0+u7vDh9e3+ejONuu7EY3YRWln0IebQ21KZkRROHDNAYNSGnmivKVWG6GvVWrVF6ZjNtPQAidIR3zJT7kjMy7shEhTFydY7CaRDW5i1mQEQh6tAcdBqF1caVyaOA7KifCzwckx7shxgfhEEeY4pfY6othHJtvDxWnc4kHEUfrZMauwkp2BW5mcZW5ooWsPlpkYuufPQNDlr5PM2pn7lPmncbWD0AFoybm5KX74nbf5q6eN23+XAGcQhH3w/llBd2iMgMtuqHFEmsGyUi3w1946zv/uR7/Ca8uVYSmLoqn/Y3n5yEqWoKDTHmZWkTbUyyeW+Y0fLPLOySOsFgM8R6FFQizlwDqQGYiyh3hGbr5JV5TlsOQtdI3YQTuTj6dQw85bxYqi63JqZYHvnT5KrVgdCCkRBSOWrcSX3Nrd5fKdm1y8fY/dviIR8n6ej4MRpNbZ1IqSKLYaPT6/vsb6zh57Qo5Y5zJRJ1VC4rmsTC1y9MgU80Wfgu8x7ZUQUWyK5o71k8YFO9rEewmpVSD9DKZkyna7z4+/uMz/+K9/zP/7f/p9/u//y+/zj/7XP+T/8U//I//of/1D/l//5s/5R//rH/I//usf8wcffc2dnRb9OH2SfUpoCY1+xLVbV/iXf3qB/+Ff/TH/w7/6Y/77f/JH/Pf//N/z3/3Tf8t/90//Lf+3f/xv+X/+6//IH/zhh/zs2i3CXjw8N9rsb6bRPM8fcc3l685leI7EC0yNNiECJlQxGvQH+/4cnw7DfTrocYaFsIffiaLYaMP0+s1wIolMPJycaH3aYkeQcy/TBUA5RpREiXGvZvGLk3C9ybX+on4P5VQGf2excyMxdCkmhu5lIndOtEIqKLkJx2d93lhd5cyZMyy6CREuOrNsHsDTuxu/cWjzSOwqpmfn+dG3j/HDX/se751cwZNQiPbMx6REIses9U/3JrM8JjpBoIhiRalcoNE0T4qShFPHp/idN0/ww5MrLE2XKDgKV0+u5zSp5vTDtPuWyYxb6MbdlWBclpm1KonNazeOOTk7xa++fpYzc2VEonFClSYYjPbiTXwubDW4utWgEUYkiXF6TbLTZfNHbQy55UqbcT8FrIcxn6+tcX1tm2arPe7BBMCJYkSiOTFd5jsnFzm9MEfRNR3ZXtRBey7aEWiZmNEvUvVykIVuEKyfEmvNbhRy5fYOv/j6Gv/ss8/5k0+/HJn+/Qcf8Seffskvvr7G1vVNtvc6RjRN2sHHRAz+g8SFu12XT+9c4KMLV/nxJ1f48dcXef/jq/zy62u8//FVfvL1da5+us5/unSF1s4OjTDCQaGzWH495sabYKHLi548WvezEcGeMGOqb5957z7TIVsM5aQu15xoNWJn//3xRMkEqiziueGIhc4TZRyRDLJcx1F0czF0QzKBnbHfQje2Tzmr5IuO1mnhOkwstUTgK4mvoFwNmJ6eoVws4A5c++O/MGTyUbU8Epkrw/ElM8dO8F/+2kl++GvfY3Zldfghtf9CmzT8UD4MaFJIkOXZoYVG50oGlNLkiPfmm/z62Sq//vY0S9MlypihapAKVw8LQnKAmOPQTbNlIunBywccN/OFtB9A0XWZK/mcm51hZX6W5ZIpsrqPtO7HRr3Hx9fvcGlrj57QhGnLuv+OHrLv1lWgVYxSMX00FzfrfHTtNle22zQnFDjO0I7g3NwSb545wmzxcJm8sN9CByAya0bu4iulx60RO/R6ml5P00qGAfbZ+0anyz3HxffT7MmstOJTIM61i4lrBFczzdqMPZ9W4hGkHf01t02hVKDtmc9llnGhAS0migTAjNuas+5kRP0eUTsVIiPa/kncseO/Mf73wxMrZ8RinDf67bfQ7d/fJ0qmO1REFPsDCx2pa3QQP3cAh4mhy1voNMGIhU67AtSEH3kByapl5JOLtIwGrYojFJ6jkbkTqtETR6jACronhzYjAJIgcQVMO5rKsRP86PtH+cG3TzE1Z9KsR76TO0mTYmzH31tyPH4bOJkDjrMmxvPkwOX6Zm2Xt7/1Bv/lt2c4PV2ljDbZaFIBfhpXY8g3rpYnT5blqmSfqjajQtwvdk6mrldHChwpmK8VeO/kKsenhqaYLHYus3BpfLb6mms373JjbZNmPyRMhuU8MkTaqOanSUjpUu9HXFvb5IOrt2l0m4jEN/XjhDeSOph4LkerNV47UeO9U8vMpUPI9cKIac90dEo6A5fxKPv9hQoHJZKRi72jE5J0nKHYqxJ7VSCgiU8TH+2IEYEXhhF9qfeV07gfB9xaB+KmN04rvZOU56QlZgQQoJyApvCIc4kO5aiPcEcFg0bhSJCkQjjnctUEJjEiFzcpo4Rea5Nes0HUNiMcCBmlQiizvU6a9ENMeYbzRt4d0GlPwskXG8yRWekynr6FTpsi3kIjpMR1mqMxdBNc3HmyETiSsayj8Rg6UutcrGMEffIG9ZfF5aq1EWYj4iwNcFRSmwmHRKhhzO3/n70/D5Ljuu980c85mbVX9b6iF6C7gQbRBEAABEGAO0hJlETbGlkjXTKkGY/v+M7cF/P84v4///if+eO9mLhxw4q5b+bNeMaecIRlS7ZlS5RMibtIggRIggCxNvYGet+7urqWzDzn/ZFLZVVXAw2uolQfxEFVV2Xlnnm++Tu/pTxlTTa639T5mCjh0BHT9HUN8C8f6OHB/QN0NgicUh6l3LNPaI0K/atTiRJeSg/Kqii8n5QQQT6nTw4HoRSihiU1pixScc1wTwO79+7i0T3dZNo7iUREKLVAPLisJDrkFFujVcy9zkclLCrCFrqNRJ2SbqfiKE1M2myJCXZtaWNvZztdlh8tZ1cMV/rRozfXVvlwfIrR2WW0o1A4KO2gwM2DtslT0TJhLl/i9M0JphaWyBbVOh84PHGBAcNdnTywfZA2L7IVIB6NsBQqQVVrqDk8XmhF3R3lPnZW3vqTwsCw3c98Meuvjz/flGelVrIYWOiqEXdod4NvoYtWGS6Fo1FGOS8fQKHgTpuLxNBeiodgb2jcHHKmcFNoNPTieFYjQZGIdgMaHGlREoqiFFjZGdYmr5EbP421dBNnbQZUFlQBVNF7zVe1tc03Cl4rC2uFxkJiIbH9tdehvCphx8AqHBHB0a6VLjypdCIVuek+fQudd5Q9B37bcdMCbRbpPaBUU+1Dh2edM4WJqQSGWWld17j59Nw78K8fvogLB0sIL/Hw+qhogSMUUnq5C1kfOe3z67m1X0BE+YEagfQSLUZpThq0De/hyw/v5ZuP38fwwDakNFHKxipkQSmEjK67wYJrwQu3Op8WDho7qOEa1Q4l28IqKaySwi45xOwcieQEO9qSDA/FeHRPN4Ntbq45KQBhus0/C7zIBy9vaJ3PAMNcfw3dDsMbB49FBLubTLq7+mnudv0fpePldPMtH9pCS4flUpTRqRmuTc6yULSxkeDnCvPNK+ufBcoIEGaU+YLmg2tTnL81RXY1hxMx16Uc8WmXJju3NjDc2UzCNEkiiClRYaHDcAMn1lNpoXOUxsa47UOkdGyUYaKl54/oaYucUhBNBxbOjagWceF2N/gWOp+iJb26u+uXH4+70xa8h2UtnHIAknArEoh4D7FMG9FMK9FYpTiwhFunVxs2ZmkZkc8yN/Yrps/9kvlLv2DlxtusTZwiP316XVu79W7wGm7V0/mtuHAZa+4mzuoC2poH2xOKOIAVlIuq6Ylbw2qn7bUNLXRhy2Oh5J0fdxjy/Hh46ycAFKbhpn+5GxzlZgYI+3pGYvGgUoSfVy+MY5drxVYQ5KS827Pv88F9ODU8wecfJwMDsyxOb7Mpte8gdT4S5RuX978QxKIR+lMRHulr4sD9wzx7pJOvPdjOUE8nZspNDKrtQmC121jArb+Q65SpzsB+NwgtkMotzyW0oICBabgWCDOqSMkCPY0N7OrZwtH9TTxy7za2dmVIJCNE/ajnsNkteFt9DOt8WkhTBsEOtXADBmrf7qQ0iTe1s3uoiaG+blLSwrRqd0RZXeDKTJbRqTkW8nkcXb6JbuTXUo2Nw8JKISjzJTz/sAoctynDTSS8t28LW5pSJD3RKoRrofORluOJnWrczi8WEZRKtidiQ2lZQu+T/pAklIVglZUujCFvX8/247B+aS7VRldfxBYKmqyyictyZ+8LOiUlttTImEG0pRezeRuRTEdoLmUiWrjiyFlEZcfJ3fqQ8XOvM33ul0yd+wWTp366rvmfT537BVPnfsH46PGa0946+wa3zr7B2Ae/CERi9sYJ8rPnKa1MIKxFoqqEiQLtYGAHli6o7gLcPyyrhDCTlDbwGfNz6wHEo95ereEz+MnhP9W43K2FDsI+dOX1lCpJ0XsA85NCgxvZ62hjwyALF79n/vVHaInUYGB6qWqMu0ozc7u9UOcTQAowo1EyTW0c3NbNVw8N8TtHD/LskU6+fjDDUE8nUppI70aktYMSOmjVF0gdj0/w+oxqh6h2iClVIcJaEoot6WXuH05ycH+Kh4e3sbO/k/7WDAnTdJO0Qu3j88W5h/xGoGx1WwtdOMq1GmUoMhFBd0sL9w500dfZgB3J4KbSDWG4fczCqsPl8Vmuzs6zWnIFkQhXzr4NtnJYyjncmFnk2o1b3FxcZMlzkAlXqsATK70Jh0PbhuhpbSYTcwWbnxJWWioYcg3XpK3E7fyKliYaDYmdGuJzjTwi4g+5rreCVOOEyht+kviXTvXRjBJdV7PWF5p2JErGu4fmazzQSW8o3oilae/fTUvfPuKdD4BnnatGCM8vzZqHlXEWJs4wf/lXFW3h+ns1/1668JPgb/+zhevvsXz5paCNn3udsQ/+gcmzrzB36RhL106Qn7xAaWWCqJMl6pQwtA2UcGr4QfqWp0gk6pY02yCqM2yh81kXEfqJUnnT+ygWOh87NK+wD13YQqelW4u3JBQ2tYdrv4hoz2HnboeM727qOh8JCcSEoD0epb1jCwe3dfO7R3YEwu5rD7Yz0N2KI0EJG7WWResSWpdQotJHqM7HR2m3+aw67g0uVypRKq7REFUMNgiODLVxdMd2Hh7exsH+XnZ2N9KRjtFsREgLTcQsYeJU5PWqJeT8j6pbnU8GW+s7WuhqEU5XZxgmPe0ptrY0093YQSZmVVqlPDGH4VrpxpeWuTWxzFrJrdMrtEBuwnNZacnsWoFjN8a4OLdSjmz1AjkyXtJVwzIQjqarpYn7htoZ7mrFkG6FCluCYQjWtBMMuUprI6tLpYXOp+yDU7bgJEmUR5hlscJM5leqaDDLy/GHrD+r87qEW7P2TiS0AGGsCzQTxLDMNqKZftp2HAlEnYy6IyURLdDSQHgmIv8VZxGztIzOL+KUVpCW+ypWx5CFOaS16LbcWPDeKa2gsuM4azfQedfaZy2NBc2Yv4geP8Xq1beZPvcLFi6/zsyZN1g4/wJLN89TWr0FysIR5ob+Uso73zdjoStKEQy5hiNCP20+ioXOx0SDV8os7EPnRyUL5QS596JaVlSb+HWn2neu3AAhvQEfPxGxm4ze/+x21D4L6nzi+AUC4lLQkYzS3NbF0aEunnzifn7n6EGe+fIgXzuyl61bo3Q2CLRXCFx7Oc3qoq6MH8SmxZ1v7rUIpxAp2RbCyZMrleiMa3a0JRnpinJkuIX7dqa4b1c79/Q205GOkY6YJKQgGlGYhsYQxqbDj6s7vU+78/ttwhTijha6WvgFJQwtwVBkYlEGutvZ3pOmsSFTOe4X7gMdmF0tcn1mhdGpeVYtOxgZ065yCAhbwjSwhubGzCIXLt0gu5y9jWUNupINDHd0MNDdTjIq3bqPAkzl5rJLCoOi5SZvrYU2Shta6GqRNd1s++moqEjCDOUAkxW7cn0/6/O52kJXje9Dt1FptggSI9kRiLruka/Suv1R4p0P4MTasHS5PBWERB2gDCMQQxHhgGG4zUOHHgCiuoQpHXcI16uzGpUqaD6GtYq5Mknh2jHmL/7MtdydeYGpi69SXLqBtJdCliqjosuWpgxq027GQucPudb0zfvEqLwffhwLHRjgBXSEfehqpf7yy5198al1NdX6rDZ3dwes85HQwkuo7j44ogREDU0katKXNHhioJ1/ub+f7z41yDcefIQH9w/QOhTDbHJv1lqXakZdbkQ43clvIl4QG0Lf/uZ+J/z7QyoaZUdbku29DRwZbuHRPd0cHm5nb3sLPYkYKSlJSYEhHUxswAk5lW/uQqvz6RHOV3Y7avnQmZ7lycAgaUo6GlPs6G5jqMO1LKwLNPCsdDeWS5wfu8HNWw75tfKDhQ7ba/08hNpx0xMoxfjCKmevZZmcW+VWseqa9qx//nr2N5rs7R5ka0OaxliEqBAYuBGetQhH9bo+gzoItKi20JUpd/gZ243wXS3pDYan3cTNnxdRone00IV96NYh3Jujkhoj2US8bZCWHQ/SNfIVuke+StM9v0uicy9GcitaNqNlM7YysGQ0KFflp8ooFZ3gtVbTjkI7iqLlCZCq+3c42W8FK+OUxt9m8fKvmL5ynMLcVSJWddH5sm7yh1w3stDVwqg1hPuJoLwVK1+PH8dCF36KsoqFwIcOKRHKqRLQm9/+32Tqe+FTxj+9HdyM9rbX/wshMIUiZmqSCU1jcxt7trbxzYcH+J2jB/mXTz3M14a3s6Orm45ICS0l2rGrctWVlXvl57/ZmFH35uha6PyL2gi1cpCE+z70lK1dn7mYzhLTWYabo+zrj3F0fxNff7Cfw8Pt3LelheZUjLgUxITw5ujeXNzIq/Ky3GTSdUH3eWIKsakhV1+kVERpeh7HBg4m0JdJsrOnm650UzCJUEYw5AjuqSCdAlfmc8zcvMjl2SUsp+Ra6ZRbQts780ArlHLLsK8omF9a4+LcNW6urSIcvX6o1HGjTFPSor/rXrb3xGiIRjCFwPCE6+adpGNBlO7GFrrykKvvQwdU1LMt45ZW+7woUdq8ha7qkgz/KZEgYwizDZHqJbnlPlp3PE7/vq+w9aH/Bx37v0Xrzq+T6t2D0bKLSOMwZrILZaRxjFYcoxWdaAlea7VirI1irA0RjWKZ8aDZXumtagHmRNIY1iql4iL22pSbNmXsPWbHzlBankLbcyHxLSp6bmEmiUoVRLr68Vn+e7xyZj5ubelK4QWhzmrT51c1/r2wvKyPaqFz65aWz7VYpKXCQqelEQy3+tt4ex+6j7xRXyjqgu5TJnyKh3e2X2IZabrPntImEzXZ0pzk6HA/zz1wL3/wpRGePdLJg/sH2N7ZGgROBMgYQms3n513IwsjtAb9+T1Rf1KIUJUGALvk/i0w0cJeN8xFSND53ykNEeWKOK3X6GlsYP/WZo4Mt/DYgW72DHTS35ahvTGOaQripnvT1AZIWRksUSke62Lu88bW+q6GXP08dIYAHIHSBkq410vUEPS2N7Krp4V7m12fHekU3TQmvqgzQJNkaSXLqcVp5hYtliywQp1GRfchYE1r5tdKjM7PcWNxkdWCjTZEpZ+etwxlmPS3JNnVGWe4t5OGWCSoV3sntHRCljp3OwORtgky2nGFb83bxudroQNX7NbCz5EXttD5wiZowX3Xu3aFgUEMx2jCSXdgtt5DY+8gPfd+nc79T9J18A/oO/DPaN/9ZTr2f4vew39Qs/Xt//2af/ft/316Dv5Leg7+S1r3fpeue75NvPMBdMM2Ep5vGJ6YgxUKpkBEowiK2GtTrM5fJz91geWbZ90ExyrnWcHEutQjjoi4lqsNbkdWKOAm6u0JN1+dl9jWP7/Cou6um9/blVfCdjIVlSI2Q62qHkVrIbDQbVSmLexDJ3wrZCBcdXnC32A2dwes87EIizoj2Onas/BE0MJECxMDTVwI4lFBe2OcvUP38DtHD/E7Rw9y9NC2IHiiJepH+5TTnfhib52wE8YXXtTpquGKwEKHjfCj8TSeFa28rXHPScoqFYlp90lxa6dm/9Zm9t6b4tE93dy3q52R7ha6EnFiUmBKiHj+jkKW/e02uE/e9ps6nw01LXS3MST5FjpH40an4jqpCiFICkFbIsqu7k52tjXQG5OYnp9SZcoM9zobnVzg7YkrXFvO4igQIWtw0IUIiaM01xeWOX1zgisz2SCyFSpPW+kU2RIzGO5u4d7+Lloa4sTC0RsfAT/QoTzk6ouJ9TtpxTbcId+aKvDztdDVinK9E/59tywzQqLD6+cNDVEdwcBERBow0i0k2nfR2DuIs+uf03fg94LWc+/Xg7bl3ifpuffr9B75bvB+y71P0nvku+77A/9L0Lbt+wZNu56ke+SrtPU/itO6M1hHw1pFKIeoLgWVFARFRH6cwtxFitkpnPycW1dWG8G9ThAPfOgMbdVMLOwTttCVwqWj/Nwu1Zqn4u+wKKqacfVXQd4314RRXSnioxL2odtwuDqMNEFoxAa5Fn9TqQu6zwj/NPdf3XN//Ripf7uJSIhHoKshytGhLp57aoRnn36YZ490sntoKwPd5aeesIhbZ8XTjivqvsDc1kKHjdACcAKLXEy5yYALGGihaUkYgUXugf4BHjvQzUPbe7mnt5nuTIyYFAjpdnOVXafyWhmBQKCQXquIcK3zuVD0bvQVFrrbPMP4FrqYd2h9Uae1RlGiI6bZPtDNPTu20pBMBElrw6Ou2pDklOLm4iKTsyvML66ypCyQ1eeQKxyzxRLXJmc5f2uK5ZUs0vKS9obw/fWMqGB7Tz89vUnS0QiOrO4sN49QRqDNykOursKza3R2DaZnoauZqPbztdDdKco1W/0we1d4YkFLHC0pmSmsSAvdcQcr0hI0J92Bk+5ApNtR6X6MdAvKbEKm+zDSLch0H1akBZFuL0+b7MFsGibacR/NfQdp2vUkHTsOI3ruo2CKQKBUp0+xtY1l2Vhr81i5eVTRRisLpRRohWOvBT50AI7j5mTzmyV0IOwsRwVRru5w5gaUla+br666odyLq4a2A/8zfybqI1noauXXDtdy3chCV8HHOhe+uNTYdXU+C9aHK3shylqjlEIphaMUCk0sGmGoIcUDfc08/Mg+vvGlwzx7pJPHdrUy1NNJW7yA9qpP+C1Yzm/AsOvtLHR2SVb4y8XsHFqvkTakm34kZTDSFWXvvSkO7Glnx3AzOzvdqNWkKV3rjmer8LrtmkIOT8y5r3V+nYhJN8q1gpoWJhffQlesuPt5Dwk6giMkfZkkw93ddHQ2eYl/11sF/PqmozMzjM7OslZS+OVdlScQtTYooJlazXPl1gIz00tou1iuwOA3j5SUDLWmGGjdRlsmhSFqnYmbR0tnQwudWXX7Xy06d22h08F2blww/JPkdhY6Pw+dT6BNNhIf/gTeBa20QGh3u33RU8Ikik3Us8iaaP8xEkMrnNDDgKMlUgmiWiKRRBFEMZBSI6RDIpZENvSRae+nddv9NDbvxEx2uf51Gzg/a3sNq1jAKRbJqQxK2Qjt4DgaYevAQufjOL5oszBtt/oFsK4OqvJiXYUEIbzs2BL3wRjtCTjW7zih3TrA0l6XoDjQicFP1lvo9CbEmKPcyHMZWraSa1jajcKuZaELR7m65c1cNqqG8ptKXdD9mhHOMyMRSERgQYhHYgw2Zfja/l4efmQf/8s3DgU+doOdjbTFCzilPE4pj1XIYosS2vMN+iIjpESFrIy+hc7Fwi45QQOIxVJsaTA5MtQWRK0+tL2X+3vbGWpKETUEMS/LvaHBQCGqhmtrEX54rfPrQ808dDUtTC7VFjofoQVaa2xtkjQd7ulpZVdvF70Z1zoQJBr2ThPfwja1sMSlyTmuLyyTLdmuD5AnIgSQX7OYnV3h4vQ0K2v5cu65qtMtQ4mGjMmu/q309Rq0JmtVfvhoxCKClKccJSAwEbjXgCls1rRDZ2D9qm3d8P3UfBwV8r36DLhdlOtqDUG07lpdP0kIt2AjgBBlYWiicWs3RJFEUESD91rE1jcZQQsjJP1kcCII6WCYCYx4C5FkN/HmRiKZDpSRril0/M+K0o0UTclsMAIjQ/2En4fOMAy3CQekxDYFpq2JSoUy0kHaEiEEhoiW+xoBbrExGwcbLSwQJS/BSfg6sgDLq1vtTSMrj4cOnftarbfQ+UPKt6OWhc4qFogINwrbt9D5Ua7SiVTUchW2e6B/24ZbqQu6X0/KCQWrv3Hz2MWlYKg5w5EdPUEeO1/YbbsnQ2eDoLNBIB2JQ6lGGbEvCu4FqZVChqyMvoXOLklM7yZlRo1gaDWcR+7wsJtHrj8dJyVdi1xEux2ZBIRwn0jddBPSey23Or/++HnoNktNC51nXhBIokJga5PexhQPbB+ko7OJtBHq2HzrlYigjBi31hQXr08F9V21Kg91lZRmdq3A2WtZZqbmWS4WIDS8GjxHGLAsE+xoa2OoJ0N/UwZDinX1TD8qRUuTq1aQHrY2SQqDmYRG6TwZba2PchWRmqJJA1qocruLf3fLuihXabkBKoYg7Q1H+1GuG3KHxQqkl/QzhqEjoKOYRAAjuGfUbg4SB+01FXqv/aFyYYBUIBWKcv7AmNJIz7JmhsQknljzyakMAhstDPfVFMGQayziWeWk4wZGGAYRLYKo2jDuelbuCKUtHO2gig56dRZ7dQJndQF7dQJ79YbXJiqatlbQ1jyOKAJW4Hfs3za1MIiYJfTaRLAcTQxTOjUrWPgEQREhF4NYpKX8ve9n6F1DynBLtVWwQV6+33Tqgu4Lhi3BEQ7SVKSigq2ZGAe3dfPwI/vcdCcHRnhw/wB2e5S2uNt5aO2sG3b1hzHVHU4Bt57c3aRK+CRx162WhU5jB9Y5M2oEQ6tH9zfx2AE32GG4rZGWtJtHzvSub98yLwLnYXfMqy7mvvjcbZSrb6HTVUlJJQ6msGmNC+7paWW4q4NM2rUOVKMNiVQOl+bmOHntFuNTS15whJsewlGwOj/OxblrjC8vs+q4YrDafw4HepOS7rYWdvZ0056Mr7MgflR8/elb6KrxLXQdeYEUCVbMGIRqgPoIJxr40OU2sOJp1F20jW8qG31TttBVCp+cdz+7bR662yHKQsQdFyk/TwtdfWdQnh+tK+Kkl5tyfQvhBSz4D6mBUCu4Oeb86ge2tgNRJygG/nFGLEZKZtGY6x70hZlEeyrIf5CwtR0M49qmqAiKwNvGMIZQFNcc1OolLtxYYuHSO8xfeo2FS+9s2LI3TmDlVpD2Usia5/nXAUI7WHYUkdwSLMe30DnaqDl0WoFWQaWIYigXn0EsEHPBZ6Hz1RfLlcOtXuDHOjxzYkX7pPg05nl7NncHrPO54FvptFRucJNUGChMCaYAUzhoU9CUMiosds8+/TD/7sF9PLh/gN1pi7boGnZ+Be14NwfDRAoToQSG0mjHCZpQAqF8t39wl+g2tFHhYaYAJVzD9kdqm/mtMLw6meWLQjh5YnaOlCww0p3n6eE29t6b4rED3ezr6WRnp2uRS0dMDEMEYs4dCPGHWCvu4e58g+anh/3sLsQ6Hx3/YaM6D11F7rgQYQud7d0B/ejU4Hzw3By60gn2D/TS1dLk5o1TDsJRQfJf4UiUEWdi1eLi9SnmV7MUpSavNZbQzFlFTs4UuXBlnKWCJiUlmmg5t52vtgxoTCbZ1tNMb3sj0bjbqZtKlR+mvKg9d3hsM3hDU54xxIqKivqr/rb6FrrJiIPSeZpEZUebEXGEo1AGZIURCGIAR3idOA5a1xZ5G+FeZZU2u9tddZVRrpXLqh4OdvHm5gefCe090YWa8Jr3XggHITyhJhRSKISoFnPu6+3XFu8R0Q2i8pfv3nlc3zgA4i3ACpaMYgozEHOmMNHEEGaSmCrncrO1QApdYYHS9lq5XJlwhyLD8yGUtsRfrnsO+U+1gDKJ6UWmC21kVt9i6tYok+f+6bbt+vl3mbr4KvnJC9hrU55fnbdOCiBCxCyti3IN/AVrHjMwZBGtIq48CVWK2KwPnS+W/QobCuFZScNnWLhVnRMVx7ay3c0/dz6+uFfVs6r8o/q727XbUHuP1vlcCfvRBQET6OBzjfT86gxM4RaelhFBKubmsduztY0nn7ifP/jSCE9+/Wke3D/A8MA22qLuxVxYW2Utt4RlF1jLLeE4No5jU1hbxbILWHYBVcqjSnlsa7Wi+Z8Hrbi2/rPNtk3+1l8fu5hH6FGSEZvWJpv7h5M80D/A/nszPLGzl52dzbQ3xmmQMvA1NwnGRMpP3MiKJ+4wlaKuzhcBrd0ySBUJg6vQhgxEWEUeug0wsImqEp0pgz393ezp6aQlGQfK6UuEI4NkxRlKXJnPcX5ymkvzyzhKU3I0E0s5zt5cZDzv/mjFDK9j2ZrULk22d7VzoLuLzkiUtCGJeFYFUzuu4zquqJNCQ81KDuUkyK6YLVYEN0RKOqi/Wk2mlA0snMt2pXUu6ziAWZW2xcXQqiogotpK5bZyqXHfFi5cERhY6+78CFUZ5VrbQldJdU94+84aPEUUfq2gatoQbhiEEWruo6PArcXpBm4pbBTaWcWIpynJGBQWKMrGmvVVfWuW70MHEDH8oIRy1x1NuP5jwpBIJxJYr0xhYnsiO6aWg+lRCq3dowCUoxmiLXTHc2TS7vCmlZ0hN3eV/PRpCtMnyE+fJj99mtzcVeyZKxRvvMzsmV8yf/091qbOo60V0AVQ/nCyhWXX9gP1LZJQHjotE6vy3auN9KzdYRfxkvSuL2VhaFUum+YL+lrHHKo+u53rQLWVeeNWOX9P1PuLCvCWKaqn34Bap2WIuqD7glEWdaJsOQthClfY9TckGR7cwdcf7OfZpx/mmS8P8uD+AfqbTPqbTPo6m2lOR+lobSAZM+lO2HS0NtCdsIO/q1+b01G6E/Zn3vzlNyQiDDUPs39rM0+O9PLIvdu4b1c7O1ob6Uq4Qs70H7hxXzdxiQQirs4XEyHcQuW+UGuqkZZBOGpdOStHewGmQlZkBJEat04vUYySTX9rhsP3DLC1s4EGU1REvPoicVkmWMlnee3cFFdnXYtE3rb5cGySCzM3Wc7OuT5oQbBGpSBJRGNs72lnuLeTdCri5j+UIIX7JLLu8cJbbt47wzNewEZF+S9DIGplaa3CFILpSNlXq9H01tEbxsp4Za+U4a6+L5yTjo3hKAwt3Xq4uNGeUgm3acMTOn43419p3gOqdh9M3eYmSHej8tdtbUCFD11omK3aQuffJcu4790gBf9RriwxFQY20m0i9L6iGdiYt2lGqElsBHZg0yuvn4g04BS8qNN4C4Yzj1WVKBgIgiJ8C52mQMmzJDtaIj0BblmuaPOHXcOYwsS0NSrSjLU2j7LW0M4qSnh2IyHQfsJeU0G6l3TnHrp6h8l03xsM1aqSQDoOulRC5BcwrFUia8uo/BQzl95m7vIxsjdOuJY6itjKAiI1K0VEtMCpsb1lil4kthEMuQIow030jbetjrTQ2rv+wzV17TWystGtiIGbnscJEk2VW/i4ltCUcC2oCoGFU6O504ZHrWo1H3de7j/3PAt3NmEB6Yu6O7Vg1hsi9GcRa17nrrnTYdEI13c3RPhytrXGRFHUEtty602OLeeYmF5jLnf7ef+60pYSxFOKrR3NNKSiZGJRdwhLaYR0S3QJ5Q6jmcr1jQoneq3Af1qi0iLq4l9km6EuBz9vbA3vTczzl6+c5vkz57iRzYFXdcEXOEIZaEOytTHK1/YO8S8ff4A9W1qIebYijRvx7E7s/sZWIKSNIyS/ur7A3711kr89do6FtQLKcH3qtKGCAIJGK08mneL/efSr/P7j21lzbP7rL9/iH94+TXY1R5ao6zsnIqG6sjaNpsX+3i7+4KuP8Lt7B0maEkN7Q3ZejkUlDVfwCAdHOzhCcmkmzz+cOM0Pjp3m/MyyO01omFk64EQl/ckoj+zs43974hD7t3eSkAITBxDYSBQWp6ZXeeGf3uW/njrFrTVVtuxJC5S/vjZ9mTi/s3+Ebx/axQNbW4kbkcCaUr7UpGeRqE7K56ZlCuwIt8urJ6AkYL5Q4vXLY/z1qyc5eW2G8SXXL1gZZpAvz/AEzWNDW/jnD+/jS3t2MNgS97rQsoh0r2pXTIYlY/i+uV4SfTz8XeLJMMBBWIuUlqdYvPQrpq8eJzd3FemsrrPS2drGSG4l2nOYbbsOkuraD6k2hBBIHOzVCeY+/DnT5/4JZ+lqYLECL1AgZMVyImnSg4fpvvcoqa79iHRXID4kJSQOjpYYjsIxJDp3i7Wp80xfP8/y5Zew16aCwI1w3VRlWFhCE28cItNzH23bj5Ds2oWIbnGHTnWR7I0TTJz8KdnpcxjFOSyhEY6JIZzA981p3UnHjsN0jDxFrGU7WqW88ylHceEy4+/+DVMXX8MsLQclznwrpS01mhiJxl6SW90SbrGW7ZRk2TpoeqI9zPpjHbYKVlqpN4OsYSHzBWcY90//bHTXIiz4a1PuZ25z1WD8yZ/8yZ9Uf1jn8yecm65WIyhlU5Ye4fdSuE+HUoBpSCIxk9ZMnK6OJPf1NzDUl2KkO832jiTD3amg9fWmuLez/He49XbFubc7U/E60JWs+f5Or3fzu+HuFCP9Gfo70mzraqY9FiMRN4l7PUhEC6T3EKOlOxqlJSAqC3ZVEPpivaC7G8oXWp3PBwVMZvOcvj7N1PQUM3m7LGw84S60W/ajKW6ws72bvQOdtKUTRLxzRIiwxvd/Y3hmMhMhTeayq1y6Mc7S8iqO6fn4SO1m71eKmDIoWXkaG+JsaWvi6swSxy9c58TUIkUjgjake8fXRhBpZNgFWtMRHhoZ5OjwEJ1NySA3onCE2xkIjRaeo77QSAyKGCytlbg4Mc2ZW9MUc1mKIgLCtXyVN13TGDPpb2vk/m09dLekPRHrbqMSEo3BdK7AGzducvnGJNrSFKVJxjAoeU+NrrCUpIWgqyXBPdu6aE0lSZkGttY4wk2DEgQXCelaWNwNKDchQXsWMr3x0JajFVpo8o7mxsIyZ69PcW1mgZwyEVqhpbfvUUilSEnJluY0I/1dDHa20pwwQ92fBM+bDZRbKhELQ2sUNtJ3aQnsKK7Lht9BS+1WjHEDICqHjqub0K49UnrD0W7KKOF+J0Bi4eTnKcxdYXnyPKXF66j8OGBiCI2lDQzvRHSIICNpkulGMh0DRNLNqGgL0vPpU6UsS3M3WZ25iVVcQqiiN9Trnrvu+esiVQknniEWS5Fo7MeMRtBCIHAwtA1aIyWUpIlEYxoRjHiKmAlaORRzWRxnDaTlBoR481baRipQdpZ8bpVSPkfEiGAmEmhVoLR0i8Ubp1idPIW1dgspTTdYQSqkFmhtIzExkkniW/aS6dgB8WYUAiHdY6bzqyzO3GBt9iLSKaKF4Xp4e9ZciRc0ZySJxpJEYymiqTZkJEHEWcNQFsox3Qd/yqU0wlZhtwkvI4SbKmydgcxrboS6+334PCmf5d7jgtI4Cjf1GNoLtXG/88utCcBW7nYK3HJs4Jdw8+ZY9eBzu/6qLuh+A/BPJP95NCzq/KcQKSBmSJKmQdyQZAyDWMQgGTVIxkySMZN41KQ9GiGRMElGDVKJSPCaipu0RaOkEyYN8SipuElrPEpjIkomJmlKxGiJR0nETZq87/3X1qrPW+NRmhNR4nFBazxCczxGMmHSWON3yYS7bsmou64RIZBSEPXitKQuOxy7PZj76vod3obQl7e7QO6Mv/frfOZ4J3xY0N2YmWGmaJdLeoUEndAGjQnJ9q4G7tvWQ1dDAgPh5mosT+rN2C2xJKUArcjEwSyscnF6iVvZNUrKQUvlyUn3KitKQdGMEJMKDYzNzfH+lVuUsssUjdATf6ijFTjs6GrlmQMj7B/sojEWCToHgsxFrqBDKIQWKC1AOizk7EDQjedsV/SFLHRCg5YmjTFZIeiinoBB+MOBFtk1h4n5RS7NLjG+pkAKSuFAJK9T0QY0GIq+hm30dCeREYkwJdIQIN3hOy3djlF7Q8WVLVRtSgocKVA1mltFRwEmsysFLt6c4dbMKrmSVR52DQk6S2u2tmTKgi4W8fwOQ9enshGOBcJCqiJoC6ltd80chVAOQjlIZSPCTXuvWO770LTVTWo7aEI7CO1+JkQJ4eSx12YoLdxidWqU3NwN8ku3MFQpGAaUjoNW4HhR/bFkE4nmXuLt+4ilWpHROEIILAxkqQj5ebJzVxBrqxg1/QhdnEgau7SCVppoMk0k3YghFUIVQJfcpoqYwsCWJoaUSBnFiKeIROOBqNPWMgYCpW20F8krDHfIHGeVYqGAbRWJRqI4hUVWJ86TnTxPYXUBw3aDGvzoU6kFho7iRBSycZDmrhGS7X2oWBNaeMEf2kTl59HWKrn5caRVWpckGSHQwsZWJsrWOEaSZDLhCs+I6fpwCo1yICLD0cnrmyEszwuyeiC13KTQofdUCfrQma4VUgivFrgG7SCku69dc4uNVm4CZSlcwe827wFDOeAo75mo3MeUxd566oLuNwj/9lsWdVYQqSVD0V2GcJ/MDdwkjlIKDOn60niGDEzDHcI0/FfvMUQI15ncELjRYF4UmHtCagyhMYQMpnGnK7/3/xbC9t67v5M1fus+0Xq3ZOEnAXZbcJsWbtkugay0YN6J0CSbmn5DQh1Gnc+eTQo699Fa0hQ32NHZwn3begILXSCcAjcV7Z7s3nCJRmMiKBgpcpZgcmWFyeU1zwpVhQRpFZlfXWN8fplTs8vElY2lpGuhC/mllbSmLWrw6M5+Ht0zzFBbo1s4veKUcoculXeTd8WnO0g2kctzdWL2thY6LdU6C50pXcufcO1VaAxsNItFxZXpaa4tZxF2JAgfLg8PQ8nxqhHIPFpoDNNk1VHkLUXetikoxZrtbLplixY5y67RFDlLM7eS59z4NOduTTG5Ms9KOGAjJOiACkHXGvduVv7OVAqrVILSIk52HlXIlVs+iyqsVDTHzuKUViqayq3UnHZTLZ+llB1jbeoSc1feYGHiPMXJ4whVQCgHAwdHuMPqjuNgAKaRQcYSpLvupaGzj0hDKxgJAITWSFmimLdhNcvS4mUiTmXVCB8norC07Vr8dInCyhyFUpEoGq1slKNQVhFlFdFODlFaRpWyKDuPEUsjhIFpxBBSoEolVGnFPX+ka0XzEVpDYZFCfpnV5WkKyzMsT18iP3cJWZwJpvMFnVamm+7EaCbR3EtD1zCxpi50tBGEG1pgAugS2lqklFugtHjL9bELuyQJgVYm0ikirRLFQhadL+HYa9gloLQIlkar9cd0XStmcYpLd9EWK5rKLeBY7ueqtIQRcUW9k1/Ezs/iFPxlZMFx0HbObVaO1aIgZhYBhWMpdGGOxTVFTC2ho7EgItu9V9XodwR1H7ovMrWex8KfqapIIdO3PNwB17ZVvonXlis61HzCJ1ntX7lU/7b65HTfB1N4lWmCD4Vr8tZagCj7w7gP5N48PYtCzbVwrwj3RqDL0cNlqrfrdlSve53PDO3uem3D8WnXh+71Dz/kzLLrZ7UOA/rjKb5+f9mHLho69lIDWrkPBaFhDi00QhRYLEZ4+8Y0//UXb/Hq6XOuT1zkztdTRd1WEQn80qRT4EB/O889vI/fvX83WzNxRPnUdY3OAteHLvB3chAIlLa4MFvkBydO8Q/HPgx86MJI5aCMOFsbozw8WPahS0kVDC3aSErajci9NL/MD986xQ/fOMvNrB0EkYQDK7TnJJ8xDA5uaWBbdystTRk6UxlSMQMzqBf7ybBaKHB1doF3Rse4OLXGWt610AUBLpvxoVOuCFXL18ll51mZOYMornfW94lEolhWKXgNf1br++rX6vkAOKt5itYCupSjuHILe+UGWFaQbgRcjRJUZwMiTf1kuu+lY/tDpHr2Em3YgvKCBKSysEoCVm8xeeU1Zs/8EmP+YvnHHk6kfOz8iFcZbSfavI14up1ILE4k2YqOlSNpw8Sjrq9oMTuFtTZPdvyUu+6Om8DYT0ES0QLtKEpKEpUKIn51iBXwlh1OmiyUg3YUBjGcSJrmXU/Qtv0Ima0PYIWSCEdVBKu0Rm7yFNmbx5i59DbW8mgQAWx6VSF8/PnpRIZIpoN4up1YpAUr6vrT+dUyPmkKJYd41AheAWKZLpr7DqJNwXw+TXzhLbKr5Xx6DR27SWVayWXnKS1dIxKNke7cg4ynsAtzrE1fxioVyXQNEM30I9LtAG6VF1/QifJ9EOqC7gvPnaVHdUg4fkGx6o8/AtVLvpt5bv63H+kUvdOQa50vPt6NLBwU8fqHH3JuMVcWN96LL6q2NqX42t4h/sVDD3Bwa2vFaSfdG6I3b/f80biFA7RwH5DGFkr8/147wQtvn+bS5ALFZLJyGWGBVzM5r0JQIq0FTXHBUwdG+N++8hA7O5vd2sLVP/BQ/vqhAIGtBKNzK/zDidP89evvc3NxkeVIouJyl8rd5v5Uiqd29/Pc0UPc39tOg1n2FbORaAUFNKsli9cvj/HTt87xxsWb3MwW3MfAUN45d0i3vJZbYgbNSUU8k6ThEyxV5rOy5gqiqYUlbuXdOrMV0cobCLrtTXGUdNBauxG4Kkd+9jxzl46Rmx4lt7KAtlYQkYY7vpqsYVk2kYiX0817v9ErgE3STePhr6a9hrTcg2NY7pChQzEQdH6Eakl5fydaSLUN0rz9Udr7dxNvG0RHmoMTWioFykbrFZZvXWXp/MvMT56ClXEMa7VCyAEUZSOGlw/OMVoxnHkco5WIIRFm0l3veFlIVVBYcL8rLFDKu9tkFOewlYEZjqoOCX+DGMqw0NJwxVvVw4ZQDkULorFmzI4huke+StPAA0QbtgTBDCYaqQ20o1CFGVZuvM3yjQvMT56iuDoRbI9pa1fI+UmLRQRlGCgjjXRWUUaaaKwcIftp4Z8D4EYyN2x9gPahR0g2t+Hk58hOXWPq1igAiUSKtu5B4i1bgs8bjAhNu54klWll8ea7wbRdvcO07ngcke5Ca8MdDfP9RKqoD7n+huLpd2RQETbcapwJHwl/KX67Gzb/2+qAkE216pnU+c3DO8hCw/hqng/Gxjh9a5JsSZWHQ6X7TKNNSaOTpz0eo7+rlX2DPbRlEhghC532zjXPLBaMajhBknmFKU2cksPEwgK3smvoXJ60tMtBD3hCzvOTE47vvO8hBdK2iMkS/T2dPLNvFw8N9JIxDQzhBjFVXxkiEHOBLRpH2NxaLXJ2YoYLE3OuD13Yqq4MBA5axmiMGPQ0N/BAXw9bWtNE8Aqfe0OSSrjuFoaUNCZSROMxrFKJ5ewaupjD8gIJXD8+7Y5eOwqhFavWGvmCzfzyGhNzWSbmslyaWWZufpXR+RWuz2W5Ppfl6vIa1+ZWWVxc4fxijhszyywsrXJxZiV4nZ+bZ3JuidG5Nebn5hmdW2N8rcjEis2KlwFaaMf1CQm2UyC0iWnl6WtrCoZc0wkTKTQOJgKJZRvo/CQLUzdYnbmCtTyKk1tA2Us4uQUozqNLWXR+DsdZQxXn0dY8qjiDs5ZFOYtYxTXs4grKWr3tq11cgbUZHGeNaD6LXVoBu4BWRWxrzU0TIt1ABCFdy5aPo0WFmGvo2E26axAr0oJUJhrDC5CRXgR/nGjMRCZbkIU8eWsNbReBIirSjFAFbG0jdbnUmP9eyyTY2fL6r0xgrc1i56axc9PI1ZuotWlUcRm1Mk6ptIBp5xGlVfB83PzLJ9gGKTF0NIiyxUtk7fpsusfQ1jaOiBE1GzA7hmjp20fz1j1EGofBNL08fuV6HUIItIgSy7RixjQ2UZx8Fqe4jMBBKtA42Kbrf4l0a3NLnQ9etbX8qTe7uBi8R2uiiUbSnSPEM20YsUYMYbMwfR2A7v57XGuckWRp7hL5yVOg8kSTjaBXmZ+8irVwkZgukmjZSqK1CyOaRPhBL+tGlVzKd4A6v1H4HUGdOr+p+NbpvDfsI1UMKRKVlRg8A4K0HJYjCbKhEnK1UH4T5VYmghkxGO7tZGBrL72ZJFY8RpZoYH3Bca1GeGIuSDwcypMFMRpjcQ4O9rK/I0YmIhDawfBje2oIuurr2daVtrwMpaA+rFAG0nFLdRmlSksN4Fnn8PK9abfkvHZISUVHOsaRbd38/sFd/Ou9w9w/0EVvTAbzl8pBSwdluHnpIEZORcipCOlCkpyKYFolciqCcKJBMwoGhmWQLUYwCgbCiZItutP4r6tOmlUnHbz3fxeuyhF+BT/vXhE7UmkdDP+ltK5IZAsgHQfhDcNBOY+ZNmwExXJtVSWC3wqKm27+fIpmCW14eeIMGxnVaMN287BJGbiClZSkpCSRpn5atuwOLHONvYPYtCJUBLQbcSqVl4hZSISUGPEWUplWGrfeQ6RjBBp6KMpGVGnWFXNRd6guPORpCpOYWi6vb6mE4+eZ87bfEtodWvUTFdvlGsWEAjC0dgMj/M8DMUfwbORO4wWOaGKYyS5SvXto3v4oXSO/g264DylNpDKCAAN3Bu4FYZgmRFtIde2nc9suGrY+QKJzL47RiiMiOKEE2r8OSMutLRs1ShjJJmTMxEg2kUikSCRSxDJtiLiBiBtk0i2IhkFENMXa5DWWJ1zLXCyapBTvolDKoQsOKOUG5aC8O9966oLuC071Db/6xl+nzm8LIurn3ioiHTcPmy9C8PLEOaWypcLHCLXwDdEXdwHaISYUWxqTPLFjgL1D22iNxYgUim5ZMMtdllCxCvEhHMlqSSMciVHKkzZWOTjUw5fuGWJL/wBRYWNIv5oA6ECq1r5pA8QoEY9WdmLhPHS+4HKi62/xAuVWGxDuMjQ26AJSFUghGGpI8fDwVr70+AGePXqQ3310P/ffM8CWdIRIoUhsbY1oIUu0UPZDM60s097+tyMZOkvrO9iKpMA1qP0bADeytFzuq+xoJpSBaZVISUlhrUDKcofdaocHuGhrBWUY6JI7lWEYbnSpYSMcdx19ESaEm+csTESLTbWwgDK0hSoJhGOiSgLHcSjZrs+cIyJEmvppHnqMxu1P0TnyZbp2PkG8bRBlNhExvOAAcK1WvvD3b/bSRDb0ke7cw7ZdB+nYcZiWLbsxklvRxLBX51AlQanoYNoa0/YiKEMiT0Z10AAM0/vOMNxhU+HWhPVf8fO/OYqSDUUrNFxcddqGRR2AEW2gZdv9dI58me6hx5HxFMmYQASpaKoQrnXPMKMY8RaSXbvoGT5E5+AhWrc9iNGyC8NswDFaUSVR0cBNimzaet13/r4If7/ZV+F4CZu9z/zzxj/uKtJMJOZWlvHLl1VjxNIY3lBwIpEiEouj5Bpri+Pk8zlK8S4ajAiZdAva2+fg7Y8NqA+5/gZQLebqgq7ObwtKu0axuXyRk1ducenGTfJrRaQqIVUJw3aCZtuglMWebb3ct62H5mSchHSH56uvnVpySgp3MChqSJLpOI2xKCVHMbeWZbXoECm5y9NCIbSF0BItFdJRRErLGHaB7tYWHtnezdMP7uPB7f1sS2bRkQSGcNNWuCsgIDS8Wqa8RjaSxWyJ965PcGVskpmlPKZlYdilimZaRZRUHGhuYmB7D1sySWKmP383jQhejjR0uaNPmVHa0gnaWhrpamlisLOT9sY0LQ0pEqkYna0NyFiMhpRJJmqSiCRRpiQSMYhEDEpxiBtFzGicTFSTiAiSpvsabsKMkIlqhBlBJuzgb//7nHQAjdQ2WlKOXpZuFQyBu8+LMsFQZwM7tvUy2NlKozfkqrx8YdqxyS9NY01fZm15zB1mBTfS0Ctdph03SEo7ImiOAu0IJG5KDP+zTTWnPC/HD9KKKDDc4UaRSGM2DtLQd4Dm/v20bD1A85YdJLuHiSTbQDQihXBlXDitBfgJYECUQLh5+cxEGjPWTKp5gGgyTTTdhmEkUGYGGY27UbTKwlZgoEC5Yiy8vcH6OrqyefsheNXl7ZJRDUYMYRgoaaKFjbFBL+Rog1hDpxu52ztCtKUbGUm4HnOe3yrBdRAi2HgDGUtiJjNEU60kGlpItQ4QibUTbWjFEXGMVAcyGseINyJEFI2NkibCMBCGgYHrl+3o8nG521f/9/5n/nnjH3fHiBPLdJHo2EOsoQFhpHHyCyxPXSGfz5Fu30m8oRmA7OQllhamSGWaUVYeJ79MNNNJJBIlVyrQ2NxJomUAaRggot7+cc+CaupBEXXq1PmC4iaIlcrixGyJH751irfeu8D4slu3siVnsJCqHGrraWzkofvv4Q8ePsBwWwOmcIVNgJcGJWyd821cfvJqhMbWgql8gQ+vTfOr8zc4cekqVyanWS4WGLBTXDNzaB1DiCJauyWc+jobODTUx+F7Bjgy1M9gYwLDMMH0og+JIP3cXsE6+a/l27TQghKK+akZXjw7xl8cP8+VyWkAVMSoCM6QlkNPYyP3jWzj9x/az4HuVlJR4RaoEoZblkhrDK9enqMlQkUC4WShWUOTLZZYKtnMLOeYW82SzRa4sbDIci7PWq5I0dLkSkUMu7JwulNRu3Zz+PNY8ob1phdWWV5bcytYQEV9Wn9I2bSyPHTPtiAoor85jikcbASGVqiiE0RKLtz8ALtQjoT2gx+q339ShOdpxl2rTWPzTuLNjch4C/FMA5FUK0aijUiqAUWzJ+TcKhxCEi7DUa69CiBt95h5ZjBpOzgKKC1gF+bIZ9coLV1jeX4clZuisDqLXSig8lMAWM76IfnNEI2lK7YpFk1SLK1hZWeCqhLVw9xCuJUrrGQjmc4ROke+TLJzOzK9AykFUprlba2wQnnixRfz2gJlA0WcgpfbrpAjl51Hr01glYosz48TKZUoWgsUVmcBKo55LWod+81+Vgs/KKKxdxARaaC0dIupi69yvbiTvX0RMj37oLRAbuokS/OTxKMpCiV3e/zo4uX5cdq6B2nYehgj3gLSdO9IUtYFXZ06dX6T0J7TmsVkwWBsPsv1Rdd3xSda0pSilTe+wfZW9jTEkQmTqK4a5ttA0PliLiyvbGCuVOLWco5b43NMZ3OMr2ZZWrTJW6tEV0uU0lHa0410tiVpbWxiS0uGbS2NbInHiEsbZURwBEHZIXMTXjDCK6y+XLIZnVtmYnqBVW/NolEolcqvAG3pBNGoybaWRlqTUTKqCBHpCTp/ixw34773t7BdQWgrC1OCUjaOl5JkvqCxHcVSyaZQsljJlwc4SyWbaNQMXjdLpKSxqo4TwNxqljM3Jnn74jVOXF0iqwtB9LCfTiVayGJHMjw21LpO0PlRobpUgtICpewYxQLotYmK5fgYsRhOsfixXoGK9/7f/vwBzGiGSLIbABlPeZ21AlIVes0VdN45EZx8VSLME3u+v6eb79qr7atXcIqrOIVV8tk1okaJYnYu/OsNsUpFItHYuldC2+FjRjMUs3PMTV5l5cYJWBkHp/JaNFQEJ5LGsVeQmR4y3ffS3H8/zX0HId2LaUYqhl0rgnx0ZcUEdxd4vqreELxla6S9iPJEXi7rRsFGjRJ2aeM0NWxwvKq3sdZnYfxjjLd/Yk19FKMDRGJu7sC4XGBqTpEoXCfacR+JWBKlSzi5G8zn07Rn1lC2QttrGPE0TmEVSQJtCkS8BxkzvJrJEqqihn3qgq5OnTpfWBSlIK1NNlTLciMMKTAEmMImQqTGM66Lf1P0XwWVRgOtwdEOSoKBzUrJYKFoUyiUmF9aIxqN0GotMB9pIZOMEI9HaU1GMaQgIYQbAOH1UQ4Elrnb40XOetsrtJv3y1FQrOV7VEXUEJjCRjoSIW0MTGxhVPoJeuLVcNzi6mGEdChJd2pbmzjeIh0vkhFv/zpKY3iRqOHvNiI8rf/eZylf5K1rt/jrV0/y8oVJVkvh+dkISghvRcJpS8qCDrdMlVauZ52SXvF3F0fFMGQxeNW60sL4aSBEzFse4Ncble5/CoHSXlqSENLzI9sI1/eyvO8koHDQ2q1FbGiF4XjRrZ/SNjrFVazsDHOXPCvozJUgRQtASSjX181eIaoldkM36dZttGx/jOa+g0SaOsCMeTkXy4XujaDygn/s3RykbiUQbz9po0LnKpV39693rDezzULEgumEcIWb1sXgc/8z//Nqak3neImgHUwM3GtPaY1h+Nuo0MLCcPKUTNcqF7VzICM4FT6Y0jv+7jnglm1bT13Q1alT5wuLf/vSQuHWNCmnYpOe8Ao92HufOx8vfY/GrTiqvU5WK5AaqV0rgfY6YyUjbp1MIVwvc8+Y4tcG9WYVQqPXyaswrmeSoLwOArfElnJLQ6KEm1A+VD/dXZ7/h3ACv3MlwPb2me3tR1O4dZHxlmNoN7EyeKrBfxHeyrvZ6b3p3VqU/v7WlB3ia+F/VXMS7VASijXb4Cenr/KXL33AOzcmyDpOEHAiHT84okhKSu4f6OKfP7yPL++/h75MJBB0QaLAEH4tUm+vee/8zlKFzqIybpVWQlbNzaG17abe0BohTGT44FDeSf6R1/7QPt7+DftT1li0Xnce1aYc3YxXVi0UOqJUUOxeYXjWWhXUhg0mQ3r7xt0/bp4/OxDKTiFHceEy89ffY+bS266lDjf3nm+di2pJyRviF4lmMp0jtGx/jMa+e4k2diEiDdgkUN41bCgQOKETxjvxKnaGl1souNidoMJKeH2ll6Tbf3UxPH/S0Hkc7FHD+63/6qENr/rSRtz27A5Rrl/sUrYqB1NoNyilmuo9QCD36tSpU+cLjAyJHdNrEreEnP93+XP3Bv6R8X7q5jvUSCGRGG75bb+MXsQkZrqvpmGWaz8qr65jaFblJry8kbXXrdyxuz/wpxPedhpoTO1tswJTQ0TrwMIhcMuChYeyzBrCxU3XYuEIsCU4QrhNgiO97/3pKH9v+25O3gbV6oTC+EJEVTX/y4gdoVSwafWieRuEGzEcJlS6NkDb67epjGcZCdLSCJQwUMLw6s/6a+BOF24KE4W57vM7NddiE/VeDW+ZoRbebo/wCKMOpl2/r9QmxZxL+MAYgLteEAEZ9/6OeSLOQOI54Iea/7/EzRdnCANEHIwoGnfoONayndZt99Ox4zBmxxDg1pJ1bDcpsSMtolpiaAu5NkPu1odMnvsnFi/9isLcVbCLXm1Vf/gYtDJQFTmEamy1cGtFKunWwnWC68MI1hcvCyM6itTe51oitHsNu/eG8nt3e8OvXhOs2zeVzb+q74R/1fvzjlYsR1BbzBG6dsJ7ovLqqFOnTp0vEBsl2PxM8VbBUcrNaq8FSmu08lq1z5Nn2dgI4d3kq9s6avQZgXAT3jDVBuiwcNSOJ1Xc9XSX5DrkK6wKwXGnoeH1W0rIQrJxc6187nutNbaGgtKslCxuzbjrmXNWQ1UibJTh56ErY0ZNksLwLFC+qPpiET6lNz6CH5fwnGucSOv+3ojydMKQIM1A1GX6jtC8/VFSvXvQiQyG2YAyDCwZDao6AGDNY0++y/TV48yOnSE/ex5hzaF05bGVwZDz+vUNPxj4lPejDv1m/W8/Lv6DSXX7uHyU+dS4S9SpU6fOF4fPQ9SFl6m9tBdSCIQhy0lW79B/1BZ17g82+nc71lVLuVPDtUyYSiCVa7uIelZM124TwSQSWDZdG6TERN+mVdsq9DphWqv5ljEbhSMEJSmZs4pcmlviw4krTM1NoCw3EELLItqQQWUObQhWDEmPdn2QzIhc5//3RUP4WTpuf8g/ATY6QWudm9V4v61Y0QjIBDLeQ6r7PrqHHqdl+2OkW7dBQw/KSKOMNJYZD64V2xTYUpObu8ri5V8xO3aG5VtXidhz4CWx1oY39O+GwW6wzmVq7zdRtp7V2rnViqxWq6L66+p2VxOHflDz95ug7kNXp06dOh+Rj3v7/DzEKHi9he92pMF2NI5jk7U0tqVwPvmyrJui5LhDpvP5AqPTi5y4fJV3Rse4OLUWBEQEVjppBW5NPZEkj+/p57mH7uPgtm5aUlFkVdoMlztZ7Gr9xudOv/31ptJ6cyfJcDvRdJvfBj5syvV1s1cpLt1g+eZZpm6NoleuVk7v14n1sAsFIh0j9A3uQXUfpak5hRYxN8pc4FVJWI/vVFCL9d9UrXvgFLoJqiarvTYu6+a6wS6rwPvBbfbwOsLLqQu6OnXq1PkYfJxb6Ocq6PADIyBXtLk4uczkwgI3lpdpdRxmlIkR2dy2OZbAiOjgtdZnd3qNS5Nc0aFo5RlfXmVyIcvlqVnGluyq6NaQqPPKqu3sSvLP7zvM1x/sp6clTdqUGwwP30mU1fqNz51+++vNZyLoKr4ToJSbaDd3g7XFOUpL16qmB1VYQMZbghxsAMWWJ9jaDpH0NoQRced5mwoJtxN0eJbiMlXzqQu6OnXq1Knjcze30c9NxNVAefn0bq4U+OXJC7x08gyTc6tkrRI6YiKscpktn0wkStYqkamqn3o7VlA0eJLidu8BhGWzYhssFp2KqNYw2lBkDIOsXaA/leKRnX38zkMjPLa9n7ZoFEM6oUHqdV3rHfC706CbrPr+N4mPs621ZEd4fv7wqAZlY5UspL2IY68hTYmyFdJcf2zXVDspmUWZzRiROFIKz+LHBuu52XX+ONv62RPeu5td47qgq1OnTp2Pyd3cRn+dBJ0GLCzGFkr8zbGT/OzYGc7NuFUngml0jJxSpKQkpyJebq9YRT63Svzvyvm4UtLyfrs5Nqr7qmWxolJExjB48p5uvvnQfvYNdLGtMUVKqo8h5qjq+O/2t180Ps621hJ0eHlXqqyZWoO2PZEXsmvJ8gODwkBqA+0oIIIWyg2EkLWW83HW96P89vOhHIy0OTY7XZ06derU2YB1AQe3ab9OCEBWBRCsegmaV50IWaJkRQSIhQSZL9TcNBfrm/udMty0IsqArIhU/L1RwxNz0rHXNdeWCGgL6RToMSN8eXsLX79/F/sGuujLJIlJG/uuM8XV+USpFnPgOcBF3O9ExG0yAiS8FvfOQwMhI26+RhGubVw/opuhLujq1KlT57cYqSBVXCGimoLPfFGncYdVq4XXehFW+boZBKV1TRslBGs15yOdIlI5tEdMDvS38+yTu/lfv36Uo/duZ2dzjKTp+r+Z66w5dT47biO8fF1WU595H1ZPE0xX80e/8dztFteHXOvUqVPntxgbuDizwt+9dpEfvXuMS5ML7uchHzltbNy1KGkglRO8VlP9ffgVqPiNX8YrjGmViMcFvR3tdLakGe7qYEd3G0eGBxhuayQV025pKy/1iaMlBmaQQPnXzSpa5w74p0D9sN01dUFXp06dOr/FKODqQo5j75/hL46f59LcHNJyyHtDsbHI7WL5PnmkSCAikDYFiXiUhmSUTDTBvQNd7N7azbbmZrY0pWhKxIh5PlhGKHmzob2seV5UZF3QfcGoC7qPTF3Q1alTp85vMQqHqUWLD8an+eDGTaZya+hSpV+diFoVf2+WeCRKwSpt6jVMLGqwtaWZTCZOWzpDQyJKSyJBazJK1BDEhRv44FrhHGzPfdxEI3TVutcFXZ3fEuqCrk6dOnV+i1GUKOUdbuUV8/lC8Ln2NJyIUDO9xKdBOJVFSyJBMipJRyPEpMDQIL1i9X4VS79SrfKCFyUOQleua13Q1fltoS7o6tSpU+e3Ga1RQmFrsJGYDkhDYHqyyRZga42joZYrnf95+PvwZ3Dn76sxBJieEJNeSt/KRZfH5bSXFcPHrWNbY0Xr1PkNpy7o6tSpU6dOgGfsWoffUVR2GG4CX+0NfqpQprFqm56bzb9abNVaUuVntaaoid+V1S1ydX5L+dwFnda6bhKvU+c3iPAtpX5t16lTp85nw+cq6JRSKK0xZPlZzu8A/NXSWqO0RlYl5ax3FHU+a7TWwXm50fkX/vxO04a5m2k3onr9Ps687oh2PZjC1ydQ81rlY25XnTp16tS5M5+LoNNagxY42s0/ZAgDTVncCSFQan2ofF3Q1fks8QVS+Lz0z10hbj8WpLXGUQopBDL0wPJJUUsA+g9IEoGQ60XVZghvs1YaIQWmYQTbA5QfwLRAo4IxOBUajDOEUVFM+6OsS506derU2Tyfi6DzCVsUlNZoR+E4NkpppBQopbEdG9MwicZjFZ1qvYOo82niCxhlO2itcJzyA4btrC9YHsY0TEzTxIyYd2Upsx2HUqEYnPPuZ7WX5X/vI6XAMCMYhnuNbHaZYfzrUSDRKBzbwbIsbMemWCyyurrK2tpaMH00GiWdThONxUjE4pimiTQNDGEgZH3otU6dOnU+Sz5XQeejlMIqlRi7eZN33nmHy5cvk8/ng+/37NnDgw8+yMDgYGAtqHcQdT5NtNbYtsNKdoWzZ85w/PhxZmdniUTcHFemaWLb68WWaZqk02n6+/vZsWOYoaFBMpnMHc9XrTVTU1OcOHGC06dPk81mAYLl+ViWRSQSCZYTj8dpamqiu7ubwcFBOjs6SSQTd1yez7prSYPWkF1d4dy5c5w9e5ZTp06xurpKoVCgUChQLBaJxcqF19vb2+nu7mZkZIT9+/fTs6WHRDJRnmdd0NWpU6fOp86vhaDTWrOwuMibb7zBn//5n3Py5EmKxWLQeR0+fJhnn32Wo0eP0t7eHvym3knU+TTwLwnbdrh16ybPP/88f/M3f8P58+fBE1lhQVNNY2MjPT099Pb2smfPHvbu3cuOHTto7+hAChH4mVUPxV66dIn/9t/+Gy+88ALLy8vB576AqhZSsViMxsZG0uk0nZ2d9PX10dfXR0dHRyAm0+k0jqMQUmBIGVw3/rUTWOU8y/fi0hJnz5zh9OnTvP/++5w9e5abN2+Sy+WwrNrJZVOpFOl0miNHjvDss8/y8COP0NLcXL8+69SpU+czxPiTP/mTP6n+8LNCKeUOazmK2dkZ3njjDd5++21GR0dZWVkhn89TKBSwbZuGhgZGRkZobW2F+hN/nc8ApTQrKyt8+OGHnDhxglu3bpHL5VhdXWV5eXnDNj8/z9jYGOfPn+f8+fOMj49jmiapVIqGTENgBROi8jyempritdde4+TJk4yPj5PL5chms6ytrbG4uMjq6iq5XI7FxcVgOTMzM0xMTHDlyhVOnz7NW2+9xdmzZ5mdnUVKiWEYpJIpotFosKzwMsPCbn5+nrfeeou//du/5Yc//CHHjx9ncnIysM7Ztl2z5fN5crkcAENDQ+wcHiaTyQTLqFOnTp06nz6fq6DD8ytfW8sxOjrKq6++yokTJ1hZWQm+l1JSKBSIx+OMjIzQv3XrOstGnTqfBhpYWV7m/PnznD59mtnZWZRSmKZJNBp1/eRqNKUUpVIJpRSLi4uMj48zNjZGPB6nrb2NpqYmhOfrRkhUjY9PcOzYMc6fP08+n3eDHJRCSomUkmg0ipQyWI5PqVSiVCoFD0DLy8tcvnyZU6dOsbCwQDqdpqWlBSkNtHdNhbFth9nZGd555x1+8IMf8NprrzExMRFsA56/XCKRIJPJkEwmg+ZvL97Q64EDBxgZGakLujp16tT5jPncBR1Abm2Nt958kxdffJGbN28GHRle52PbNvF4nJ07d9KzZQvxeAK5ySi+WiPKm/2d/9vNTP/rQnj4zH+9W+60vXczzzvN66MSXodPcxm1BF1zczP33Xcfhw4dYt++fezevZvdu3ezfft2uru7icfj2LYbSOBbsBYXFxFC0NbWRnd3N4lEAukF+fgsLMzz7rvvBoIOIB6Ps23btoplbN++nb6+Pnp6egI/uvA14/u6LS8vMz4+zsrKCtFolM6uTpKJSv8623HIr61x7tw5fvrTn/LGG29w9epVbNtGSkljYyNDQ0M88MADPP3003zlK1/hkUce4ZFHHmHfvn1s27aN9vZ24vE4DQ0N3HvvvXVBV6dOnTqfA5+roBNC4CjF7MwMr7/+Oq+//joLCwuBJSDseK61prW1la6uLrZ0d61zFt+Iu+nsw9NqrXEcNxFD2KJRU8xogZsHXdw2lcWvK8LzqfK333/dSDTV3KfaT+kBAnnb/VDz9xvtW491x0YpV7TWmJ8vZj8uGwm6jo4OvvrVr/L1r3+dxx57jIceeph9++5j//79bN++na2eFTmXywWizregJRIJent7aWttIxKJVKzn7Ows77zzDufPn8eyLKSUxGIxHn/8cb7xjW/w8MMPs2/fPvbt28fBgwcZGRlhZGSE4eHhQFjhWewKhQKlUonl5eUgmKO9rY2WlpYKPzylNbPzC7z+2mv87Gc/4/r165RKJQA6Ojp4+OGHeeaZZ/i93/s9jh49yuHDhzlw//3s37+f3Xv2cu/ICH19fWzdupWtW7cyPDzM1q1bSSTqQRF16tSp81nyuQo6rTW51VXOnj3Liy++yOnTp7Ft24sQ3EEsFqvw35FSsn37dkZGRjA3KeioEiy1mj9NgHb/Ngx3qKsWleLDf+8Ju8+x86rets206t+zbvvWd8jV8xACN/eZ9N5vYhnVVP+mejr/b/87P4Ft9XThaT8OYUHnR7kCbN26laNHj/LII48wNDhER3sbHR2dbNmyheHhYYZ3DtPQ0EAul2NqaorV1VUAcrkcpmkyMDDAjmH3/A6vZ1jQ5XI5lFJkMhmeeOIJnnnmGR44eJDh4Z0MDQ7S19fH4NAQe/bsYf++fezdu5ctW7bQ0NCAZVnkcrlg2DaXy7GwsICUkoGBAVpaW4PzupAvcPPmTV566UXOnTsXiNZMJsODDz7I9773PZ7+2tcZGhygpbmZZDJFMpkglUzSkMnQ1trGtm3buOeeexgeHqa3fystTY0gKtOnfBLHo06dOnXqbExttfIZobVmaSXL+fPnOXfuHJZlkUgk6Onp4eDBgxw4cIDu7m5M06RQKDAzM8P169dZXFpaJzjuFuVZeHz891prbOVUFHuuRngRilJKlGfJcxyFo507dlw6NJRb62+8dbMdh1KxRLFQwCpZ66a5HVrrYPs+SlNesIrWbhLd6nn701R/bjsOtuME34U/q572TvhDiBuJOx2y0oU/C2/3J0k8Hq/4O5FIEI/HiSfixOJxovEYkWiUaDxGW1s7+/fv58CBA/T19QW/tW078A+1bBut7ryekUiESCRCMpkkGothRkwiXv63luZmWlta6O7uZnjHMEePHuWb3/wm3/nOdzh06FAQQGTbNmNjY7z77rucPHmSxYWFYLm2Y7OwMM/q6iorKyvYto1pmnR3d7N//37uvfdeujs7SaZSGGYEIcvHQQhBJBqhoaGB9o4O+vv66GxrxTDMiunq1KlTp86nz+dqoQMYv3WTn/zkJxw/fpx8Pk9TUxMHDx7k8OHDNDc3Bw7lvkjo6Oigv7+fnp5eDGNjPaq1xrZsFhYWuH79OlevXuXWrVvMzs5hOQ5xz6k9m81y5coVPvzwQ959913OnTvH+fPnmZ6ewnEcEvEEkWgkEDkCsEoW41NTnPrgAy9v2CnOnj3D2NgY09PTKKVIJVNoAY6javr7hS0X+bU8t8ZvcfHiRd5//31Onz7NqVOnOHvuLOfOnePSpUtMT0/jOA6ZdAbDNIJt9F+11sF8rl+/wdjYDa5du8bU1BTj4+ObbnNz8+Ryq8SiUQzDRAuNRAb1rv31LuQLXL9xPchT5q/zmTNnuHjxIleuXGFpaclNtRGNEo/HK/aBv87+Z6ViiZnZGS5fvsKlS6NMTU0xNzcPaCKmiUawtLzEtatXuXDhAsePHw8eBK5cucLamutzFo1EEIaBIW4/7LsZdNWQ6/T0NACdnZ3s3buXkZERV+h44l7Ksu+ilJKpyUnOnTvH9PR0MIzZ2dnJ/fffz+DgIOlUukKshi10vg9dOp1m9+7dHDx4kKbGJnc4G7eSg795/vJi8TjdXd20tbVRLBZZWFhgZmYmiEbNZrOkUimGh3fS3tGBEIJSqcTExAQnTpzg7NmzlEolpJR0d3dz6NAhDhx8gOamRjfdinK3zTAqzz/ATcNiGAgpA8t2+HhXn/916tSpU+eT5XMVdPm1PBcuXOCFF15gdHSUUqlEa2srhw4d4sknn6Kzs4OzZ88yOjoaWA601gwMDLB161ZSqVT1LCEkFtbW1hgdHeVnP/sZL774Iu+99x63bt3EkJJkKsXc3BxvvPEGf//3f8/PfvYzXnrpJY4dOxbk31pYWADhWmMSiSTaUSwuLXLu3Dleefll/v7v/57nn3+e48ePB210dJSlpSU0mobGRmKxWKggkrtuwvMdnJ+fZ3T0Eh98cJIXX3yRF198kddee4033niDV155hbfeeov33nuvYn2yq1kSqTTJRBLDMIKO0nEUk5Nux/zqq6/w5ptvBuk23nvvPU6fPs0HH3ywYfOnO3fuLMVikYaGBpqbmtxO2htCVUoFAvjNN9/k5Zdf5oUXXuCll17itddeC/bB+++/z4kTJ7hy5QoTExPk83mklCTiCTcqUms05YFqgMXFRc6cOcMvfvEL3nrrLT744APGx8fRWpNMpVhZWeHdd9/lpZde4h/+4R949dVXefHFFzl16hQnTpzg4sWLFItFIpEomXSaaKycpuOjcjtB9/DDD7NtcIhMJh0MX/rCSkqJbVlcu3aN9957L4gY9X/ri8GEdwx9agm6WCzG/v37OXjwIM3NzUFJr7AQ9JFCYJgG6ZSbpmR2dpbx8fEgp51lWWQyGQ4ePMiWrm6i0SjFYpGJiQlOnjzJjRs3yOfzQQRvV1cXO4d30tLcDFIGwrV6uT4iNAxeTa3P6tSpU6fOJ8fnIui0N1w2MTHByy+/zJtvvsn09HTgI/eVr3yF/fv3E4/HA+taLpejUCiglKK3t5ft27dX+AKF8Tu7YrHIe++9x09/+lNeeeUVRkdHWVxcJJ1OY1kWr7/+Oj/96U958803uXjxIjdv3mRqaoqpqSkmJye5fPkyU1NTJJNJ2tvbsCyLV155hb/+67/mb//2b7l48SJjY2PMzMwE+cBu3rzJhQsXmJ+fp6O9nY6OjgpfKf81t7rKG2+8wd/93d/yk5/8hDfffJMPPviA0dFRJiYmmJ6eZnFxkZmZmaBjvnz5MlevXkU5Nm1trTQ2NQXbb5VK3Lo1zi9/+Qt+/vOfc/LkyUAMj46Oct7LibZR86e7fv06hmGwc+dO+nr7gvQYtmUzOzvLW2+9xU9/+lN+8pOfcOzYMc6cOcPVq1eZmJgI9t3U1BS3bt3i2rVrXL58mXPnzuE4Dm3tbZ6FsZxyw98fC0vLvP/euzz//PO8+eabjI6OMjMzQzweJxKJ8O677/L3f//3vPLKK5w+fZpbt24xPT3N1NQU09PTjI2NeRHSDm1t7aRSqXVBB3dLWNAdP36c+fl5CImynffsqhB0eFGjSmtWV1cZHR3lgw8+YGJiIhhC9sXgvbt3k0olK9avlqBLJpOupezAATfdySa2RxoGpmkyMzPDrVu3WFxcDFKQNDQ00N/fz+DQIIlkEgEsLCxw5coVrl+/Ti6Xq0hX0tnZQeeWHtLJJIb86EOpm1nvOnXq1Knz0fncBJ1VKnH+/Hl++MMfcubMGXK5HM3NzezevZuHH36YkV0jCCGCTmliYiL4bWNjIyMjI3S0t7sWsA2iGldzOS5euMCrr77K9evXcRyHeDxONBrl+vXrvPHGG7z//vvMzMwEnZhSKkg14SeK9SP2rl+/zo9//GN+/vOfc+vWLVZXV4PhLL/5v/O/a2lpoaO9g2g0GqyXEIKVlRVOnjzJP/7jP3L69GkmJyfJ5/NBVC+eH1kplGNsfn6e6elp5ufnicfjbOntI5VKoRxFsVhkamqSt99+m5MnTzI1NUU+n7+rZlkW7e3tPPjgg+zbt5+u7i4MKXGUYnJ6mrfefIMf/ehHvPDCC1y4cIHp6elgnf195++/8L6YnZ0Nqg20tLTQ1tqGYZrIUFTw4sIC77//Ph988AFXr15lbW0NwxMm4+PjvPXWW0Fy31KpFCzT9iJIC4UC8/Pz5HI5otEIHR0dNDU2VuRru1uUo1hZWQmGdqstdEPbt68TdMJLFTM1Ocmbb77Je++9FwQapFIptm/fzpNPPsnQ4OA6v7yNBN19993nDrluUtAprYkYJvML84yOjjI+Ph7Mr7Gxkf7+frZv305rcwvSMFDKCUTd3NxcsE9zuZx7bRQLpNMZ2tpaKyyKd8Nm1rtOnTp16nx0PjdBt7K6ynvvuhaZ69evg+cf99hjj3H06FG6u7uJmCaOUoyNjXHlyhVyuRyxWIxYLEZLSwvbtm2jsbExmGd1p5HP57l86RLHjx9namoqEEerq6tcvnyZXC7H8PAwDz30EAcPHmTbtm1Eo1HW1tYCgecXJZ+fnw+GJrXW7Nu3jyeffJIHHniAzs5OpJTB/JUXWWhZFl1dXQzvHCaVSgXr6Au6119/nTfeeIN8Ps+2bdt49NFHefTRRzl69ChHjhxh3759DA4OIqVkbW0tEDCFQoFUKsW2rVtpbW11hxe9fH4LnsN7d3c3AwMD9Pb20t/fT39/P0NDQ8FnvuXLF5DSyzl28OBBnnnmGe69d4RUMolWmoWFBd741ev8+Mc/5tVXXw38BKPRKD09PezZsyfYh/fccw/t7e1Eo9FAeNm2zeLiIvl8nkgkQld3Fw3pDNJ0h4xVyBJ28uRJZmdnA8FWKBS4ceMG2Ww28Os6fPhwsBytNcViMdjvhUKBWCxGT08PHR0dJJNlK5gO+XxVnyu10KHEwrUsdLvvvbdi2F9r17dtdsZN0vvLX/6SixcvBpbl/v5+nn76aQ4fPkLPli3rxNFGgq6Whc4/jzZsCIrFEpOTE4yNjbG8vBxY3bZs2cLOnTvp6uwiFotiGAalUil4YMjlckgpKRaLgRhfXFzwrguLaCxKxAt8uN0QbJjNTFOnTp06dT46n4ugs0oWY2M3gsoQy8vLxONxBgcHefTRR9m7bz9NjY0YhoEWksuX3KGr1dVVlFIYhkFXVxe7do3Q3tYWdCrVnUa1oPMtXsvLy0gpg7QM3/nOd3j6a1/nnp07icViLC0tkc1mA4vT4uIiN2/eZGxsDK01hw8f5nvf+x7f+973+NKXvsSuXbuQUjI/P8/y8nIgYpRSbNu2jZGREdf/KbR+i8srXLxwgampKXbs2MG3vvUtvvWtb/HMM8/wxBNP8Mijj/LYo4+yZ89eIhGThYWFYN6lUgkhBE1NTfT29tLU0AhozEiEtrZ29uzZzYEDBzh8+DAPPfRQ0A4fPszhw4fZsWMHADdv3gzm2dzczN69e/n617/OI488Qkd7BwhBsVDkwoULPP/887z00kuMj48HYq6/v5+nnnqKZ599lueee47f/d3f5dFHH+XBBx8knU6T80pX5XI5bC/RrtaaTCZDR0cH6WQS4Vm3FubnuXjxYkW+N+X57AkhGBkZ4Vvf+hbf/va3+d1v/DOOPvEEAwMDKKUCEWLbNsJz2t+2bRvbtm0j09CA9GqYhqk+V2pxOwvdyMgIvb29aE/0O45Dbm2NyYkJ3nnnHf7pn/6J999/n/HxcUqlEs3NzRViOZ5IoL0UN/66bCTo7tZCJ4RAOYql5SVGR0c5c+YMi4uLKK/KxeDgINu3b6d/az/xeBzDNInG4qAVS0tLQQCOL5CXl5f58MMPvfks4Ng2iUSCZCJJJOqmD6p1/YW53Xd16tSpU+fj87kIutxajmPHjvFP//RPnDlzBtu2A+vQV77yFXbu2IEZcQMgHMdhYX6eW7duMT8/T6FQCIqUDwwMsG3btnX5vHxqCTqA5uZmHn30UZ599lmeeOIJ+rduJZ1K0dbWSkdHJ0IIFhYWmJubC6xMvkP54cOHg991dXXTkGmko72ddDrNwsICY2NjgUUmFovR1tbG0NAQ3Z4Tur+eVqmIlJKdO3cGIm770BBNjU0kUklSXmml1pZWmpqbKRaLXL58ORCahmHQ3NzMzp073XnHosTicTra2unt7WFgYJD+rf2BsPFbU0srszPTnDlzhitXrrCysoJpmgwNDfHd736XZ555ht6eXoQh0UozOTnBa6+9xuuvv86FCxewveCUe+65h2effZZvfetbHDhwgI72dpLpNA3pDM3NzWzbto3m5mZmZmaYn5+nVCphWRbFYpHGxkYGBweDoWgBZLNu+pqLFy8Gw35SSlpaWjh8+DDf+c53eOqpp9g5vJOmpkYaGhvp6emhubmZbDbLxMREheDv6+tj+/YdtLW0YEgzEE8+tc6Xajay0AlvWHXeE6GnTp3ivffe49VXXgkCZd5///3Aktnc3MyhQ4f4zne+w4NHHqK9rc21blUFN2wk6GpZ6O6EBrKeGB0dHQ1EciwWo7+/P6jy4F87qWSSpqZGIpEIxWKRyclJisUiKjSsvby8zNWrV7l8+TJjY2MgoKGhgYhpgifMa/m0ssn9XadOnTp1Pjq1776fIlprcrkcY2NjnDt3LqjTmk6naWtro6uri2g8huOJr3Qyyfbt27k3NLzl+0uNjo4yPT2NVrfP5RUmHo/T2trKQw89xAMPPEBbWzuGlEQiJplMhv6t/QwPD9PT00MqlcIM1c3s6OjgySef5NFHH6W9owPTdCNA44k4fX197Nmzh+3btwfT+53g/Pw8ubVchZUolUwxMjLCU089xaEHHnDnF40G0/jDs9FYlP6t/QwMDNDR0YHpVc9YWFggm80CIL00JlIITDNCPJEgnoiTSCRJplKk02kymQzRSISJWzc5ffo0586dY2lpCdM06enp4bHHHmPv3r10dnRiRlz/NqtUYnp6mtHRUa5evUqhUACgra2Nxx57jC996Uuu9bGlhUjE9REUhhtB3N/Xx2OPPcajjz7KwMBAsN6rq6tcuXLFHfJecwu6CyEwvN+HMU2Tjo4ODhw4wIMPPkhvbx+RSBSlNVIIEokkg4ODFfne/GXMzs6Sza4E+QFVKDfdZsVF+LwK+7stLS1x8uRJfvzjH/PDH/6Qv/zLv+Qv//Iv+dGPfsQvf/lLTp48ydLSEpFIhMHBQb785S/z3HPP8fDDD9PV3o5pGhgbWJVrYVlW9UebJh6PV1SGACgWixQKBTcXnpdr0DAkvT29PPnkk/yrf/WveO6559i/fz+tra3B+VwoFJibm+Pdd9/lRz/6Ef/lv/wX/uzP/ozjJ06wuLDgVla5Q169OnXq1Knz6fCZCjqtNVbJYmpqmkuXLrlpQbzkqYODg9x33320tLSgnXLSWiMSYWhoiPvuu4++vr7g85mZGW7evMnk5CSWVdp0R5JKpRgaGmJ4eNjtrAwz6FSFECRicbq6umhvb68oL5ZIJBgcHGTv3r20d3RgSNeC5S82Ho/T0dFBW5tb0smnUCiQzWaxQ8EOQoggAW1bWzvRWCyYn23brOVyzM/PMzs7y+zsLFOTkywuLga/xyuWXvDKO1UgyvndDEMivW0rFYvcvHWLN954g9dff51r164FltEjR47wjW98g4P3HySeiLu+YGhya67w9gNA8LZz+/btHDp0iB3DbkUEQ7o536SXtgIgEonS2dnJo48+ysjICI1egEKpVGJubi6ooFB93MLiI5VKMTg4yPDwMOl0GiEFGhUsQ0hBOp328hL2rCsHZ1kWtmNjeCk3Niug8IcQqyI6w8Lmxo0bnD592stDeJrTp09z9erVIEWIn0/x2Wef5V//63/N008/TV9/f5BO5W7WpXq7NkNYjBaLxYrgEH8f+z6qQriWtUg0Ql9/P1966kv84R/+r3z729/m0UcfZXBwMBB2tudOMDc3xyuvvMKPfvQjfvSjH3Hs2DHm5mZxwkmp69SpU6fOZ8ZnKugAlleWOXv2DOe9epV44qSzs9MNSojF3I64VKKQL+BYFqlkim3btpFOp4OOKZfLBWlFVrLZTXcgkUjE9TtranKT0FbtASkFra2tNDU10dDQECyvu7ub3t5eMpmGQFAAaK0QSFKpFK2trUEUbS3CHbhpGBiGxLEtFpeWuH79OmfOnOHY28d49dVXeeGFF/jHf/xH/uIv/oL/+T//J6+88go3b94MhGFYyGkv4WstgaA8R/2FxUXeeecdXnnlFc6fP082m6WxsZFDhw7x1FNPsWPnPcQT5eS/ynZYWlpiZmaGubk5cjnXmtbZ2cmuXbvcAvOxyijNMEIK1+LZ309fXx/pdDoYuvYDTdbW1twEubos4IvFYvA+EonQ3t5OV1dXzZyDhpSkkimamprc41ljv5uGe/w22j8fBdM0A0tva2srmUxmXcRqQ0MDBw8e5Mknn+TI4SO0tbVVnDd3w0ex0Pli1Leq+udN1Evy7FeRcCcuv3VzNCbZs3cP3/3ud/k//o//gz/6oz8KhHlXVxd487Ntm9HRUX7yk5/w53/+5/zqV79i0XtI+6T2dZ06derU2RyfuaBbXV3l+PHjNcXJ/Pw8Z8+c4d333uX4iRO8+967nPzgA05/6Kb1wLOU4fnHjY+PB4l81R0EnT902tDQQFNTE5lMQ81OR0p3+NIv7eSvo2+BS6fLwkLhWrIQOhAO1R073rpa3nCU32zHcYcfr17lpRdf5M/+7M/4/vf/lP/z//w/+Y//8T/y/e9/n+9///v8p//0n/ibv/kb3njjDZaWlqpnfVv87VvL5Th37hwvv/wyJ0+erAhCOXLkCI899hjdHR0QigTV2g0gWVpaqigJFYvFaG9vp6WlPBRXjRHyo4olkkHReDwhUCgUyOfzlEoWynbQQuJYlZZGf1mxWIxMpoF4LL5OEAnP0pnJNFR8TkjIfBr4/p6/+7u/y+///u/zzDPPcOTIEQYHB4N9Mj8/z5kzZ7h06RLjE+Pk1/IVw753w91a6JRSKNthddUNSvGthnjzamtrc90JvHPWxz83lVKYXuDRwfsP8q1vfYt/9+/+Hd/73vf46le/ysjISHBt+NbKt99+mx//+MccO3aMNU/816lTp06dz45PXdD5HQTesN/09HSQFNYXS5Zlce7cOX7wgx/wn//zf65of/qnf8qf/umf8ld/9VeMj48H87W9uphXr15lbGyMUqFs2cFfruMEFh9/WWGEWB/9qD1rkenVj/Xf44m1jUQM3hBhNX59WgBHKWzbwbZsFhcWePXVV/mrv/or/uIv/oIf/ehH/OQnP+GXv/wlb7zxBidOnODatWvB+re0tAQdu2maldao0DZoL2mzP+xll0pcuXI1qMDg+8319/fz4IMP8thjj9GzpYdItHYSXr/TDgvbpqYm0ulUzel9/PXwqfbjyufzFIuFYH/XIhaLBfvOn06wuaHTWsL6kyKdTnPkyBG++93v8od/+If87//7/86//bf/lm984xvs2bOHRCLB/Pw8x48f5+/+7u944YUXGJ8YRztubdq75W4tdEprCsUCCwvz3Lx5k2KxGBy/jo4OOjo6aG1tJRKJVIjvMMqro5tMJRkYGOCRhx/mO88+x3e/+12+973vcfTo0Qor39TUFMeOHSs/rFnrr7c6derUqfPpUftu/gmitUYgsR2H6bl5zp49y/j4eIXAKhQKjI6O8tJLL/H888/z4x//mOeff76ivfLKK4yNjQXRf3jDrjdu3OD69evMLS6uE2dUCQl/mb4wUsotGh+2nFVP6/sNbYZSqXRba4pvYVpaXuLYsWO8+OKLgSP9qFf6bHBwkAceeICjR4/yrW99i3/xL/4Ff/AHfxDk5vPXp2LINVQXVWmNY1lopXEcxc1bt3jppRd59dVXGRsbw7ZtmpqaOHDgAF/60pe4d/duEsnEuu33qbXtgbD1oj1r/Q7PUpeIuUN8GwmsjX6LN/xaFn5elKrYePown7aFrq+vjx0772H/vn08eOgQT33pSzz77HN87WtfY2BggHg8Hog6v3LH0vLSbbd3I253TtVCelVSrl+/HqR08YnFYm60c1MThpcH0EeESpf50ar+8Y3F4/Ru6ebI4SN861vf4rnnnuPQoUMVQRPT09NBhZKPuq116tSpU+ej8akLOteaAtpRTNy6yalTpyqGW/3OwA8eyGazFe/zXhWDQqEQWIr831iWFQy7zs/OYpUsN1+D149Iw6jwyarGH14NE+6E/GGlWlY5EQoACHM7a4qUEq0Ut26Nc/z4cX7xi18wNjaG6dXNfOqpp/ijP/oj/v2///f8h//wH/jjP/5/8Ud/9Ed8+9vfdlODdHQQiUQqLHTVy5NCYEQiGIZkbm6W119/nZ///OdBypHGxkZ27drFQw89xJ49eyoSM9eilhALW+xq4TvkC0Rg4QsLrPAxUaq2IPT3uW+hU3eIZK4WPbXWe7P4IqfW8fXx18uIRIjGYrQ0N7NzeJgnn3ySxx57jM7OTkzTZH5+npMnT/LSSy+56UjWyg8km6X6GN8Jx3a4cuVKEJ3sR0PH43GGhobo7++nIZPZMMVILXxBnUgm2Lp1Kw8++CBHjx6tGGYG7soNok6dOnXqfHJs/o7+MVHKYWZmJqj4YHo+bYmE20Hs3buXBx54IGj+3/v372f//v3s3buXvXv3snXrVhIJt8h7oVBgcnKSM2fOcPOma33S2h0u8vEtdP7ywtQa/qr1mW3bFZa+6mnCgqRaWISxShbzC/OcPXuGkydPMjk5SaFQoKmpiSeeeIJnn32W7zz7HF966kvs37ePPXv3sGPHDrq6u2lqaqqYd6WFbv2w5eLSEidOnOD555/n9OnT5PN5EokEPT09QTWKni09bnTtbTpe37rmi9vl5WXGxsZYXc2hHDeRbzXKV9QCLEexurpaIeJisRgNDQ1kMhkikUhFx189RO5bZA3j9qdqtej5uBY67QWThAmL2Hw+j2OVMLQ7vO0oRTwRZ8eOHRw6dIj9+/fT1tZGPB5naWmJ1157jV/84heMT7iJme+G251TtZicmeHdd9/l3XffDSLJ4/E4e/bs4cCBA2wbHCJSI4DkTvjWOiEELa2tQXoff/3882NmZobV1dxdpROqU6dOnTofj9v3kh8T7flRWbbN9Nw8Y2NjjI+PB51vIpHgvvvu47vf/S5//Md/zL/5N/8maLX+/uM//mP+4A/+gIMHDwYWEsuymJubY2xsjLnFRRztIIRbf7Tah+52ViWfjcTN7Sx9QghsxyYaja4TFpFIJBAlSrmBEEtLS8zNzQWfNzQ08NBDD/Hoo4+ypbuLeCJONBbDDJWG8iNDLcuq2I5IJIIQ5fJLSmtKhSKXRkd58803gyAI27ZJpVI8+OCDPPnkk/T19ZXz13mWGqXdYVqlNdIwSSaTNDc3B/5WeEEtV65c4ebNMYqlErbj4NhecxROKOVMqVhifnY2SFLrC/jGxsYgKlWEUqtQNUQefu84CvR68bgRH8dCt1mMSBRHuOsvPb++trZ29u/fH+TGi3jl1SYnJzl27BjvvPOO6z/quMP9dyISiQTnVPW5qZTCdpyKNjk5ydtvvcnLL7/M1atXg9+mUinuvfdeDh06RFNDJjhfbMfBKlnrRKbtOFiW7fpBevvdH5IFSCUSG0YXJxIJotFIEGlbS/TXqVOnTp1Plk9V0AkhkAjy+TWuX73Chx9+yPLycjBk19LSwpEjR/id3/kdfu/3fo9/9s1v8u1vf5tvf/vbPPfsczz37HPB39/+9rf5Z9/8Jt/4xj/j4MGDtLS0gCfUZmZmGB0dZeLWTRzLQkgwpYE0jHXO+GGUctblzNqo87ndfLRyo1x9q1nYohIOisCzrM3Nza0TiIlEgmgshnYUtmUHnaxSioV517l9ZmZmnSitFpAA4xPjvPHGG7z66quBv2JrayuHDx/m0UcfZdvgEIl4eZ3wRJ0hJaZpuOJEChoaG2lvb2fr1q1BwMfy8nIwrJbL5dwcb6aBGTGJeM00XN+sqdlZ3n//PS5fvhwIUb/+a39/P01NTbcd1qzeR47enAj6NLidxc/3ORNCYJoGHR0d7N27l6GhIVKpFLZtB5UwXn75Zc6dO7cuiOd2hM+n6nNVOwrHS/MzMTnFSy+9xA9+8APefvttxsfHKRQKZDIZ9u7dy8MPP1xx7LXWaEexsprl1sQk8wsLWJaNctxcf34eQyHdZTmegHSUYnFpiampKaanpyusxbFYjEgkQjQave2xrVOnTp06nyyfqqDTXoJay7bXJag1vSoA999/PzuGh2lra6OluZlMJkMmkyGRTJBMJclkMqRTaTLpBlqam+nt7WF4eLiiasL09DQffPABY2NjZQtRqC+JxWKYXu6wMFKWM/b7VFtBfKrFBWE/Ou/nG/m1+YTnXS0QFhcXKRWLCEO6lRpMA+WVl/LLN4X3nU8kEgnqoSqlWFxYCPLNXb16FdvzARwcHOTJJ5/k4YcfprujA8OrVoB/nLwIXKtkBRGKiVicvr5+tmzZEuTks22ba9eu8corr/DSSy8xNTXlVghQbioW26sBml/Lc/3qFd58803Onz/P/Pw8pmmSTqfp7e2lv7+fTDrtrrd2EypTY8jVR3qlsjZDWGB8UlSfO2GRXk1TU3MwvOlXsACYm5vjrbfe4uTJk4xPjG/aSufjOO7Qrr+f82t5VlazjN28yS9++Uv+4//n/833v//94Lj4x35gYICjR48G6WnMSPn8yRfyXBod5R9//Pf8j//+3zl27C3mF+axSiVKxSJWqYRVsrBCUat2qcTU1DTvvfce586dCyzN/jU9MDDgJoLeRDRynTp16tT5ZPhUBZ1/M1+Yn+f69euMj48HObF8f67+/v7AMT9I62G7VgDl+SY5yi3fZFs20iu8PjQ0FHSqhUKBmZkZxsbGWF5ZxrJsV1h4Q65+2oZqEVWL6g7I970LW+g2En3U8HcKD7lKaRCNRkmn08E2A6ysrHDu3DlOeCWUrFKJUqHIzbExXnnllSC/lx+tGBY7lmWhPSvj4pIbPfuzn/2M48ePs7y8jGmatLW10dPTQ1NTE0tLy5w5e5ZTp07zwQengnbq1GnOnDnD2XPnmJqdZS2XIxqP0dvbw969exkZGaGtrQ3TNMnn85w8eZK/+7u/42c/+xlnzpxhemaa5eVlFhcWuHHjBi++5Ebw+qlS8I75yMgI9913H1t6+zCjbhkvqkRqmEQiQSwWR8rKiEwfX+SF97tfRaP6WHwcNnPu4J0bkYhJd1cXhw4d4sEHH3TFayaDaZqsrKzwyiuv8M4777jXggbUxudUzssh+Pzzz/PXf/0D/uLP/5wf/NVf8Rd//uf83//f/5vv/+mf8v3vf5//8l/+Cz/5yU/48MMPgyCITCbD/v37efrpp/nSl77kBmqExByA5Vm4P/zwQ374wx/yf/1f/xf/6T/9J/7hH/+R4ydOcPnKFa7fuM7169e4eOECb735Jv/4k5/wP/7Hf+fVV18NfPTwhnV7e3vZsWMHzXdRd7ZOnTp16nx8jD/5kz/5k+oPP0lWV1c5f/48v/jFLzh+/HjQMba0tHD06FGeeOIJWltaAmdrw/DSJnidgRACKd0nfcNwrUqruTXm5ma5ceNGYPkxDCMQiJ0dbtmuQrHItWvXOHXqFFNTU5imSWNjIyMjI4yMjNDR0YGscra3bZvFxUXOnTvHBx98wPz8PFJKmpqa2Lt3L8PDwzQ1N7vDXaFO2LZtbt66yfvvv8/o6Cj5fJ5YLMaWLVs4cOAA9+wcprGxEaUU09PTnDt3jtnZWUqlEoVCgYmJCebm5lhbW+PWrVuMXhrl7bff5uc//znvv/8+a2trOI6Dbdsor8h6T08PR44coWdLD7Zlc/78OX7xi1/w6quvMjc3R6lUIhqN0tjYSDKZ9LbrLB98cLJme+edt7l8+TKF/BpNTU00ZhqIRaOYplsebW5ujuXlZXK5HIVCgenpaa5evcrs7Kwb8HL5Mh988AG/+tWv+OlPf8rLL7/M+Pg4pVKJTCbDPffcw1NPPcXjjz9Bf2+v5/8n0MDK8jLnz5/n4sWLwdByU1MTg4OD7N+/n/a2Vkxv+rDlR2vN9PQ07777blDUPplMlsvF9bp+bB9FXGitg/U6d+4c8/PzKKXo7Oxk79697LxnF5lMuma0qGmapFIplFKMjY0xNjbG2toahUKBYrFIOp1mcGCQ1pYWpOkGpszNzfHOO++4x6BQQEqJ7dXtvXjxIu+99x7vvfcev/rVr3j99dc5duwYb775Ju+88w7Xr19neXmZUqkUWMpGRkb4yle+wj//59/mvr17iSfW+xUKDQuLC7z11lscO3aM0dFRzp49y9mzZ7l69Srnz5/nwoULnDp1ipMnT/Lyyy/z4osv8sorr3D9+nUKhQJKKTKZDLt37+arX/0qjzzyCE11QVenTp06nymfqqDTWjMzN8/7773Lr371K65fv45Sing8HlgORkZGSKVSgTi6XScghABP7C0vL3PhwgVmZmYolUrB77Zs2cLAwACpVIrc6irnzp3j+PHjTExMUCqVaG1trRR00nDHZ73FaqVZWFgICtjPzs4C0N7ezvDwMLt376a5uRmJJEjoK1xBNzE5wQcffBAIOiklXV1d7Nu3jx07dpBOpzGkpGRZrKysMD4+HoiEQqHAzZs3g+FSv9OcnJykr6+Pzs5OCl6FBdu2kVJyzz338PDDD7NlyxbGJ8b51a9+xQsvvMD58+cD4WzbNrlcjomJCS5evMj58+d5//33OXXq1Lp28uRJRkdHsSyLe+65h56eLUSiUTLpDMlUCsuyyOfzZLNZisUiuVyOmZkZzp49G6z3yy+/zLFjx7h48SIrKytIKWlubmbHjh088cQTPPPMM+zds5tY3LV4+sJ4YX6eU6dO8eGHHzI9PY1SiqamJnbu3MnIyC462juIRNdb3ByluDk2xokTJzhz5kwgaIaHh90hz09I0J0+fZrZ2dlA0B04cIDtQ0M0pN30H/78w8uJxeNIKZmbm+PmzZvkcjlKpRLFYjHwrWxpbaGp0c0JNzs7yzvvvMPZs2fJ5XKBD+Xq6irz8/NMTU0xNTXF7Owsi4uLZLNZcrlcYLENP7A8/vjjPPvss3z9619nYNu2DaNaC0X3vDt58iSXLl0KROfc3BwXLlyoEJLvvPMO586dY2JiIjgPTdOkubmZ3bt385WvfIWvfe1r9GzZgvkJWkfr1KlTp86dWW9a+ATRWjM/O8vo6GhF7rlUKsX27du5997dNDU1byjm1lljlEYKQUtzM/39/Wzfvp2mpqZgGPDy5cucOnXKtfB41iw8v6xqn6wA4Zbu8glXivBf/fdxL6Fu4ChuCKRnUfQJD81FIpFgyNUv/RXzcoE9/PDDPP744wwPD2N6vmn5fJ6pqSlu3LgRWLb279/PV77yFY4cORJETfrzDjM/P8+HH364Lsefv+7+/JeXlwNRlvdy/PnN9mqtFgoFdyjXs5pG4zGGhgZ55pnf4Zvf/GZQsN1PZZLNZgOxMT8/TzabxbZt4vF4kCbl29/+Ns8++xwjIyNEouUC9QASEaznRkgvYrIWsdvUlLWdDY77XVKokXsvHo+vS85L6Dw2pUFfXx9Hjx7lwIEDQWBJoVDgwoULvPLKK5w9e5blleWaQ67+8dto35imSWtrK1u3bmX//v189atf5bnnnuPf/Jt/wx/+4R9y9OhRenv7iG4Q0COEwDRMWlrcFCT33HNPkCjY9lwU5ufng+bniPT3RSaTYWRkhC9/+ct85zvf4Zvf/CYD2wY2XF6dOnXq1Pn0+NQtdIuLC0xMTGCapptdf8cODhw4wJEjR3jggQfIZDLB9NUdYy2EkEjDHaJyHIdYLEZnZyc9PT1s376d3bt3c++999La0oJpmKyurlIoFGhtbaWvr489e/awd+9edu3aRWNz07rSR1q7juK5XA4hBO3t7QwMDDAyMsL+/fsZGhqiocGtHSpCkRda6+B3yWSyYltHRkYYGhoimUi4Aikao7m5iY6ODpLJZJAepKWlhcbGRnp6ehgaGuKRRx7h6aef5vHHn6Cvrxcg2I4dO3bw0EMPsXfvXjKZDCsrbs1O0zTp6elhx44dDA0NVbSRkRGGh4eDznvr1q2MjIywdevWimn8PGrtbe2u8EIQjUVpbWmmu7ubLVu20NraSnt7e5C6orOzM1j3/v5+du7cycGDB3n66ad5+umnOXToENu2bSOZckuGBSJdaxCu6Pb3eVdXFwMDA+zevZsHHniAXbt20dLSumEuulxulYWFBZRS9PX1sWvXLvbu3ct99+2jq7ODiBmpCJLZLFprSsUiy8vLKKVobGxkYGAgyJE4MDgYHNNaaK0xvfJaQggSiQTd3d3s2LGD/v5+hoaGGB4epq2jk0QshqU0S4sLRKNR+vr6bnv8fGvxvn37OHz4cPCA8OUvf5kDBw4wODjkWoRDqW+qEUIgDTeqOZlMBsd1y5YtdHZ20t7eTltbG42NjbS2ttLT00NnZyf9/f3cd999PPTQQ3zta1/jK1/5Co8//jh9vX1EY64lcKN9UqdOnTp1Ph2ErmUa+ITQWrOwuMjYjTEWFubBsyxFo1FXhG3pIRqLVlgnwh3BRp8DrOXWGJ9whyxLpVIQWdrS0kr/VjfQQjuKufk5pqamg+W3tLTS2t5OZ1trTUuCoxSlQpHpmemgbFIkEiGTaQh+FwtFPPrrqLVmdXWV6enpYJ2i0SixWJyurk5aW1rX1Uv1t2FsbIzJyUmWlpYoFArE43E6OjrYsWOYrq5OGhsaWV5ZZmpqmmx2BcuyiEQigbhLxBOsrGaZmpwkm82ui/L0p98o+tb/zrf6+fNNe1GohKylWmvya3mmZ6a5efMmS0tLwRAgoVqvDQ0NdHR00NnZSWtrK8lUqiKiOLzf8Kob+Mcqm10BL7ihs7OTzo5OovFYhV+lj9aaQr7AtevXmJ+fX7dvkqlURT6/u0FrjW3ZTM7MMHHLHTLFszBv6e2js601sDbejlKxyMTkZJDiw1/HTKaBpiZXLCXiCSzLCs5p/7yrPnb+MfIjqjOZDNFolKamJlLJFJFoNPBD9dnoEvc/93MXLq8ss7CwwPz8fHBc816VFp9mLxK9tbWVrq4uWlpaKs5trTVo14Jdp06dOnU+Oz51QecLJNuxMQ136MgwJNIw13U8d4PW2kuz4YoXf2jNNEyi8VhgefOn8ZdvmmZl5xNGCxztoL3hUaUclNJIKTAME2G4udqqBUUY23ZwbMsTQO46CCEwI25ggY9SbgJfZbtDw/ligVKxGAi6VCpFLBolGoshhPBSR7idur+t4e9tx0HZTrDO4f0dHnY0DTP4LjyNj5QCKQ1kVVoTf939/WZb7vCs7dhYto0KDXFHYzESsXiw36q3PUx4/zlKVWyDf56IqpQlvrj0f+//Ljwkappu6pfq4/VRsB2HUqFIvlggYpqYhhkIJ7RrNd6oxqwQwo3Wth0cx64oYSalwDAjmN6wrdYaq2RRKBbWHZcwfpCQEBKtlZtY2ssj6CfzJSR8q89RH+1Vw5BewuDwcfXPxzCWo0jEokjDIBGLE4lGMb3k1P78wudJnTp16tT57PjUBV1Q19PrhKq/r/5sM6xbZe0Wba+elz+d1jqo76rQSDyxVd0Ja4FGVXSE4Q5Pedn0b2f98Dvm8N/U2FZfiOD5kElPHNjKzU0mhUDgrmP1etTCX2YwDMnDh/gAAAHjSURBVHyXu7XWOtf6LvhMuUOl1fvC3yZDyk2vi/ZKSuFZi3wR5oteQulJqBJ0hMQx/nI/wjm1GfxjGN7X2j+xNqD6Nxsdv7vB31/h0mQSNxl0mPC5V4vq8yrYrtvsv+pjRY1jE36tU6dOnTqfDZ+6oOM2N3e/s/soVMxb1xYN1ZsWXt5mlut3XtXTVv/tU708nwoREPptML0nSMtfuMLSfV+ujSqrgkRqssG++LTxt6XWdt52fav2W3h/65Dg4A7zrLXcT4vw+oaPbTUbrVP137Wodd6FqVgHT1jebvrbUb3PfarPVX9b/WmqBd3tjk+dOnXq1Pl0+dQF3e1u7Hf6/nZs1Fn6+B3PJ9HJbNTJVXOnXVndQd6OWt/7v7/dOnxe1FrfMJtd5/B8qudZPY/qvz8LwoKGO6zDRudo9d/VbPS721F9rn9Uau3z6s+q//b5JK61OnXq/P/btYMUBkIYCqDt/S/dVTddZMaxQb6+t1XEKEhIhGfm+z+Fq0f9anxW9/qc6X2nUjrhydqj8wHYS2tCBydLT7LS9w9wktaW62r/akOtUF1LakyjqjN4LTyH0ZbrVzU3wW88lfRYAdKo0AEAhNs6oVMloEP3HzoAGLV1Qke29IQpff8A5Nj6Dx0AwAk+PviFXWwqzpsAAAAASUVORK5CYII=;" parent="1" vertex="1">
          <mxGeometry x="160" y="290" width="317.67" height="130" as="geometry" />
        </mxCell>
        <mxCell id="uxfQmLQUjlS_1vEImq67-6" style="edgeStyle=orthogonalEdgeStyle;rounded=0;orthogonalLoop=1;jettySize=auto;html=1;" parent="1" source="uxfQmLQUjlS_1vEImq67-3" target="uxfQmLQUjlS_1vEImq67-4" edge="1">
          <mxGeometry relative="1" as="geometry" />
        </mxCell>
        <mxCell id="uxfQmLQUjlS_1vEImq67-3" value="extract_mysql_full.py" style="shape=image;verticalLabelPosition=bottom;labelBackgroundColor=#ffffff;verticalAlign=top;aspect=fixed;imageAspect=0;image=data:image/svg+xml,PHN2ZyB4bWxuczpjYz0iaHR0cDovL2NyZWF0aXZlY29tbW9ucy5vcmcvbnMjIiB4bWxuczpkYz0iaHR0cDovL3B1cmwub3JnL2RjL2VsZW1lbnRzLzEuMS8iIHhtbG5zOmlua3NjYXBlPSJodHRwOi8vd3d3Lmlua3NjYXBlLm9yZy9uYW1lc3BhY2VzL2lua3NjYXBlIiB4bWxuczpyZGY9Imh0dHA6Ly93d3cudzMub3JnLzE5OTkvMDIvMjItcmRmLXN5bnRheC1ucyMiIHhtbG5zOnNvZGlwb2RpPSJodHRwOi8vc29kaXBvZGkuc291cmNlZm9yZ2UubmV0L0RURC9zb2RpcG9kaS0wLmR0ZCIgeG1sbnM6c3ZnPSJodHRwOi8vd3d3LnczLm9yZy8yMDAwL3N2ZyIgeG1sbnM9Imh0dHA6Ly93d3cudzMub3JnLzIwMDAvc3ZnIiB4bWxuczp4bGluaz0iaHR0cDovL3d3dy53My5vcmcvMTk5OS94bGluayIgdmVyc2lvbj0iMS4xIiBpZD0ic3ZnMTk2OTUxIiBpbmtzY2FwZTp2ZXJzaW9uPSIwLjkyLjMgKDI0MDU1NDYsIDIwMTgtMDMtMTEpIiBzb2RpcG9kaTpkb2NuYW1lPSJweXRob25fdG9vbHNfYW5kX3Nkay5zdmciIHg9IjBweCIgeT0iMHB4IiB2aWV3Qm94PSIwIDAgNDggNDgiIHN0eWxlPSJlbmFibGUtYmFja2dyb3VuZDpuZXcgMCAwIDQ4IDQ4OyIgeG1sOnNwYWNlPSJwcmVzZXJ2ZSI+JiN4YTs8c29kaXBvZGk6bmFtZWR2aWV3IGJvcmRlcmNvbG9yPSIjNjY2NjY2IiBib3JkZXJvcGFjaXR5PSIxIiBmaXQtbWFyZ2luLWJvdHRvbT0iMCIgZml0LW1hcmdpbi1sZWZ0PSIwIiBmaXQtbWFyZ2luLXJpZ2h0PSIwIiBmaXQtbWFyZ2luLXRvcD0iMCIgZ3JpZHRvbGVyYW5jZT0iMTAiIGd1aWRldG9sZXJhbmNlPSIxMCIgaWQ9Im5hbWVkdmlldzE5Njk1MyIgaW5rc2NhcGU6Y3VycmVudC1sYXllcj0ic3ZnMTk2OTUxIiBpbmtzY2FwZTpjeD0iMzIuMDAwMDE1IiBpbmtzY2FwZTpjeT0iMzIuMDAwNTg2IiBpbmtzY2FwZTpwYWdlb3BhY2l0eT0iMCIgaW5rc2NhcGU6cGFnZXNoYWRvdz0iMiIgaW5rc2NhcGU6d2luZG93LWhlaWdodD0iMTAxNyIgaW5rc2NhcGU6d2luZG93LW1heGltaXplZD0iMSIgaW5rc2NhcGU6d2luZG93LXdpZHRoPSIxOTIwIiBpbmtzY2FwZTp3aW5kb3cteD0iLTgiIGlua3NjYXBlOndpbmRvdy15PSItOCIgaW5rc2NhcGU6em9vbT0iMTAuMjcyOTE3IiBvYmplY3R0b2xlcmFuY2U9IjEwIiBwYWdlY29sb3I9IiNmZmZmZmYiIHNob3dncmlkPSJmYWxzZSI+JiN4YTsJPC9zb2RpcG9kaTpuYW1lZHZpZXc+JiN4YTs8ZyBpZD0iZzE5Njk0OSIgdHJhbnNmb3JtPSJ0cmFuc2xhdGUoLTcuNjUsLTcuNjQ5MjgwNikiPiYjeGE7CTx0aXRsZSBpZD0idGl0bGUxOTY5MDUiPlBhZ2UtMTwvdGl0bGU+JiN4YTsJPGcgaWQ9Imdyb3VwMTE3Ny0xIiB0cmFuc2Zvcm09InRyYW5zbGF0ZSg3LjY1LC03LjYxMzQyKSI+JiN4YTsJCTx0aXRsZSBpZD0idGl0bGUxOTY5MDciPlB5dGhvbiBUb29scyBhbmQgU0RLPC90aXRsZT4mI3hhOwkJPGcgaWQ9Imdyb3VwMTE3OC0yIj4mI3hhOwkJCTx0aXRsZSBpZD0idGl0bGUxOTY5MDkiPlNoZWV0LjExNzg8L3RpdGxlPiYjeGE7CQkJPGcgaWQ9Imdyb3VwMTE3OS0zIiB0cmFuc2Zvcm09InRyYW5zbGF0ZSgwLC0xMi4zMTQ3KSI+JiN4YTsJCQkJPHRpdGxlIGlkPSJ0aXRsZTE5NjkxMSI+U2hlZXQuMTE3OTwvdGl0bGU+JiN4YTsJCQkJPGcgaWQ9InNoYXBlMTE4MC00Ij4mI3hhOwkJCQkJPHRpdGxlIGlkPSJ0aXRsZTE5NjkxMyI+U2hlZXQuMTE4MDwvdGl0bGU+JiN4YTsJCQkJCTxwYXRoIGlkPSJwYXRoMTk2OTE1IiBpbmtzY2FwZTpjb25uZWN0b3ItY3VydmF0dXJlPSIwIiBzdHlsZT0iZmlsbDojMzc3MkE0OyIgZD0iTTAsNTEuMTdjMC4wMi0wLjA2LDAuMDQtMC4xMywwLjA1LTAuMiAgICAgICBjMC4wNC0wLjcsMC4wNC0xLjQsMC4xMS0yLjFjMC4yNC0yLjI2LDAuNzYtNC40NCwyLjE4LTYuMjhjMS4xLTEuNDQsMi41NC0yLjMsNC4zMy0yLjU0YzAuMjUtMC4wMywwLjUxLTAuMDQsMC43Ni0wLjA0ICAgICAgIGM1LjM5LDAsMTAuNzksMCwxNi4xOCwwYzAuMzEsMCwwLjMxLDAsMC4zMi0wLjMyYzAtMC4zNy0wLjAyLTAuNzUsMC0xLjEyYzAuMDEtMC4yMy0wLjA3LTAuMjktMC4yOS0wLjI5ICAgICAgIGMtMi45OCwwLjAxLTUuOTUsMC4wMS04LjkzLDAuMDFjLTAuNywwLTEuMzktMC4wMS0yLjA5LDBjLTAuMTksMC0wLjI2LTAuMDUtMC4yNS0wLjI1YzAtMS44My0wLjAxLTMuNjcsMC01LjUgICAgICAgYzAuMDEtMC44MiwwLjQtMS41MSwwLjkzLTIuMTFjMC43NC0wLjg0LDEuNjktMS4zNiwyLjcxLTEuNzVjMS4yNi0wLjQ4LDIuNTctMC43MywzLjg5LTAuODljMS44My0wLjIzLDMuNjYtMC4yNSw1LjQ5LTAuMTcgICAgICAgYzEuOTcsMC4wOCwzLjkyLDAuMzUsNS43OCwxLjA3YzEuMjYsMC40OSwyLjQsMS4xNiwzLjIzLDIuMjZjMC42OSwwLjkxLDEuMDEsMS45MiwwLjk1LDMuMDhjLTAuMDUsMC45My0wLjAyLDEuODctMC4wMSwyLjgxICAgICAgIGMwLDEuNzMsMC4wMSwzLjQ2LDAuMDEsNS4xOWMwLDEuMDIsMC4wMiwyLjA0LTAuMDUsMy4wNmMtMC4xNCwyLjQtMS4yOSw0LjExLTMuNTEsNS4wNGMtMS4wMSwwLjQyLTIuMDYsMC42MS0zLjE0LDAuNjEgICAgICAgYy0zLjgyLDAtNy42NS0wLjAxLTExLjQ3LDBjLTEuMjIsMC0yLjM5LDAuMjctMy40NSwwLjkxYy0xLjQsMC44NS0yLjIsMi4xNS0yLjY1LDMuN2MtMC4yMiwwLjc3LTAuMzEsMS41Ny0wLjMyLDIuMzcgICAgICAgYzAsMS43MywwLDMuNDYsMCw1LjE5YzAsMC4zNSwwLDAuMzUtMC4zNCwwLjM1Yy0xLjI1LDAtMi40OSwwLjA0LTMuNzQsMC4wMWMtMS4yNy0wLjA0LTIuMzctMC41NC0zLjMyLTEuMzcgICAgICAgYy0xLjEyLTAuOTYtMS44Mi0yLjE5LTIuMzEtMy41NmMtMC40Ni0xLjI1LTAuNzMtMi41NC0wLjg0LTMuODZjLTAuMDgtMC44NC0wLjExLTEuNjgtMC4xNi0yLjUyICAgICAgIEMwLjA0LDUxLjg3LDAuMDIsNTEuNzgsMCw1MS42OUMwLDUxLjUyLDAsNTEuMzUsMCw1MS4xN3oiLz4mI3hhOwkJCQk8L2c+JiN4YTsJCQkJPGcgaWQ9InNoYXBlMTE4MS02IiB0cmFuc2Zvcm09InRyYW5zbGF0ZSgxNS4yMDMzLC0yNy44MzIpIj4mI3hhOwkJCQkJPHRpdGxlIGlkPSJ0aXRsZTE5NjkxOCI+U2hlZXQuMTE4MTwvdGl0bGU+JiN4YTsJCQkJCTxwYXRoIGlkPSJwYXRoMTk2OTIwIiBpbmtzY2FwZTpjb25uZWN0b3ItY3VydmF0dXJlPSIwIiBkPSJNMCw2MS4xNWMwLDEuMTksMC45NCwyLjE1LDIuMTEsMi4xNWMxLjE1LDAsMi4xMS0wLjk3LDIuMTEtMi4xMyAgICAgICBjMC0xLjE5LTAuOTUtMi4xNi0yLjExLTIuMTVDMC45Myw1OS4wMywwLDU5Ljk3LDAsNjEuMTV6Ii8+JiN4YTsJCQkJPC9nPiYjeGE7CQkJCTxnIGlkPSJzaGFwZTExODItOCIgdHJhbnNmb3JtPSJ0cmFuc2xhdGUoMTUuMjAzMywtMjcuODMyKSI+JiN4YTsJCQkJCTx0aXRsZSBpZD0idGl0bGUxOTY5MjMiPlNoZWV0LjExODI8L3RpdGxlPiYjeGE7CQkJCQk8cGF0aCBpZD0icGF0aDE5NjkyNSIgaW5rc2NhcGU6Y29ubmVjdG9yLWN1cnZhdHVyZT0iMCIgc3R5bGU9ImZpbGw6I0ZGRkZGRjsiIGQ9Ik0wLDYxLjE1YzAtMS4xOCwwLjkzLTIuMTIsMi4xMS0yLjEzICAgICAgIGMxLjE2LTAuMDEsMi4xMSwwLjk2LDIuMTEsMi4xNWMwLDEuMTYtMC45NiwyLjEzLTIuMTEsMi4xM0MwLjk0LDYzLjMsMCw2Mi4zNCwwLDYxLjE1eiIvPiYjeGE7CQkJCTwvZz4mI3hhOwkJCTwvZz4mI3hhOwkJCTxnIGlkPSJncm91cDExODMtMTAiIHRyYW5zZm9ybT0idHJhbnNsYXRlKDEyLjU5NCkiPiYjeGE7CQkJCTx0aXRsZSBpZD0idGl0bGUxOTY5MjkiPlNoZWV0LjExODM8L3RpdGxlPiYjeGE7CQkJCTxnIGlkPSJzaGFwZTExODQtMTEiPiYjeGE7CQkJCQk8dGl0bGUgaWQ9InRpdGxlMTk2OTMxIj5TaGVldC4xMTg0PC90aXRsZT4mI3hhOwkJCQkJPHBhdGggaWQ9InBhdGgxOTY5MzMiIGlua3NjYXBlOmNvbm5lY3Rvci1jdXJ2YXR1cmU9IjAiIHN0eWxlPSJmaWxsOiNGRkRBNEI7IiBkPSJNMzUuNDEsMzkuNjZjLTAuMDIsMC4wNy0wLjA1LDAuMTQtMC4wNSwwLjIxICAgICAgIGMtMC4wNCwwLjctMC4wNSwxLjQtMC4xMiwyLjA5Yy0wLjIzLDIuMjctMC43NSw0LjQ1LTIuMTcsNi4yOWMtMS4xLDEuNDQtMi41NCwyLjMtNC4zNCwyLjUzYy0wLjI1LDAuMDQtMC41LDAuMDUtMC43NiwwLjA1ICAgICAgIGMtNS4zOSwwLTEwLjc4LDAtMTYuMTcsMGMtMC4zMiwwLTAuMzIsMC0wLjMyLDAuMzJjMCwwLjM3LDAuMDEsMC43NSwwLDEuMTJjLTAuMDIsMC4yMywwLjA3LDAuMjksMC4yOCwwLjI5ICAgICAgIGMyLjk4LTAuMDEsNS45Ni0wLjAxLDguOTQtMC4wMWMwLjY5LDAsMS4zOSwwLjAxLDIuMDksMGMwLjE5LDAsMC4yNSwwLjA1LDAuMjUsMC4yNWMtMC4wMSwxLjgzLDAuMDEsMy42Ny0wLjAxLDUuNSAgICAgICBjLTAuMDEsMC44Mi0wLjM5LDEuNTEtMC45MywyLjExYy0wLjc0LDAuODMtMS42OCwxLjM2LTIuNywxLjc1Yy0xLjI2LDAuNDgtMi41NywwLjcyLTMuOSwwLjg5Yy0xLjgyLDAuMjMtMy42NSwwLjI1LTUuNDgsMC4xNyAgICAgICBjLTEuOTctMC4wOS0zLjkyLTAuMzUtNS43OC0xLjA3Yy0xLjI2LTAuNDktMi40LTEuMTYtMy4yNC0yLjI3Yy0wLjY4LTAuOS0xLTEuOTItMC45NC0zLjA3YzAuMDUtMC45MywwLjAxLTEuODcsMC4wMS0yLjgxICAgICAgIGMwLTEuNzMtMC4wMS0zLjQ2LTAuMDEtNS4xOWMwLTEuMDItMC4wMi0yLjA0LDAuMDQtMy4wNmMwLjE0LTIuNCwxLjI5LTQuMTEsMy41Mi01LjA0YzEtMC40MywyLjA2LTAuNjEsMy4xNC0wLjYxICAgICAgIGMzLjgyLDAsNy42NCwwLjAxLDExLjQ2LDBjMS4yMywwLDIuNC0wLjI3LDMuNDYtMC45MWMxLjQtMC44NSwyLjItMi4xNSwyLjY0LTMuN2MwLjIyLTAuNzcsMC4zMi0xLjU3LDAuMzItMi4zNyAgICAgICBjMC4wMS0xLjczLDAtMy40NiwwLTUuMmMwLTAuMzQsMC0wLjM0LDAuMzUtMC4zNGMxLjI0LDAsMi40OS0wLjA0LDMuNzMtMC4wMWMxLjI3LDAuMDQsMi4zNywwLjU0LDMuMzMsMS4zNyAgICAgICBjMS4xMSwwLjk2LDEuODEsMi4xOSwyLjMxLDMuNTZjMC40NSwxLjI1LDAuNzIsMi41NCwwLjg0LDMuODZjMC4wNywwLjg0LDAuMTEsMS42OCwwLjE2LDIuNTFjMCwwLjEsMC4wMywwLjE5LDAuMDUsMC4yOCAgICAgICBDMzUuNDEsMzkuMzIsMzUuNDEsMzkuNDksMzUuNDEsMzkuNjZ6Ii8+JiN4YTsJCQkJPC9nPiYjeGE7CQkJCTxnIGlkPSJzaGFwZTExODUtMTMiIHRyYW5zZm9ybT0idHJhbnNsYXRlKDE1Ljk4MTMsLTMuOTEyKSI+JiN4YTsJCQkJCTx0aXRsZSBpZD0idGl0bGUxOTY5MzYiPlNoZWV0LjExODU8L3RpdGxlPiYjeGE7CQkJCQk8cGF0aCBpZD0icGF0aDE5NjkzOCIgaW5rc2NhcGU6Y29ubmVjdG9yLWN1cnZhdHVyZT0iMCIgZD0iTTQuMjIsNjEuMTZjMC0xLjE5LTAuOTQtMi4xNS0yLjExLTIuMTVDMC45Niw1OS4wMiwwLDU5Ljk4LDAsNjEuMTQgICAgICAgYzAsMS4xOSwwLjk1LDIuMTYsMi4xMiwyLjE1UzQuMjIsNjIuMzQsNC4yMiw2MS4xNnoiLz4mI3hhOwkJCQk8L2c+JiN4YTsJCQkJPGcgaWQ9InNoYXBlMTE4Ni0xNSIgdHJhbnNmb3JtPSJ0cmFuc2xhdGUoMTUuOTgwNywtMy45MTIpIj4mI3hhOwkJCQkJPHRpdGxlIGlkPSJ0aXRsZTE5Njk0MSI+U2hlZXQuMTE4NjwvdGl0bGU+JiN4YTsJCQkJCTxwYXRoIGlkPSJwYXRoMTk2OTQzIiBpbmtzY2FwZTpjb25uZWN0b3ItY3VydmF0dXJlPSIwIiBzdHlsZT0iZmlsbDojRkZGRkZGOyIgZD0iTTQuMjIsNjEuMTZjMCwxLjE4LTAuOTMsMi4xMi0yLjEsMi4xMyAgICAgICBDMC45NSw2My4zLDAsNjIuMzMsMCw2MS4xNGMwLTEuMTYsMC45Ni0yLjEyLDIuMTEtMi4xM0MzLjI4LDU5LjAxLDQuMjIsNTkuOTcsNC4yMiw2MS4xNnoiLz4mI3hhOwkJCQk8L2c+JiN4YTsJCQk8L2c+JiN4YTsJCTwvZz4mI3hhOwk8L2c+JiN4YTs8L2c+JiN4YTs8L3N2Zz4=;" parent="1" vertex="1">
          <mxGeometry x="580" y="331" width="48" height="48" as="geometry" />
        </mxCell>
        <mxCell id="uxfQmLQUjlS_1vEImq67-4" value="S3 Bucket" style="sketch=0;outlineConnect=0;fontColor=#232F3E;gradientColor=none;fillColor=#7AA116;strokeColor=none;dashed=0;verticalLabelPosition=bottom;verticalAlign=top;align=center;html=1;fontSize=12;fontStyle=0;aspect=fixed;pointerEvents=1;shape=mxgraph.aws4.bucket;" parent="1" vertex="1">
          <mxGeometry x="730" y="316" width="75" height="78" as="geometry" />
        </mxCell>
        <mxCell id="uxfQmLQUjlS_1vEImq67-8" value="Extracting data from an AWS RDS MySQL database, storing it locally as a CSV and uploading it to S3" style="rounded=0;whiteSpace=wrap;html=1;" parent="1" vertex="1">
          <mxGeometry x="325" y="130" width="360" height="60" as="geometry" />
        </mxCell>
        <mxCell id="xwxOg03AbOwFgKBxne6G-9" value="Amazon Web Services (AWS)" style="points=[[0,0],[0.25,0],[0.5,0],[0.75,0],[1,0],[1,0.25],[1,0.5],[1,0.75],[1,1],[0.75,1],[0.5,1],[0.25,1],[0,1],[0,0.75],[0,0.5],[0,0.25]];outlineConnect=0;gradientColor=none;html=1;whiteSpace=wrap;fontSize=12;fontStyle=0;shape=mxgraph.aws4.group;grIcon=mxgraph.aws4.group_aws_cloud_alt;strokeColor=#232F3E;fillColor=none;verticalAlign=top;align=left;spacingLeft=30;fontColor=#232F3E;dashed=0;labelBackgroundColor=#ffffff;container=0;pointerEvents=0;collapsible=0;recursiveResize=0;" vertex="1" parent="1">
          <mxGeometry x="140" y="230" width="730" height="280" as="geometry" />
        </mxCell>
      </root>
    </mxGraphModel>
  </diagram>
</mxfile>
